999
DXF file: 0583667_008-000-DWG-01-DE_EN_FR.dxf
999
Pro/ENGINEER 2023424 by Parametric Technology Corporation
  0
SECTION
  2
HEADER
  9
$ACADVER
  1
AC1027
  9
$DWGCODEPAGE
  3
ANSI_1252
  9
$EXTMAX
 10
420.0
 20
297.0
 30
0.0
  9
$EXTMIN
 10
0.0
 20
0.0
 30
0.0
  9
$LIMMIN
 10
0.0
 20
0.0
  9
$LIMMAX
 10
420.0
 20
297.0
  9
$VIEWCTR
 10
210.0
 20
148.5
  9
$VIEWSIZE
 40
297.0
  9
$CLAYER
  8
0
  9
$LTSCALE
 40
23.1
  9
$CELTYPE
  6
BYLAYER
  9
$DIMSCALE
 40
1.0
  9
$DIMASZ
 40
3.5
  9
$DIMEXO
 40
0.0
  9
$DIMDLI
 40
15.96
  9
$DIMEXE
 40
1.5
  9
$DIMCEN
 40
3.78
  9
$DIMLFAC
 40
1.0
  9
$DIMBLK
  1
_FILLED
  9
$DIMALT
 70
0
  9
$DIMALTF
 40
0.0393700787
  9
$DIMTXT
 40
3.5
  9
$DIMTOL
 70
1
  9
$DIMLIM
 70
0
  9
$DIMTFAC
 40
1.0
  9
$DIMTP
 40
0.01
  9
$DIMTM
 40
0.01
  9
$DIMGAP
 40
0.625
  9
$DIMDSEP
 70
44
  9
$AUNITS
 70
0
  9
$PDMODE
 70
3
  9
$PDSIZE
 40
2.5
  9
$HANDSEED
  5
52F
  9
$TILEMODE
 70
1
  9
$MEASUREMENT
 70
1
  9
$INSUNITS
 70
4
  0
ENDSEC
  0
SECTION
  2
CLASSES
  0
CLASS
  1
ACDBDICTIONARYWDFLT
  2
AcDbDictionaryWithDefault
  3
AutoCAD 2000
 90
0
 91
1
280
0
281
0
  0
CLASS
  1
ACDBPLACEHOLDER
  2
AcDbPlaceHolder
  3
AutoCAD 2000
 90
0
 91
1
280
0
281
0
  0
CLASS
  1
LAYOUT
  2
AcDbLayout
  3
AutoCAD 2000
 90
0
 91
0
280
0
281
0
  0
CLASS
  1
TABLESTYLE
  2
AcDbTableStyle
  3
ObjectDBX Classes
 90
2047
 91
1
280
0
281
0
  0
CLASS
  1
ACAD_TABLE
  2
AcDbTable
  3
ObjectDBX Classes
 90
1025
 91
3
280
0
281
1
  0
ENDSEC
  0
SECTION
  2
TABLES
  0
TABLE
  2
VPORT
  5
8
100
AcDbSymbolTable
 70
2
  0
VPORT
  5
1F4
100
AcDbSymbolTableRecord
100
AcDbViewportTableRecord
  2
*ACTIVE
 70
0
 10
0.0
 20
0.0
 11
1.0
 21
1.0
 12
210.0
 22
148.5
 13
0.0
 23
0.0
 14
1.0
 24
1.0
 15
0.0
 25
0.0
 16
0.0
 26
0.0
 36
1.0
 17
0.0
 27
0.0
 37
0.0
 40
297.0
 41
1.4141414141
 42
50.0
 43
0.0
 44
0.0
 50
0.0
 51
0.0
 71
0
 72
100
 73
1
 74
1
 75
0
 76
0
 77
0
 78
0
  0
ENDTAB
  0
TABLE
  2
LTYPE
  5
5
100
AcDbSymbolTable
 70
6
  0
LTYPE
  5
14
100
AcDbSymbolTableRecord
100
AcDbLinetypeTableRecord
  2
BYBLOCK
 70
0
  3

 72
65
 73
0
 40
0.0
  0
LTYPE
  5
15
100
AcDbSymbolTableRecord
100
AcDbLinetypeTableRecord
  2
BYLAYER
 70
0
  3

 72
65
 73
0
 40
0.0
  0
LTYPE
  5
16
100
AcDbSymbolTableRecord
100
AcDbLinetypeTableRecord
  2
CONTINUOUS
 70
64
  3
Solid line
 72
65
 73
0
 40
0.0
  0
LTYPE
  5
1F5
100
AcDbSymbolTableRecord
100
AcDbLinetypeTableRecord
  2
CENTER
 70
64
  3
____ _ ____ _ ____ _ ____ _ ____ _ ____ _ ____
 72
65
 73
4
 40
0.6
 49
0.375
 74
0
 49
-0.075
 74
0
 49
0.075
 74
0
 49
-0.075
 74
0
  0
LTYPE
  5
1F6
100
AcDbSymbolTableRecord
100
AcDbLinetypeTableRecord
  2
HIDDEN
 70
64
  3
- - - - - - - - - - - - - - - - - - - -
 72
65
 73
2
 40
0.2
 49
0.1
 74
0
 49
-0.1
 74
0
  0
LTYPE
  5
1F7
100
AcDbSymbolTableRecord
100
AcDbLinetypeTableRecord
  2
PHANTOM
 70
64
  3
_____ _ _ _____ _ _ _____ _ _ _____
 72
65
 73
6
 40
0.8
 49
0.45
 74
0
 49
-0.05
 74
0
 49
0.1
 74
0
 49
-0.05
 74
0
 49
0.1
 74
0
 49
-0.05
 74
0
  0
LTYPE
  5
1F8
100
AcDbSymbolTableRecord
100
AcDbLinetypeTableRecord
  2
DOT
 70
64
  3
. . . . . . . . . . . . . . . . . . . .
 72
65
 73
2
 40
0.2
 49
0.1
 74
0
 49
-0.1
 74
0
  0
LTYPE
  5
1F9
100
AcDbSymbolTableRecord
100
AcDbLinetypeTableRecord
  2
DASHED
 70
64
  3
- - - - - - - - - - - - - - - - - - - -
 72
65
 73
2
 40
0.2
 49
0.1
 74
0
 49
-0.1
 74
0
  0
ENDTAB
  0
TABLE
  2
LAYER
  5
2
100
AcDbSymbolTable
 70
36
  0
LAYER
  5
10
100
AcDbSymbolTableRecord
100
AcDbLayerTableRecord
  2
0
 70
0
 62
7
  6
CONTINUOUS
370
-3
390
F
  0
LAYER
  5
1FA
100
AcDbSymbolTableRecord
100
AcDbLayerTableRecord
  2
DEFAULT_1
 70
0
 62
7
  6
CENTER
370
-3
390
F
  0
LAYER
  5
1FB
100
AcDbSymbolTableRecord
100
AcDbLayerTableRecord
  2
DEFAULT_2
 70
0
 62
8
  6
HIDDEN
370
-3
390
F
  0
LAYER
  5
1FC
100
AcDbSymbolTableRecord
100
AcDbLayerTableRecord
  2
DEFAULT_3
 70
0
 62
7
  6
PHANTOM
370
-3
390
F
  0
LAYER
  5
1FD
100
AcDbSymbolTableRecord
100
AcDbLayerTableRecord
  2
01_START_DATUMS
 70
0
 62
7
  6
CONTINUOUS
370
-3
390
F
  0
LAYER
  5
1FE
100
AcDbSymbolTableRecord
100
AcDbLayerTableRecord
  2
02_COORD_SYS
 70
0
 62
7
  6
CONTINUOUS
370
-3
390
F
  0
LAYER
  5
1FF
100
AcDbSymbolTableRecord
100
AcDbLayerTableRecord
  2
03_DATUM_PLANES
 70
0
 62
7
  6
CONTINUOUS
370
-3
390
F
  0
LAYER
  5
200
100
AcDbSymbolTableRecord
100
AcDbLayerTableRecord
  2
04_AXES
 70
0
 62
7
  6
CONTINUOUS
370
-3
390
F
  0
LAYER
  5
201
100
AcDbSymbolTableRecord
100
AcDbLayerTableRecord
  2
05_POINTS
 70
0
 62
7
  6
CONTINUOUS
370
-3
390
F
  0
LAYER
  5
202
100
AcDbSymbolTableRecord
100
AcDbLayerTableRecord
  2
10_EXTERNAL_GEOM
 70
0
 62
7
  6
CONTINUOUS
370
-3
390
F
  0
LAYER
  5
203
100
AcDbSymbolTableRecord
100
AcDbLayerTableRecord
  2
11_SURFACES
 70
0
 62
7
  6
CONTINUOUS
370
-3
390
F
  0
LAYER
  5
204
100
AcDbSymbolTableRecord
100
AcDbLayerTableRecord
  2
12_CURVES
 70
0
 62
7
  6
CONTINUOUS
370
-3
390
F
  0
LAYER
  5
205
100
AcDbSymbolTableRecord
100
AcDbLayerTableRecord
  2
13_COSMETICS
 70
0
 62
7
  6
CONTINUOUS
370
-3
390
F
  0
LAYER
  5
206
100
AcDbSymbolTableRecord
100
AcDbLayerTableRecord
  2
14_THREAD
 70
0
 62
7
  6
CONTINUOUS
370
-3
390
F
  0
LAYER
  5
207
100
AcDbSymbolTableRecord
100
AcDbLayerTableRecord
  2
30_WELDED_SEAMS
 70
0
 62
7
  6
CONTINUOUS
370
-3
390
F
  0
LAYER
  5
208
100
AcDbSymbolTableRecord
100
AcDbLayerTableRecord
  2
98_EPS_DATUMS
 70
0
 62
7
  6
CONTINUOUS
370
-3
390
F
  0
LAYER
  5
209
100
AcDbSymbolTableRecord
100
AcDbLayerTableRecord
  2
99_AUX_DATUMS
 70
0
 62
7
  6
CONTINUOUS
370
-3
390
F
  0
ENDTAB
  0
TABLE
  2
STYLE
  5
3
100
AcDbSymbolTable
 70
1
  0
STYLE
  5
11
100
AcDbSymbolTableRecord
100
AcDbTextStyleTableRecord
  2
STANDARD
 70
0
 40
0.0
 41
1.0
 50
0.0
 71
0
 42
0.2
  3
isonormlt-regular.ttf
  4

1001
ACAD
1000
Isonorm LT Regular
1071
34
  0
STYLE
  5
20A
100
AcDbSymbolTableRecord
100
AcDbTextStyleTableRecord
  2
TEXTSTYLE_1
 70
0
 40
0.0
 41
0.8
 50
0.0
 71
0
 42
0.2
  3
gdt
  4

  0
STYLE
  5
20B
100
AcDbSymbolTableRecord
100
AcDbTextStyleTableRecord
  2
TEXTSTYLE_2
 70
0
 40
0.0
 41
0.8
 50
0.0
 71
0
 42
0.2
  3
txt
  4

  0
STYLE
  5
20C
100
AcDbSymbolTableRecord
100
AcDbTextStyleTableRecord
  2
TEXTSTYLE_3
 70
0
 40
0.0
 41
1.0
 50
0.0
 71
0
 42
0.2
  3
trium.ttf
  4

1001
ACAD
1000
CG Triumvirate
1071
34
  0
STYLE
  5
20D
100
AcDbSymbolTableRecord
100
AcDbTextStyleTableRecord
  2
TEXTSTYLE_4
 70
0
 40
0.0
 41
1.0
 50
0.0
 71
0
 42
0.2
  3
trium.ttf
  4

1001
ACAD
1000
CG Triumvirate
1071
34
  0
STYLE
  5
20E
100
AcDbSymbolTableRecord
100
AcDbTextStyleTableRecord
  2
TEXTSTYLE_5
 70
0
 40
0.0
 41
1.0
 50
0.0
 71
0
 42
0.2
  3
trium.ttf
  4

1001
ACAD
1000
CG Triumvirate
1071
34
  0
STYLE
  5
20F
100
AcDbSymbolTableRecord
100
AcDbTextStyleTableRecord
  2
TEXTSTYLE_6
 70
0
 40
0.0
 41
1.0
 50
0.0
 71
0
 42
0.2
  3
trium.ttf
  4

1001
ACAD
1000
CG Triumvirate
1071
34
  0
ENDTAB
  0
TABLE
  2
VIEW
  5
6
100
AcDbSymbolTable
 70
0
  0
ENDTAB
  0
TABLE
  2
UCS
  5
7
100
AcDbSymbolTable
 70
0
  0
ENDTAB
  0
TABLE
  2
APPID
  5
9
100
AcDbSymbolTable
 70
1
  0
APPID
  5
210
100
AcDbSymbolTableRecord
100
AcDbRegAppTableRecord
  2
ACAD
 70
0
  0
ENDTAB
  0
TABLE
  2
BLOCK_RECORD
  5
1
100
AcDbSymbolTable
 70
0
  0
BLOCK_RECORD
  5
211
100
AcDbSymbolTableRecord
100
AcDbBlockTableRecord
  2
*Model_Space
  0
BLOCK_RECORD
  5
212
100
AcDbSymbolTableRecord
100
AcDbBlockTableRecord
  2
*Paper_Space
  0
BLOCK_RECORD
  5
213
100
AcDbSymbolTableRecord
100
AcDbBlockTableRecord
  2
_FILLED
  0
BLOCK_RECORD
  5
214
100
AcDbSymbolTableRecord
100
AcDbBlockTableRecord
  2
*D0
  0
BLOCK_RECORD
  5
215
100
AcDbSymbolTableRecord
100
AcDbBlockTableRecord
  2
*D1
  0
BLOCK_RECORD
  5
216
100
AcDbSymbolTableRecord
100
AcDbBlockTableRecord
  2
*D2
  0
BLOCK_RECORD
  5
217
100
AcDbSymbolTableRecord
100
AcDbBlockTableRecord
  2
UEBERSICHT_EMT_BL4
  0
BLOCK_RECORD
  5
218
100
AcDbSymbolTableRecord
100
AcDbBlockTableRecord
  2
UEBERSICHT_EMT_BL3
  0
BLOCK_RECORD
  5
219
100
AcDbSymbolTableRecord
100
AcDbBlockTableRecord
  2
UEBERSICHT_EMT_BL2
  0
BLOCK_RECORD
  5
21A
100
AcDbSymbolTableRecord
100
AcDbBlockTableRecord
  2
CARTOUCHE_BL1
  0
BLOCK_RECORD
  5
21B
100
AcDbSymbolTableRecord
100
AcDbBlockTableRecord
  2
A3_ISO_5457_MARGIN_BL0
  0
BLOCK_RECORD
  5
21C
100
AcDbSymbolTableRecord
100
AcDbBlockTableRecord
  2
*T1
  0
BLOCK_RECORD
  5
21D
100
AcDbSymbolTableRecord
100
AcDbBlockTableRecord
  2
*T2
  0
BLOCK_RECORD
  5
21E
100
AcDbSymbolTableRecord
100
AcDbBlockTableRecord
  2
*T3
  0
ENDTAB
  0
TABLE
  2
DIMSTYLE
  5
A
100
AcDbSymbolTable
 70
1
100
AcDbDimStyleTable
 71
0
  0
DIMSTYLE
105
21F
100
AcDbSymbolTableRecord
100
AcDbDimStyleTableRecord
  2
STANDARD
 70
0
  3

  4

 40
1.0
 41
3.5
 42
0.0
 43
0.38
 44
1.5
 45
0.0
 46
0.0
 47
0.01
 48
0.01
140
3.5
141
0.09
142
0.0
143
25.4
144
1.0
145
0.0
146
1.0
147
0.625
 71
1
 72
0
 73
0
 74
0
 75
0
 76
0
 77
1
 78
8
 79
2
170
0
171
1
172
0
173
0
174
0
175
0
176
0
177
0
178
5
270
2
179
2
271
2
272
2
273
2
274
2
275
0
280
0
281
0
282
0
283
1
284
8
285
0
286
0
287
3
288
0
340
11
278
44
341
213
342
213
343
213
344
213
  0
DIMSTYLE
105
220
100
AcDbSymbolTableRecord
100
AcDbDimStyleTableRecord
  2
DIMSTYLE_1
 70
0
  3

  4

 40
1.0
 41
3.5
 42
0.0
 43
0.38
 44
1.5
 45
0.0
 46
0.0
 47
0.8
 48
0.8
140
3.5
141
0.09
142
0.0
143
25.4
144
5.0
145
0.0
146
1.0
147
0.875
 71
0
 72
0
 73
0
 74
0
 75
0
 76
0
 77
1
 78
8
 79
2
170
0
171
1
172
0
173
0
174
0
175
0
176
0
177
0
178
5
270
2
179
2
271
2
272
2
273
2
274
2
275
0
280
0
281
0
282
0
283
1
284
8
285
0
286
0
287
3
288
0
340
11
278
44
341
213
342
213
343
213
344
213
  0
DIMSTYLE
105
221
100
AcDbSymbolTableRecord
100
AcDbDimStyleTableRecord
  2
DIMSTYLE_2
 70
0
  3

  4

 40
1.0
 41
3.5
 42
0.0
 43
0.38
 44
1.5
 45
0.0
 46
0.0
 47
0.1
 48
0.1
140
3.5
141
0.09
142
0.0
143
25.4
144
5.0
145
0.0
146
1.0
147
0.875
 71
0
 72
0
 73
0
 74
0
 75
0
 76
0
 77
1
 78
8
 79
2
170
0
171
1
172
0
173
0
174
0
175
0
176
0
177
0
178
5
270
2
179
2
271
2
272
2
273
2
274
2
275
0
280
0
281
0
282
0
283
1
284
8
285
0
286
0
287
3
288
0
340
11
278
44
341
213
342
213
343
213
344
213
  0
DIMSTYLE
105
222
100
AcDbSymbolTableRecord
100
AcDbDimStyleTableRecord
  2
DIMSTYLE_3
 70
0
  3

  4

 40
1.0
 41
3.5
 42
0.0
 43
0.38
 44
1.5
 45
0.0
 46
0.0
 47
0.5
 48
0.5
140
3.5
141
0.09
142
0.0
143
25.4
144
5.0
145
0.0
146
1.0
147
0.875
 71
0
 72
0
 73
0
 74
0
 75
0
 76
0
 77
1
 78
8
 79
2
170
0
171
1
172
0
173
0
174
0
175
0
176
0
177
0
178
5
270
2
179
2
271
2
272
2
273
2
274
2
275
0
280
0
281
0
282
0
283
1
284
8
285
0
286
0
287
3
288
0
340
11
278
44
341
213
342
213
343
213
344
213
  0
ENDTAB
  0
ENDSEC
  0
SECTION
  2
BLOCKS
  0
BLOCK
  5
20
100
AcDbEntity
  8
0
100
AcDbBlockBegin
  2
*Model_Space
 70
0
 10
0.0
 20
0.0
 30
0.0
  3
*Model_Space
  1

  0
ENDBLK
  5
21
100
AcDbEntity
  8
0
100
AcDbBlockEnd
  0
BLOCK
  5
1C
100
AcDbEntity
  8
0
100
AcDbBlockBegin
  2
*Paper_Space
 70
0
 10
0.0
 20
0.0
 30
0.0
  3
*Paper_Space
  1

  0
ENDBLK
  5
1D
100
AcDbEntity
  8
0
100
AcDbBlockEnd
  0
BLOCK
  5
223
100
AcDbEntity
  8
0
100
AcDbBlockBegin
 62
2
  6
CONTINUOUS
  2
UEBERSICHT_EMT_BL4
 70
64
 10
266.5987150341
 20
243.7954400122
 30
0.0
  3
UEBERSICHT_EMT_BL4
  1

  0
LINE
  5
224
100
AcDbEntity
  8
0
100
AcDbLine
 62
2
  6
CONTINUOUS
 10
268.0420907071
 20
248.7954400122
 30
0.0
 11
270.928842053
 21
243.7954400122
 31
0.0
  0
LINE
  5
225
100
AcDbEntity
  8
0
100
AcDbLine
 62
2
  6
CONTINUOUS
 10
268.0420907071
 20
248.7954400122
 30
0.0
 11
262.2685880152
 21
238.7954400122
 31
0.0
  0
CIRCLE
  5
226
100
AcDbEntity
  8
0
100
AcDbCircle
 62
2
  6
CONTINUOUS
 10
268.0420907071
 20
245.4621066788
 30
0.0
 40
1.6666666667
  0
ENDBLK
  5
227
100
AcDbEntity
  8
0
  6
BYBLOCK
 62
0
100
AcDbBlockEnd
  0
BLOCK
  5
228
100
AcDbEntity
  8
0
100
AcDbBlockBegin
 62
2
  6
CONTINUOUS
  2
UEBERSICHT_EMT_BL3
 70
64
 10
269.6303001418
 20
254.9954400122
 30
0.0
  3
UEBERSICHT_EMT_BL3
  1

  0
LINE
  5
229
100
AcDbEntity
  8
0
100
AcDbLine
 62
2
  6
CONTINUOUS
 10
268.1869244688
 20
249.9954400122
 30
0.0
 11
265.3001731229
 21
254.9954400122
 31
0.0
  0
LINE
  5
22A
100
AcDbEntity
  8
0
100
AcDbLine
 62
2
  6
CONTINUOUS
 10
268.1869244688
 20
249.9954400122
 30
0.0
 11
273.9604271607
 21
259.9954400122
 31
0.0
  0
CIRCLE
  5
22B
100
AcDbEntity
  8
0
100
AcDbCircle
 62
2
  6
CONTINUOUS
 10
268.1869244688
 20
253.3287733455
 30
0.0
 40
1.6666666667
  0
ENDBLK
  5
22C
100
AcDbEntity
  8
0
  6
BYBLOCK
 62
0
100
AcDbBlockEnd
  0
BLOCK
  5
22D
100
AcDbEntity
  8
0
100
AcDbBlockBegin
 62
2
  6
CONTINUOUS
  2
UEBERSICHT_EMT_BL2
 70
64
 10
371.11795842
 20
94.4124091324
 30
0.0
  3
UEBERSICHT_EMT_BL2
  1

  0
LINE
  5
22E
100
AcDbEntity
  8
0
100
AcDbLine
 62
2
  6
CONTINUOUS
 10
352.561334093
 20
89.1457424657
 30
0.0
 11
349.674582747
 21
94.1457424657
 31
0.0
  0
LINE
  5
22F
100
AcDbEntity
  8
0
100
AcDbLine
 62
2
  6
CONTINUOUS
 10
352.561334093
 20
89.1457424657
 30
0.0
 11
358.3348367849
 21
99.1457424657
 31
0.0
  0
LINE
  5
230
100
AcDbEntity
  8
0
100
AcDbLine
 62
2
  6
CONTINUOUS
 10
377.8348367849
 20
89.1457424657
 30
0.0
 11
374.9480854389
 21
94.1457424657
 31
0.0
  0
LINE
  5
231
100
AcDbEntity
  8
0
100
AcDbLine
 62
2
  6
CONTINUOUS
 10
377.8348367849
 20
89.1457424657
 30
0.0
 11
383.6083394768
 21
99.1457424657
 31
0.0
  0
CIRCLE
  5
232
100
AcDbEntity
  8
0
100
AcDbCircle
 62
2
  6
CONTINUOUS
 10
377.8348367849
 20
92.4790757991
 30
0.0
 40
1.6666666667
  0
LINE
  5
233
100
AcDbEntity
  8
0
100
AcDbLine
 62
2
  6
CONTINUOUS
 10
349.674582747
 20
94.1457424657
 30
0.0
 11
355.4480854389
 21
94.1457424657
 31
0.0
  0
ARC
  5
234
100
AcDbEntity
  8
0
100
AcDbCircle
 62
2
  6
CONTINUOUS
 10
382.7814187722
 20
94.1457424657
 30
0.0
 40
9.1666666667
100
AcDbArc
 50
143.1301023542
 51
216.8698976458
  0
ARC
  5
235
100
AcDbEntity
  8
0
100
AcDbCircle
 62
2
  6
CONTINUOUS
 10
381.7750061434
 20
94.1457424657
 30
0.0
 40
9.1666666667
100
AcDbArc
 50
323.1301023542
 51
36.8698976458
  0
TEXT
  5
236
100
AcDbEntity
  8
0
100
AcDbText
 62
5
  6
CONTINUOUS
 10
359.961334093
 20
100.3457424657
 30
0.0
  7
STANDARD
 40
3.5
  1
ISO 9013-332
 41
1.0
 72
0
100
AcDbText
  0
LINE
  5
237
100
AcDbEntity
  8
0
100
AcDbLine
 62
2
  6
CONTINUOUS
 10
358.3348367849
 20
99.1457424657
 30
0.0
 11
392.561334093
 21
99.1457424657
 31
0.0
  0
LINE
  5
238
100
AcDbEntity
  8
0
100
AcDbLine
 62
2
  6
CONTINUOUS
 10
358.3348367849
 20
99.1457424657
 30
0.0
 11
370.8348367849
 21
99.1457424657
 31
0.0
  0
ENDBLK
  5
239
100
AcDbEntity
  8
0
  6
BYBLOCK
 62
0
100
AcDbBlockEnd
  0
BLOCK
  5
23A
100
AcDbEntity
  8
0
100
AcDbBlockBegin
 62
2
  6
CONTINUOUS
  2
CARTOUCHE_BL1
 70
64
 10
231.0
 20
65.5
 30
0.0
  3
CARTOUCHE_BL1
  1

  0
LINE
  5
23B
100
AcDbEntity
  8
0
100
AcDbLine
 62
2
  6
CONTINUOUS
 10
398.2396929692
 20
22.1976657675
 30
0.0
 11
401.2396929692
 21
27.6976657675
 31
0.0
  0
LINE
  5
23C
100
AcDbEntity
  8
0
100
AcDbLine
 62
3
  6
CONTINUOUS
 10
410.0
 20
10.0
 30
0.0
 11
230.0
 21
10.0
 31
0.0
  0
LINE
  5
23D
100
AcDbEntity
  8
0
100
AcDbLine
 62
2
  6
CONTINUOUS
 10
327.5
 20
34.0
 30
0.0
 11
410.0
 21
34.0
 31
0.0
  0
LINE
  5
23E
100
AcDbEntity
  8
0
100
AcDbLine
 62
2
  6
CONTINUOUS
 10
305.5
 20
40.0
 30
0.0
 11
305.5
 21
57.0
 31
0.0
  0
LINE
  5
23F
100
AcDbEntity
  8
0
100
AcDbLine
 62
2
  6
CONTINUOUS
 10
280.5
 20
40.0
 30
0.0
 11
280.5
 21
57.0
 31
0.0
  0
LINE
  5
240
100
AcDbEntity
  8
0
100
AcDbLine
 62
2
  6
CONTINUOUS
 10
230.0
 20
40.0
 30
0.0
 11
327.5
 21
40.0
 31
0.0
  0
LINE
  5
241
100
AcDbEntity
  8
0
100
AcDbLine
 62
2
  6
CONTINUOUS
 10
327.5
 20
78.9166666667
 30
0.0
 11
292.5
 21
78.9166666667
 31
0.0
  0
LINE
  5
242
100
AcDbEntity
  8
0
100
AcDbLine
 62
2
  6
CONTINUOUS
 10
230.0
 20
84.5833333333
 30
0.0
 11
292.5
 21
84.5833333333
 31
0.0
  0
LINE
  5
243
100
AcDbEntity
  8
0
100
AcDbLine
 62
2
  6
CONTINUOUS
 10
230.0
 20
90.25
 30
0.0
 11
327.5
 21
90.25
 31
0.0
  0
LINE
  5
244
100
AcDbEntity
  8
0
100
AcDbLine
 62
2
  6
CONTINUOUS
 10
230.0
 20
57.0
 30
0.0
 11
327.5
 21
57.0
 31
0.0
  0
LINE
  5
245
100
AcDbEntity
  8
0
100
AcDbLine
 62
2
  6
CONTINUOUS
 10
327.5
 20
20.0
 30
0.0
 11
327.5
 21
48.0
 31
0.0
  0
TEXT
  5
246
100
AcDbEntity
  8
0
100
AcDbText
 62
5
  6
CONTINUOUS
 10
328.4372586751
 20
107.7537466098
 30
0.0
  7
TEXTSTYLE_3
 40
1.42
  1
Oberflächenbeschaffenheit / Surface texture / Etat de surface
 41
1.0
 72
0
100
AcDbText
  0
TEXT
  5
247
100
AcDbEntity
  8
0
100
AcDbText
 62
5
  6
CONTINUOUS
 10
312.5763560438
 20
54.6943160189
 30
0.0
  7
TEXTSTYLE_3
 40
1.42
  1
Maßstab
 41
1.0
 72
0
100
AcDbText
  0
TEXT
  5
248
100
AcDbEntity
  8
0
100
AcDbText
 62
5
  6
CONTINUOUS
 10
309.7021708586
 20
52.4933160189
 30
0.0
  7
TEXTSTYLE_3
 40
1.42
  1
Scale / Echelle
 41
1.0
 72
0
100
AcDbText
  0
TEXT
  5
249
100
AcDbEntity
  8
0
100
AcDbText
 62
5
  6
CONTINUOUS
 10
230.8113838111
 20
37.6878325098
 30
0.0
  7
TEXTSTYLE_3
 40
1.42
  1
Beschreibung / Description / Dénomination
 41
1.0
 72
0
100
AcDbText
  0
TEXT
  5
24A
100
AcDbEntity
  8
0
100
AcDbText
 62
5
  6
CONTINUOUS
 10
328.3351739823
 20
81.6623440741
 30
0.0
  7
TEXTSTYLE_3
 40
1.42
  1
Werkstoff / Material / Matière
 41
1.0
 72
0
100
AcDbText
  0
TEXT
  5
24B
100
AcDbEntity
  8
0
100
AcDbText
 62
5
  6
CONTINUOUS
 10
328.3253620387
 20
49.6896676181
 30
0.0
  7
TEXTSTYLE_3
 40
1.42
  1
Zeichnungs Nr. / Drawing No. / No de dessin
 41
1.0
 72
0
100
AcDbText
  0
TEXT
  5
24C
100
AcDbEntity
  8
0
100
AcDbText
 62
5
  6
CONTINUOUS
 10
328.297578122
 20
31.6853497486
 30
0.0
  7
TEXTSTYLE_3
 40
1.42
  1
Ident Nr. / Ident No. / No d'ident
 41
1.0
 72
0
100
AcDbText
  0
TEXT
  5
24D
100
AcDbEntity
  8
0
100
AcDbText
 62
5
  6
CONTINUOUS
 10
391.0702941913
 20
31.6869965536
 30
0.0
  7
TEXTSTYLE_3
 40
1.42
  1
Blatt / Page / Feuille
 41
1.0
 72
0
100
AcDbText
  0
TEXT
  5
24E
100
AcDbEntity
  8
0
100
AcDbText
 62
5
  6
CONTINUOUS
 10
277.2103437571
 20
94.5650263625
 30
0.0
  7
TEXTSTYLE_3
 40
1.42
  1
Datum
 41
1.0
 72
0
100
AcDbText
  0
TEXT
  5
24F
100
AcDbEntity
  8
0
100
AcDbText
 62
5
  6
CONTINUOUS
 10
275.0987511645
 20
92.3640263625
 30
0.0
  7
TEXTSTYLE_3
 40
1.42
  1
Date / Date
 41
1.0
 72
0
100
AcDbText
  0
TEXT
  5
250
100
AcDbEntity
  8
0
100
AcDbText
 62
5
  6
CONTINUOUS
 10
307.3605382506
 20
94.5587361191
 30
0.0
  7
TEXTSTYLE_3
 40
1.42
  1
Name
 41
1.0
 72
0
100
AcDbText
  0
TEXT
  5
251
100
AcDbEntity
  8
0
100
AcDbText
 62
5
  6
CONTINUOUS
 10
304.375908621
 20
92.3577361191
 30
0.0
  7
TEXTSTYLE_3
 40
1.42
  1
Name / Nom
 41
1.0
 72
0
100
AcDbText
  0
TEXT
  5
252
100
AcDbEntity
  8
0
100
AcDbText
 62
5
  6
CONTINUOUS
 10
232.6372045144
 20
46.0564974717
 30
0.0
  7
TEXTSTYLE_3
 40
1.42
  1
WERK
 41
1.0
 72
0
100
AcDbText
  0
TEXT
  5
253
100
AcDbEntity
  8
0
100
AcDbText
 62
5
  6
CONTINUOUS
 10
232.6372045144
 20
43.8554974717
 30
0.0
  7
TEXTSTYLE_3
 40
1.42
  1
FACTORY
 41
1.0
 72
0
100
AcDbText
  0
TEXT
  5
254
100
AcDbEntity
  8
0
100
AcDbText
 62
5
  6
CONTINUOUS
 10
232.6372045144
 20
41.6544974717
 30
0.0
  7
TEXTSTYLE_3
 40
1.42
  1
USINE
 41
1.0
 72
0
100
AcDbText
  0
TEXT
  5
255
100
AcDbEntity
  8
0
100
AcDbText
 62
5
  6
CONTINUOUS
 10
230.7993429252
 20
95.8043585899
 30
0.0
  7
TEXTSTYLE_3
 40
1.42
  1
Projektion 
 41
1.0
 72
0
100
AcDbText
  0
TEXT
  5
256
100
AcDbEntity
  8
0
100
AcDbText
 62
5
  6
CONTINUOUS
 10
230.7993429252
 20
93.6033585899
 30
0.0
  7
TEXTSTYLE_3
 40
1.42
  1
Projection   1
 41
1.0
 72
0
100
AcDbText
  0
TEXT
  5
257
100
AcDbEntity
  8
0
100
AcDbText
 62
5
  6
CONTINUOUS
 10
230.7993429252
 20
91.4023585899
 30
0.0
  7
TEXTSTYLE_3
 40
1.42
  1
Projection
 41
1.0
 72
0
100
AcDbText
  0
TEXT
  5
258
100
AcDbEntity
  8
0
100
AcDbText
 62
5
  6
CONTINUOUS
 10
230.7800724842
 20
86.7206492044
 30
0.0
  7
TEXTSTYLE_3
 40
1.42
  1
Gezeichnet / Drawn / Dessiné
 41
1.0
 72
0
100
AcDbText
  0
TEXT
  5
259
100
AcDbEntity
  8
0
100
AcDbText
 62
5
  6
CONTINUOUS
 10
230.8559342962
 20
82.1836935453
 30
0.0
  7
TEXTSTYLE_3
 40
1.42
  1
Technische Referenz / Technical 
 41
1.0
 72
0
100
AcDbText
  0
TEXT
  5
25A
100
AcDbEntity
  8
0
100
AcDbText
 62
5
  6
CONTINUOUS
 10
230.8559342962
 20
79.9826935453
 30
0.0
  7
TEXTSTYLE_3
 40
1.42
  1
Reference / Référence technique
 41
1.0
 72
0
100
AcDbText
  0
TEXT
  5
25B
100
AcDbEntity
  8
0
100
AcDbText
 62
5
  6
CONTINUOUS
 10
328.3127955124
 20
65.6871893347
 30
0.0
  7
TEXTSTYLE_3
 40
1.42
  1
Typ, Grösse / Type, Size / Type,Taille
 41
1.0
 72
0
100
AcDbText
  0
TEXT
  5
25C
100
AcDbEntity
  8
0
100
AcDbText
 62
5
  6
CONTINUOUS
 10
392.1803110148
 20
49.6301471904
 30
0.0
  7
TEXTSTYLE_3
 40
1.42
  1
Zeichnungsindex
 41
1.0
 72
0
100
AcDbText
  0
TEXT
  5
25D
100
AcDbEntity
  8
0
100
AcDbText
 62
5
  6
CONTINUOUS
 10
393.4136073111
 20
47.4291471904
 30
0.0
  7
TEXTSTYLE_3
 40
1.42
  1
Drawing index
 41
1.0
 72
0
100
AcDbText
  0
TEXT
  5
25E
100
AcDbEntity
  8
0
100
AcDbText
 62
5
  6
CONTINUOUS
 10
392.740422126
 20
45.2281471904
 30
0.0
  7
TEXTSTYLE_3
 40
1.42
  1
Index du dessin
 41
1.0
 72
0
100
AcDbText
  0
TEXT
  5
25F
100
AcDbEntity
  8
0
100
AcDbText
 62
5
  6
CONTINUOUS
 10
269.2850120584
 20
118.6817590853
 30
0.0
  7
TEXTSTYLE_3
 40
1.42
  1
CAD Masse
 41
1.0
 72
0
100
AcDbText
  0
TEXT
  5
260
100
AcDbEntity
  8
0
100
AcDbText
 62
5
  6
CONTINUOUS
 10
269.2850120584
 20
116.4807590853
 30
0.0
  7
TEXTSTYLE_3
 40
1.42
  1
CAD mass          (Kg)
 41
1.0
 72
0
100
AcDbText
  0
TEXT
  5
261
100
AcDbEntity
  8
0
100
AcDbText
 62
5
  6
CONTINUOUS
 10
269.2850120584
 20
114.2797590853
 30
0.0
  7
TEXTSTYLE_3
 40
1.42
  1
Masse CAO
 41
1.0
 72
0
100
AcDbText
  0
TEXT
  5
262
100
AcDbEntity
  8
0
100
AcDbText
 62
5
  6
CONTINUOUS
 10
293.3031568023
 20
118.6809567884
 30
0.0
  7
TEXTSTYLE_3
 40
1.42
  1
Modell oder Gesenk Nr.
 41
1.0
 72
0
100
AcDbText
  0
TEXT
  5
263
100
AcDbEntity
  8
0
100
AcDbText
 62
5
  6
CONTINUOUS
 10
293.3031568023
 20
116.4799567884
 30
0.0
  7
TEXTSTYLE_3
 40
1.42
  1
Pattern or die No.
 41
1.0
 72
0
100
AcDbText
  0
TEXT
  5
264
100
AcDbEntity
  8
0
100
AcDbText
 62
5
  6
CONTINUOUS
 10
293.3031568023
 20
114.2789567884
 30
0.0
  7
TEXTSTYLE_3
 40
1.42
  1
Modèle ou matrice No.
 41
1.0
 72
0
100
AcDbText
  0
TEXT
  5
265
100
AcDbEntity
  8
0
100
AcDbText
 62
5
  6
CONTINUOUS
 10
53.7622926159
 20
22.1360011279
 30
0.0
  7
TEXTSTYLE_3
 40
1.42
  1
ISO 16016: Weitergabe sowie Vervielfältigung dieses Dokumentes, Verwertung und Mitteilung seines Inhalts sind verboten, soweit nicht ausdruecklich gestattet.
 41
1.0
 72
0
100
AcDbText
  0
TEXT
  5
266
100
AcDbEntity
  8
0
100
AcDbText
 62
5
  6
CONTINUOUS
 10
53.7622926159
 20
19.9350011279
 30
0.0
  7
TEXTSTYLE_3
 40
1.42
  1
Zuwiderhandlungen verpflichten zum Schadenersatz. Alle Rechte für den Fall der Patent- , Gebrauchsmuster- oder Geschmacksmusterprüfung vorbehalten.
 41
1.0
 72
0
100
AcDbText
  0
TEXT
  5
267
100
AcDbEntity
  8
0
100
AcDbText
 62
5
  6
CONTINUOUS
 10
53.7622926159
 20
17.7340011279
 30
0.0
  7
TEXTSTYLE_3
 40
1.42
  1
ISO 16016: The reproduction, distribution and utilization of this document as well as the communication of its contents to others without express authorization is prohibited.
 41
1.0
 72
0
100
AcDbText
  0
TEXT
  5
268
100
AcDbEntity
  8
0
100
AcDbText
 62
5
  6
CONTINUOUS
 10
53.7622926159
 20
15.5330011279
 30
0.0
  7
TEXTSTYLE_3
 40
1.42
  1
Offenders will be held liable for the payment of damages. All rights reserved in the event of the grant of a patent, utility model or design.
 41
1.0
 72
0
100
AcDbText
  0
TEXT
  5
269
100
AcDbEntity
  8
0
100
AcDbText
 62
5
  6
CONTINUOUS
 10
53.7622926159
 20
13.3320011279
 30
0.0
  7
TEXTSTYLE_3
 40
1.42
  1
ISO 16016 : Toute communication ou reproduction de ce document, toute exploitation ou communication de son contenu sont interdites, sauf autorisation expresse. Tout manquement à cette règle 
 41
1.0
 72
0
100
AcDbText
  0
TEXT
  5
26A
100
AcDbEntity
  8
0
100
AcDbText
 62
5
  6
CONTINUOUS
 10
53.7622926159
 20
11.1310011279
 30
0.0
  7
TEXTSTYLE_3
 40
1.42
  1
est illicite et expose son auteur au versement de dommages et intérêts. Tous droits réservés pour le cas de la délivrance d'un brevet, d'un modèle d'utilité ou d'un modèle de présentation.
 41
1.0
 72
0
100
AcDbText
  0
TEXT
  5
26B
100
AcDbEntity
  8
0
100
AcDbText
 62
5
  6
CONTINUOUS
 10
240.1684661747
 20
118.3988103051
 30
0.0
  7
TEXTSTYLE_3
 40
1.42
  1
Allgemeintoleranzen
 41
1.0
 72
0
100
AcDbText
  0
TEXT
  5
26C
100
AcDbEntity
  8
0
100
AcDbText
 62
5
  6
CONTINUOUS
 10
230.3389106191
 20
116.1978103051
 30
0.0
  7
TEXTSTYLE_3
 40
1.42
  1
General tolerances / Tolérances générales
 41
1.0
 72
0
100
AcDbText
  0
TEXT
  5
26D
100
AcDbEntity
  8
0
100
AcDbText
 62
5
  6
CONTINUOUS
 10
269.3619221141
 20
110.9027711273
 30
0.0
  7
TEXTSTYLE_3
 40
1.42
  1
Schweissnähte
 41
1.0
 72
0
100
AcDbText
  0
TEXT
  5
26E
100
AcDbEntity
  8
0
100
AcDbText
 62
5
  6
CONTINUOUS
 10
269.3619221141
 20
108.7017711273
 30
0.0
  7
TEXTSTYLE_3
 40
1.42
  1
Welds
 41
1.0
 72
0
100
AcDbText
  0
TEXT
  5
26F
100
AcDbEntity
  8
0
100
AcDbText
 62
5
  6
CONTINUOUS
 10
269.3619221141
 20
106.5007711273
 30
0.0
  7
TEXTSTYLE_3
 40
1.42
  1
Cordons de soudure
 41
1.0
 72
0
100
AcDbText
  0
TEXT
  5
270
100
AcDbEntity
  8
0
100
AcDbText
 62
5
  6
CONTINUOUS
 10
328.3518328518
 20
118.6593802721
 30
0.0
  7
TEXTSTYLE_3
 40
1.42
  1
Ersatz für / Replacement for / Remplace
 41
1.0
 72
0
100
AcDbText
  0
TEXT
  5
271
100
AcDbEntity
  8
0
100
AcDbText
 62
5
  6
CONTINUOUS
 10
261.3390207719
 20
72.4351731537
 30
0.0
  7
TEXTSTYLE_3
 40
1.3
  1
Leere Felder / Empty fields / Champs vides
 41
1.0
 72
0
100
AcDbText
  0
TEXT
  5
272
100
AcDbEntity
  8
0
100
AcDbText
 62
5
  6
CONTINUOUS
 10
245.6258726238
 20
70.4201731537
 30
0.0
  7
TEXTSTYLE_3
 40
1.3
  1
Siehe LIEBHERR PLM-System - See LIEBHERR PLM system - Voir système PLM
 41
1.0
 72
0
100
AcDbText
  0
TEXT
  5
273
100
AcDbEntity
  8
0
100
AcDbText
 62
5
  6
CONTINUOUS
 10
246.6876420488
 20
68.040375408
 30
0.0
  7
TEXTSTYLE_3
 40
1.42
  1
State
 41
1.0
 72
0
100
AcDbText
  0
TEXT
  5
274
100
AcDbEntity
  8
0
100
AcDbText
 62
5
  6
CONTINUOUS
 10
275.4990365541
 20
67.9944752565
 30
0.0
  7
TEXTSTYLE_3
 40
1.42
  1
Released on
 41
1.0
 72
0
100
AcDbText
  0
TEXT
  5
275
100
AcDbEntity
  8
0
100
AcDbText
 62
5
  6
CONTINUOUS
 10
304.7111666788
 20
68.0165567174
 30
0.0
  7
TEXTSTYLE_3
 40
1.42
  1
Released by
 41
1.0
 72
0
100
AcDbText
  0
TEXT
  5
276
100
AcDbEntity
  8
0
100
AcDbText
 62
5
  6
CONTINUOUS
 10
230.9626926867
 20
75.5896446644
 30
0.0
  7
TEXTSTYLE_3
 40
1.42
  1
Geprüft / Inspected / Vérifié
 41
1.0
 72
0
100
AcDbText
  0
LINE
  5
277
100
AcDbEntity
  8
0
100
AcDbLine
 62
2
  6
CONTINUOUS
 10
267.9626611812
 20
49.8917180182
 30
0.0
 11
265.3244748404
 21
49.8917180182
 31
0.0
  0
LINE
  5
278
100
AcDbEntity
  8
0
100
AcDbLine
 62
2
  6
CONTINUOUS
 10
250.228606964
 20
92.4860281155
 30
0.0
 11
250.228606964
 21
95.8026052297
 31
0.0
  0
LINE
  5
279
100
AcDbEntity
  8
0
100
AcDbLine
 62
2
  6
CONTINUOUS
 10
256.8617611924
 20
97.0463216475
 30
0.0
 11
256.8617611924
 21
91.2423116976
 31
0.0
  0
LINE
  5
27A
100
AcDbEntity
  8
0
100
AcDbLine
 62
2
  6
CONTINUOUS
 10
250.228606964
 20
92.4860281155
 30
0.0
 11
256.8617611924
 21
91.2423116976
 31
0.0
  0
LINE
  5
27B
100
AcDbEntity
  8
0
100
AcDbLine
 62
2
  6
CONTINUOUS
 10
250.228606964
 20
95.8026052297
 30
0.0
 11
256.8617611924
 21
97.0463216475
 31
0.0
  0
LINE
  5
27C
100
AcDbEntity
  8
DEFAULT_1
100
AcDbLine
 62
2
  6
CENTER
 10
248.6433718574
 20
94.1443166726
 30
0.0
 11
266.2843914136
 21
94.1443166726
 31
0.0
  0
LINE
  5
27D
100
AcDbEntity
  8
DEFAULT_1
100
AcDbLine
 62
2
  6
CENTER
 10
261.8366268638
 20
90.8277395583
 30
0.0
 11
261.8366268638
 21
97.4608937868
 31
0.0
  0
ARC
  5
27E
100
AcDbEntity
  8
0
100
AcDbCircle
 62
2
  6
CONTINUOUS
 10
268.6222077664
 20
53.9809068465
 30
0.0
 40
0.6595465852
100
AcDbArc
 50
0.0
 51
90.0
  0
ARC
  5
27F
100
AcDbEntity
  8
0
100
AcDbCircle
 62
2
  6
CONTINUOUS
 10
268.6222077664
 20
53.7170882125
 30
0.0
 40
0.6595465852
100
AcDbArc
 50
270.0
 51
360.0
  0
CIRCLE
  5
280
100
AcDbEntity
  8
0
100
AcDbCircle
 62
2
  6
CONTINUOUS
 10
261.8366268638
 20
94.1443166726
 30
0.0
 40
2.902004975
  0
CIRCLE
  5
281
100
AcDbEntity
  8
0
100
AcDbCircle
 62
2
  6
CONTINUOUS
 10
261.8366268638
 20
94.1443166726
 30
0.0
 40
1.6582885571
  0
LINE
  5
282
100
AcDbEntity
  8
DEFAULT_3
100
AcDbLine
 62
2
  6
PHANTOM
 10
252.2699750582
 20
51.4746298227
 30
0.0
 11
252.2699750582
 21
51.2068235386
 31
0.0
  0
ARC
  5
283
100
AcDbEntity
  8
DEFAULT_3
100
AcDbCircle
 62
2
  6
PHANTOM
 10
250.9508818878
 20
51.2068235386
 30
0.0
 40
1.3190931704
100
AcDbArc
 50
270.0000000001
 51
360.0
  0
LINE
  5
284
100
AcDbEntity
  8
DEFAULT_3
100
AcDbLine
 62
2
  6
PHANTOM
 10
250.9508818878
 20
49.8877303681
 30
0.0
 11
245.9383278401
 21
49.8917180182
 31
0.0
  0
LINE
  5
285
100
AcDbEntity
  8
DEFAULT_3
100
AcDbLine
 62
2
  6
PHANTOM
 10
245.9383278401
 20
49.8917180182
 30
0.0
 11
245.9383278401
 21
55.6957279681
 31
0.0
  0
LINE
  5
286
100
AcDbEntity
  8
DEFAULT_3
100
AcDbLine
 62
2
  6
PHANTOM
 10
245.9383278401
 20
55.6957279681
 30
0.0
 11
250.9508818878
 21
55.6957279681
 31
0.0
  0
ARC
  5
287
100
AcDbEntity
  8
DEFAULT_3
100
AcDbCircle
 62
2
  6
PHANTOM
 10
250.8123771049
 20
54.2447254806
 30
0.0
 40
1.4575979533
100
AcDbArc
 50
275.4526219878
 51
84.5473780121
  0
ARC
  5
288
100
AcDbEntity
  8
DEFAULT_3
100
AcDbCircle
 62
2
  6
PHANTOM
 10
250.9128822556
 20
51.4366301905
 30
0.0
 40
1.3576247077
100
AcDbArc
 50
1.6039063791
 51
88.396093621
  0
ARC
  5
289
100
AcDbEntity
  8
DEFAULT_3
100
AcDbCircle
 62
2
  6
PHANTOM
 10
249.2360607662
 20
54.2447254806
 30
0.0
 40
0.6595465852
100
AcDbArc
 50
270.0
 51
90.0
  0
LINE
  5
28A
100
AcDbEntity
  8
DEFAULT_3
100
AcDbLine
 62
2
  6
PHANTOM
 10
249.2360607662
 20
54.9042720658
 30
0.0
 11
248.8403328151
 21
54.9042720658
 31
0.0
  0
LINE
  5
28B
100
AcDbEntity
  8
DEFAULT_3
100
AcDbLine
 62
2
  6
PHANTOM
 10
248.8403328151
 20
54.9042720658
 30
0.0
 11
248.8403328151
 21
53.5851788954
 31
0.0
  0
LINE
  5
28C
100
AcDbEntity
  8
DEFAULT_3
100
AcDbLine
 62
2
  6
PHANTOM
 10
248.8403328151
 20
53.5851788954
 30
0.0
 11
249.2360607662
 21
53.5851788954
 31
0.0
  0
ARC
  5
28D
100
AcDbEntity
  8
DEFAULT_3
100
AcDbCircle
 62
2
  6
PHANTOM
 10
249.2360607662
 20
51.8703577738
 30
0.0
 40
0.6595465852
100
AcDbArc
 50
270.0
 51
90.0
  0
LINE
  5
28E
100
AcDbEntity
  8
DEFAULT_3
100
AcDbLine
 62
2
  6
PHANTOM
 10
249.2360607662
 20
52.5299043591
 30
0.0
 11
248.8403328151
 21
52.5299043591
 31
0.0
  0
LINE
  5
28F
100
AcDbEntity
  8
DEFAULT_3
100
AcDbLine
 62
2
  6
PHANTOM
 10
248.8403328151
 20
52.5299043591
 30
0.0
 11
248.8403328151
 21
51.2108111886
 31
0.0
  0
LINE
  5
290
100
AcDbEntity
  8
DEFAULT_3
100
AcDbLine
 62
2
  6
PHANTOM
 10
248.8403328151
 20
51.2108111886
 30
0.0
 11
249.2360607662
 21
51.2108111886
 31
0.0
  0
SOLID
  5
291
100
AcDbEntity
  8
DEFAULT_3
100
AcDbTrace
 62
2
  6
PHANTOM
 10
248.8403328151
 20
54.9042720658
 30
0.0
 11
252.0971740201
 21
54.9331212099
 31
0.0
 12
249.2360607662
 22
54.9042720658
 32
0.0
 13
249.2360607662
 23
54.9042720658
 33
0.0
  0
SOLID
  5
292
100
AcDbEntity
  8
DEFAULT_3
100
AcDbTrace
 62
2
  6
PHANTOM
 10
249.2360607662
 20
54.9042720658
 30
0.0
 11
252.0971740201
 21
54.9331212099
 31
0.0
 12
249.6237325222
 22
54.7783098766
 32
0.0
 13
249.6237325222
 23
54.7783098766
 33
0.0
  0
SOLID
  5
293
100
AcDbEntity
  8
DEFAULT_3
100
AcDbTrace
 62
2
  6
PHANTOM
 10
249.6237325222
 20
54.7783098766
 30
0.0
 11
252.0971740201
 21
54.9331212099
 31
0.0
 12
249.8633268439
 22
54.448536584
 32
0.0
 13
249.8633268439
 23
54.448536584
 33
0.0
  0
SOLID
  5
294
100
AcDbEntity
  8
DEFAULT_3
100
AcDbTrace
 62
2
  6
PHANTOM
 10
252.0971740201
 20
54.9331212099
 30
0.0
 11
252.2699750582
 21
54.2447254806
 31
0.0
 12
249.8633268439
 22
54.448536584
 32
0.0
 13
249.8633268439
 23
54.448536584
 33
0.0
  0
SOLID
  5
295
100
AcDbEntity
  8
DEFAULT_3
100
AcDbTrace
 62
2
  6
PHANTOM
 10
249.8633268439
 20
54.0409143772
 30
0.0
 11
249.8633268439
 21
54.448536584
 31
0.0
 12
252.2699750582
 22
54.2447254806
 32
0.0
 13
252.2699750582
 23
54.2447254806
 33
0.0
  0
SOLID
  5
296
100
AcDbEntity
  8
DEFAULT_3
100
AcDbTrace
 62
2
  6
PHANTOM
 10
249.8633268439
 20
54.0409143772
 30
0.0
 11
252.2699750582
 21
54.2447254806
 31
0.0
 12
249.6237325222
 22
53.7111410846
 32
0.0
 13
249.6237325222
 23
53.7111410846
 33
0.0
  0
SOLID
  5
297
100
AcDbEntity
  8
DEFAULT_3
100
AcDbTrace
 62
2
  6
PHANTOM
 10
249.6237325222
 20
53.7111410846
 30
0.0
 11
252.2699750582
 21
54.2447254806
 31
0.0
 12
249.2360607662
 22
53.5851788954
 32
0.0
 13
249.2360607662
 23
53.5851788954
 33
0.0
  0
SOLID
  5
298
100
AcDbEntity
  8
DEFAULT_3
100
AcDbTrace
 62
2
  6
PHANTOM
 10
252.2699750582
 20
54.2447254806
 30
0.0
 11
252.0971740201
 21
53.5563297513
 31
0.0
 12
249.2360607662
 22
53.5851788954
 32
0.0
 13
249.2360607662
 23
53.5851788954
 33
0.0
  0
SOLID
  5
299
100
AcDbEntity
  8
DEFAULT_3
100
AcDbTrace
 62
2
  6
PHANTOM
 10
248.8403328151
 20
52.5299043591
 30
0.0
 11
251.60263588
 21
52.6059824833
 31
0.0
 12
249.2360607662
 22
52.5299043591
 32
0.0
 13
249.2360607662
 23
52.5299043591
 33
0.0
  0
SOLID
  5
29A
100
AcDbEntity
  8
DEFAULT_3
100
AcDbTrace
 62
2
  6
PHANTOM
 10
249.2360607662
 20
52.5299043591
 30
0.0
 11
251.60263588
 21
52.6059824833
 31
0.0
 12
249.6237325222
 22
52.4039421699
 32
0.0
 13
249.6237325222
 23
52.4039421699
 33
0.0
  0
SOLID
  5
29B
100
AcDbEntity
  8
DEFAULT_3
100
AcDbTrace
 62
2
  6
PHANTOM
 10
251.60263588
 20
52.6059824833
 30
0.0
 11
252.0822345484
 21
52.1263838149
 31
0.0
 12
249.6237325222
 22
52.4039421699
 32
0.0
 13
249.6237325222
 23
52.4039421699
 33
0.0
  0
SOLID
  5
29C
100
AcDbEntity
  8
DEFAULT_3
100
AcDbTrace
 62
2
  6
PHANTOM
 10
249.8633268439
 20
52.0741688773
 30
0.0
 11
249.6237325222
 21
52.4039421699
 31
0.0
 12
252.0822345484
 22
52.1263838149
 32
0.0
 13
252.0822345484
 23
52.1263838149
 33
0.0
  0
SOLID
  5
29D
100
AcDbEntity
  8
DEFAULT_3
100
AcDbTrace
 62
2
  6
PHANTOM
 10
249.8633268439
 20
52.0741688773
 30
0.0
 11
252.0822345484
 21
52.1263838149
 31
0.0
 12
249.8633268439
 22
51.6665466704
 32
0.0
 13
249.8633268439
 23
51.6665466704
 33
0.0
  0
SOLID
  5
29E
100
AcDbEntity
  8
DEFAULT_3
100
AcDbTrace
 62
2
  6
PHANTOM
 10
252.0822345484
 20
52.1263838149
 30
0.0
 11
252.2699750582
 21
51.4746298227
 31
0.0
 12
249.8633268439
 22
51.6665466704
 32
0.0
 13
249.8633268439
 23
51.6665466704
 33
0.0
  0
SOLID
  5
29F
100
AcDbEntity
  8
DEFAULT_3
100
AcDbTrace
 62
2
  6
PHANTOM
 10
249.6237325222
 20
51.3367733778
 30
0.0
 11
249.8633268439
 21
51.6665466704
 31
0.0
 12
252.2699750582
 22
51.4746298227
 32
0.0
 13
252.2699750582
 23
51.4746298227
 33
0.0
  0
SOLID
  5
2A0
100
AcDbEntity
  8
DEFAULT_3
100
AcDbTrace
 62
2
  6
PHANTOM
 10
249.6237325222
 20
51.3367733778
 30
0.0
 11
252.2699750582
 21
51.4746298227
 31
0.0
 12
249.2360607662
 22
51.2108111886
 32
0.0
 13
249.2360607662
 23
51.2108111886
 33
0.0
  0
SOLID
  5
2A1
100
AcDbEntity
  8
DEFAULT_3
100
AcDbTrace
 62
2
  6
PHANTOM
 10
252.2699750582
 20
51.4746298227
 30
0.0
 11
252.2699750582
 21
51.2068235386
 31
0.0
 12
249.2360607662
 22
51.2108111886
 32
0.0
 13
249.2360607662
 23
51.2108111886
 33
0.0
  0
SOLID
  5
2A2
100
AcDbEntity
  8
DEFAULT_3
100
AcDbTrace
 62
2
  6
PHANTOM
 10
251.610428473
 20
50.064455343
 30
0.0
 11
245.9383278401
 21
49.8917180182
 31
0.0
 12
252.0932500833
 22
50.5472769534
 32
0.0
 13
252.0932500833
 23
50.5472769534
 33
0.0
  0
SOLID
  5
2A3
100
AcDbEntity
  8
DEFAULT_3
100
AcDbTrace
 62
2
  6
PHANTOM
 10
252.0932500833
 20
50.5472769534
 30
0.0
 11
245.9383278401
 21
49.8917180182
 31
0.0
 12
252.2699750582
 22
51.2068235386
 32
0.0
 13
252.2699750582
 23
51.2068235386
 33
0.0
  0
SOLID
  5
2A4
100
AcDbEntity
  8
DEFAULT_3
100
AcDbTrace
 62
2
  6
PHANTOM
 10
252.2699750582
 20
51.2068235386
 30
0.0
 11
245.9383278401
 21
49.8917180182
 31
0.0
 12
249.2360607662
 22
51.2108111886
 32
0.0
 13
249.2360607662
 23
51.2108111886
 33
0.0
  0
SOLID
  5
2A5
100
AcDbEntity
  8
DEFAULT_3
100
AcDbTrace
 62
2
  6
PHANTOM
 10
249.2360607662
 20
51.2108111886
 30
0.0
 11
245.9383278401
 21
49.8917180182
 31
0.0
 12
248.8403328151
 22
51.2108111886
 32
0.0
 13
248.8403328151
 23
51.2108111886
 33
0.0
  0
SOLID
  5
2A6
100
AcDbEntity
  8
DEFAULT_3
100
AcDbTrace
 62
2
  6
PHANTOM
 10
248.8403328151
 20
51.2108111886
 30
0.0
 11
245.9383278401
 21
49.8917180182
 31
0.0
 12
248.8403328151
 22
52.5299043591
 32
0.0
 13
248.8403328151
 23
52.5299043591
 33
0.0
  0
SOLID
  5
2A7
100
AcDbEntity
  8
DEFAULT_3
100
AcDbTrace
 62
2
  6
PHANTOM
 10
251.60263588
 20
52.6059824833
 30
0.0
 11
248.8403328151
 21
52.5299043591
 31
0.0
 12
250.9508818878
 22
52.7937229931
 32
0.0
 13
250.9508818878
 23
52.7937229931
 33
0.0
  0
SOLID
  5
2A8
100
AcDbEntity
  8
DEFAULT_3
100
AcDbTrace
 62
2
  6
PHANTOM
 10
250.9508818878
 20
52.7937229931
 30
0.0
 11
248.8403328151
 21
52.5299043591
 31
0.0
 12
251.6197426961
 22
53.0311552949
 32
0.0
 13
251.6197426961
 23
53.0311552949
 33
0.0
  0
SOLID
  5
2A9
100
AcDbEntity
  8
DEFAULT_3
100
AcDbTrace
 62
2
  6
PHANTOM
 10
251.6197426961
 20
53.0311552949
 30
0.0
 11
248.8403328151
 21
52.5299043591
 31
0.0
 12
252.0971740201
 22
53.5563297513
 32
0.0
 13
252.0971740201
 23
53.5563297513
 33
0.0
  0
SOLID
  5
2AA
100
AcDbEntity
  8
DEFAULT_3
100
AcDbTrace
 62
2
  6
PHANTOM
 10
252.0971740201
 20
53.5563297513
 30
0.0
 11
248.8403328151
 21
52.5299043591
 31
0.0
 12
249.2360607662
 22
53.5851788954
 32
0.0
 13
249.2360607662
 23
53.5851788954
 33
0.0
  0
SOLID
  5
2AB
100
AcDbEntity
  8
DEFAULT_3
100
AcDbTrace
 62
2
  6
PHANTOM
 10
248.8403328151
 20
52.5299043591
 30
0.0
 11
245.9383278401
 21
49.8917180182
 31
0.0
 12
249.2360607662
 22
53.5851788954
 32
0.0
 13
249.2360607662
 23
53.5851788954
 33
0.0
  0
SOLID
  5
2AC
100
AcDbEntity
  8
DEFAULT_3
100
AcDbTrace
 62
2
  6
PHANTOM
 10
249.2360607662
 20
53.5851788954
 30
0.0
 11
245.9383278401
 21
49.8917180182
 31
0.0
 12
248.8403328151
 22
53.5851788954
 32
0.0
 13
248.8403328151
 23
53.5851788954
 33
0.0
  0
SOLID
  5
2AD
100
AcDbEntity
  8
DEFAULT_3
100
AcDbTrace
 62
2
  6
PHANTOM
 10
248.8403328151
 20
53.5851788954
 30
0.0
 11
245.9383278401
 21
49.8917180182
 31
0.0
 12
248.8403328151
 22
54.9042720658
 32
0.0
 13
248.8403328151
 23
54.9042720658
 33
0.0
  0
SOLID
  5
2AE
100
AcDbEntity
  8
DEFAULT_3
100
AcDbTrace
 62
2
  6
PHANTOM
 10
252.0971740201
 20
54.9331212099
 30
0.0
 11
248.8403328151
 21
54.9042720658
 31
0.0
 12
251.6197426961
 22
55.4582956663
 32
0.0
 13
251.6197426961
 23
55.4582956663
 33
0.0
  0
SOLID
  5
2AF
100
AcDbEntity
  8
DEFAULT_3
100
AcDbTrace
 62
2
  6
PHANTOM
 10
251.6197426961
 20
55.4582956663
 30
0.0
 11
248.8403328151
 21
54.9042720658
 31
0.0
 12
250.9508818878
 22
55.6957279681
 32
0.0
 13
250.9508818878
 23
55.6957279681
 33
0.0
  0
SOLID
  5
2B0
100
AcDbEntity
  8
DEFAULT_3
100
AcDbTrace
 62
2
  6
PHANTOM
 10
250.9508818878
 20
55.6957279681
 30
0.0
 11
248.8403328151
 21
54.9042720658
 31
0.0
 12
245.9383278401
 22
55.6957279681
 32
0.0
 13
245.9383278401
 23
55.6957279681
 33
0.0
  0
SOLID
  5
2B1
100
AcDbEntity
  8
DEFAULT_3
100
AcDbTrace
 62
2
  6
PHANTOM
 10
245.9383278401
 20
49.8917180182
 30
0.0
 11
245.9383278401
 21
55.6957279681
 31
0.0
 12
248.8403328151
 22
54.9042720658
 32
0.0
 13
248.8403328151
 23
54.9042720658
 33
0.0
  0
SOLID
  5
2B2
100
AcDbEntity
  8
DEFAULT_3
100
AcDbTrace
 62
2
  6
PHANTOM
 10
251.610428473
 20
50.064455343
 30
0.0
 11
250.9508818878
 21
49.8877303681
 31
0.0
 12
245.9383278401
 22
49.8917180182
 32
0.0
 13
245.9383278401
 23
49.8917180182
 33
0.0
  0
LINE
  5
2B3
100
AcDbEntity
  8
DEFAULT_3
100
AcDbLine
 62
2
  6
PHANTOM
 10
252.2699750582
 20
51.4746298227
 30
0.0
 11
252.2699750582
 21
51.2068235386
 31
0.0
  0
ARC
  5
2B4
100
AcDbEntity
  8
DEFAULT_3
100
AcDbCircle
 62
2
  6
PHANTOM
 10
250.9508818878
 20
51.2068235386
 30
0.0
 40
1.3190931704
100
AcDbArc
 50
270.0000000001
 51
360.0
  0
LINE
  5
2B5
100
AcDbEntity
  8
DEFAULT_3
100
AcDbLine
 62
2
  6
PHANTOM
 10
250.9508818878
 20
49.8877303681
 30
0.0
 11
245.9383278401
 21
49.8917180182
 31
0.0
  0
LINE
  5
2B6
100
AcDbEntity
  8
DEFAULT_3
100
AcDbLine
 62
2
  6
PHANTOM
 10
245.9383278401
 20
49.8917180182
 30
0.0
 11
245.9383278401
 21
55.6957279681
 31
0.0
  0
LINE
  5
2B7
100
AcDbEntity
  8
DEFAULT_3
100
AcDbLine
 62
2
  6
PHANTOM
 10
245.9383278401
 20
55.6957279681
 30
0.0
 11
250.9508818878
 21
55.6957279681
 31
0.0
  0
ARC
  5
2B8
100
AcDbEntity
  8
DEFAULT_3
100
AcDbCircle
 62
2
  6
PHANTOM
 10
250.8123771049
 20
54.2447254806
 30
0.0
 40
1.4575979533
100
AcDbArc
 50
275.4526219878
 51
84.5473780121
  0
ARC
  5
2B9
100
AcDbEntity
  8
DEFAULT_3
100
AcDbCircle
 62
2
  6
PHANTOM
 10
250.9128822556
 20
51.4366301905
 30
0.0
 40
1.3576247077
100
AcDbArc
 50
1.6039063791
 51
88.396093621
  0
ARC
  5
2BA
100
AcDbEntity
  8
DEFAULT_3
100
AcDbCircle
 62
2
  6
PHANTOM
 10
249.2360607662
 20
54.2447254806
 30
0.0
 40
0.6595465852
100
AcDbArc
 50
270.0
 51
90.0
  0
LINE
  5
2BB
100
AcDbEntity
  8
DEFAULT_3
100
AcDbLine
 62
2
  6
PHANTOM
 10
249.2360607662
 20
54.9042720658
 30
0.0
 11
248.8403328151
 21
54.9042720658
 31
0.0
  0
LINE
  5
2BC
100
AcDbEntity
  8
DEFAULT_3
100
AcDbLine
 62
2
  6
PHANTOM
 10
248.8403328151
 20
54.9042720658
 30
0.0
 11
248.8403328151
 21
53.5851788954
 31
0.0
  0
LINE
  5
2BD
100
AcDbEntity
  8
DEFAULT_3
100
AcDbLine
 62
2
  6
PHANTOM
 10
248.8403328151
 20
53.5851788954
 30
0.0
 11
249.2360607662
 21
53.5851788954
 31
0.0
  0
ARC
  5
2BE
100
AcDbEntity
  8
DEFAULT_3
100
AcDbCircle
 62
2
  6
PHANTOM
 10
249.2360607662
 20
51.8703577738
 30
0.0
 40
0.6595465852
100
AcDbArc
 50
270.0
 51
90.0
  0
LINE
  5
2BF
100
AcDbEntity
  8
DEFAULT_3
100
AcDbLine
 62
2
  6
PHANTOM
 10
249.2360607662
 20
52.5299043591
 30
0.0
 11
248.8403328151
 21
52.5299043591
 31
0.0
  0
LINE
  5
2C0
100
AcDbEntity
  8
DEFAULT_3
100
AcDbLine
 62
2
  6
PHANTOM
 10
248.8403328151
 20
52.5299043591
 30
0.0
 11
248.8403328151
 21
51.2108111886
 31
0.0
  0
LINE
  5
2C1
100
AcDbEntity
  8
DEFAULT_3
100
AcDbLine
 62
2
  6
PHANTOM
 10
248.8403328151
 20
51.2108111886
 30
0.0
 11
249.2360607662
 21
51.2108111886
 31
0.0
  0
SOLID
  5
2C2
100
AcDbEntity
  8
DEFAULT_3
100
AcDbTrace
 62
2
  6
PHANTOM
 10
248.8403328151
 20
54.9042720658
 30
0.0
 11
252.0971740201
 21
54.9331212099
 31
0.0
 12
249.2360607662
 22
54.9042720658
 32
0.0
 13
249.2360607662
 23
54.9042720658
 33
0.0
  0
SOLID
  5
2C3
100
AcDbEntity
  8
DEFAULT_3
100
AcDbTrace
 62
2
  6
PHANTOM
 10
249.2360607662
 20
54.9042720658
 30
0.0
 11
252.0971740201
 21
54.9331212099
 31
0.0
 12
249.6237325222
 22
54.7783098766
 32
0.0
 13
249.6237325222
 23
54.7783098766
 33
0.0
  0
SOLID
  5
2C4
100
AcDbEntity
  8
DEFAULT_3
100
AcDbTrace
 62
2
  6
PHANTOM
 10
249.6237325222
 20
54.7783098766
 30
0.0
 11
252.0971740201
 21
54.9331212099
 31
0.0
 12
249.8633268439
 22
54.448536584
 32
0.0
 13
249.8633268439
 23
54.448536584
 33
0.0
  0
SOLID
  5
2C5
100
AcDbEntity
  8
DEFAULT_3
100
AcDbTrace
 62
2
  6
PHANTOM
 10
252.0971740201
 20
54.9331212099
 30
0.0
 11
252.2699750582
 21
54.2447254806
 31
0.0
 12
249.8633268439
 22
54.448536584
 32
0.0
 13
249.8633268439
 23
54.448536584
 33
0.0
  0
SOLID
  5
2C6
100
AcDbEntity
  8
DEFAULT_3
100
AcDbTrace
 62
2
  6
PHANTOM
 10
249.8633268439
 20
54.0409143772
 30
0.0
 11
249.8633268439
 21
54.448536584
 31
0.0
 12
252.2699750582
 22
54.2447254806
 32
0.0
 13
252.2699750582
 23
54.2447254806
 33
0.0
  0
SOLID
  5
2C7
100
AcDbEntity
  8
DEFAULT_3
100
AcDbTrace
 62
2
  6
PHANTOM
 10
249.8633268439
 20
54.0409143772
 30
0.0
 11
252.2699750582
 21
54.2447254806
 31
0.0
 12
249.6237325222
 22
53.7111410846
 32
0.0
 13
249.6237325222
 23
53.7111410846
 33
0.0
  0
SOLID
  5
2C8
100
AcDbEntity
  8
DEFAULT_3
100
AcDbTrace
 62
2
  6
PHANTOM
 10
249.6237325222
 20
53.7111410846
 30
0.0
 11
252.2699750582
 21
54.2447254806
 31
0.0
 12
249.2360607662
 22
53.5851788954
 32
0.0
 13
249.2360607662
 23
53.5851788954
 33
0.0
  0
SOLID
  5
2C9
100
AcDbEntity
  8
DEFAULT_3
100
AcDbTrace
 62
2
  6
PHANTOM
 10
252.2699750582
 20
54.2447254806
 30
0.0
 11
252.0971740201
 21
53.5563297513
 31
0.0
 12
249.2360607662
 22
53.5851788954
 32
0.0
 13
249.2360607662
 23
53.5851788954
 33
0.0
  0
SOLID
  5
2CA
100
AcDbEntity
  8
DEFAULT_3
100
AcDbTrace
 62
2
  6
PHANTOM
 10
248.8403328151
 20
52.5299043591
 30
0.0
 11
251.60263588
 21
52.6059824833
 31
0.0
 12
249.2360607662
 22
52.5299043591
 32
0.0
 13
249.2360607662
 23
52.5299043591
 33
0.0
  0
SOLID
  5
2CB
100
AcDbEntity
  8
DEFAULT_3
100
AcDbTrace
 62
2
  6
PHANTOM
 10
249.2360607662
 20
52.5299043591
 30
0.0
 11
251.60263588
 21
52.6059824833
 31
0.0
 12
249.6237325222
 22
52.4039421699
 32
0.0
 13
249.6237325222
 23
52.4039421699
 33
0.0
  0
SOLID
  5
2CC
100
AcDbEntity
  8
DEFAULT_3
100
AcDbTrace
 62
2
  6
PHANTOM
 10
251.60263588
 20
52.6059824833
 30
0.0
 11
252.0822345484
 21
52.1263838149
 31
0.0
 12
249.6237325222
 22
52.4039421699
 32
0.0
 13
249.6237325222
 23
52.4039421699
 33
0.0
  0
SOLID
  5
2CD
100
AcDbEntity
  8
DEFAULT_3
100
AcDbTrace
 62
2
  6
PHANTOM
 10
249.8633268439
 20
52.0741688773
 30
0.0
 11
249.6237325222
 21
52.4039421699
 31
0.0
 12
252.0822345484
 22
52.1263838149
 32
0.0
 13
252.0822345484
 23
52.1263838149
 33
0.0
  0
SOLID
  5
2CE
100
AcDbEntity
  8
DEFAULT_3
100
AcDbTrace
 62
2
  6
PHANTOM
 10
249.8633268439
 20
52.0741688773
 30
0.0
 11
252.0822345484
 21
52.1263838149
 31
0.0
 12
249.8633268439
 22
51.6665466704
 32
0.0
 13
249.8633268439
 23
51.6665466704
 33
0.0
  0
SOLID
  5
2CF
100
AcDbEntity
  8
DEFAULT_3
100
AcDbTrace
 62
2
  6
PHANTOM
 10
252.0822345484
 20
52.1263838149
 30
0.0
 11
252.2699750582
 21
51.4746298227
 31
0.0
 12
249.8633268439
 22
51.6665466704
 32
0.0
 13
249.8633268439
 23
51.6665466704
 33
0.0
  0
SOLID
  5
2D0
100
AcDbEntity
  8
DEFAULT_3
100
AcDbTrace
 62
2
  6
PHANTOM
 10
249.6237325222
 20
51.3367733778
 30
0.0
 11
249.8633268439
 21
51.6665466704
 31
0.0
 12
252.2699750582
 22
51.4746298227
 32
0.0
 13
252.2699750582
 23
51.4746298227
 33
0.0
  0
SOLID
  5
2D1
100
AcDbEntity
  8
DEFAULT_3
100
AcDbTrace
 62
2
  6
PHANTOM
 10
249.6237325222
 20
51.3367733778
 30
0.0
 11
252.2699750582
 21
51.4746298227
 31
0.0
 12
249.2360607662
 22
51.2108111886
 32
0.0
 13
249.2360607662
 23
51.2108111886
 33
0.0
  0
SOLID
  5
2D2
100
AcDbEntity
  8
DEFAULT_3
100
AcDbTrace
 62
2
  6
PHANTOM
 10
252.2699750582
 20
51.4746298227
 30
0.0
 11
252.2699750582
 21
51.2068235386
 31
0.0
 12
249.2360607662
 22
51.2108111886
 32
0.0
 13
249.2360607662
 23
51.2108111886
 33
0.0
  0
SOLID
  5
2D3
100
AcDbEntity
  8
DEFAULT_3
100
AcDbTrace
 62
2
  6
PHANTOM
 10
251.610428473
 20
50.064455343
 30
0.0
 11
245.9383278401
 21
49.8917180182
 31
0.0
 12
252.0932500833
 22
50.5472769534
 32
0.0
 13
252.0932500833
 23
50.5472769534
 33
0.0
  0
SOLID
  5
2D4
100
AcDbEntity
  8
DEFAULT_3
100
AcDbTrace
 62
2
  6
PHANTOM
 10
252.0932500833
 20
50.5472769534
 30
0.0
 11
245.9383278401
 21
49.8917180182
 31
0.0
 12
252.2699750582
 22
51.2068235386
 32
0.0
 13
252.2699750582
 23
51.2068235386
 33
0.0
  0
SOLID
  5
2D5
100
AcDbEntity
  8
DEFAULT_3
100
AcDbTrace
 62
2
  6
PHANTOM
 10
252.2699750582
 20
51.2068235386
 30
0.0
 11
245.9383278401
 21
49.8917180182
 31
0.0
 12
249.2360607662
 22
51.2108111886
 32
0.0
 13
249.2360607662
 23
51.2108111886
 33
0.0
  0
SOLID
  5
2D6
100
AcDbEntity
  8
DEFAULT_3
100
AcDbTrace
 62
2
  6
PHANTOM
 10
249.2360607662
 20
51.2108111886
 30
0.0
 11
245.9383278401
 21
49.8917180182
 31
0.0
 12
248.8403328151
 22
51.2108111886
 32
0.0
 13
248.8403328151
 23
51.2108111886
 33
0.0
  0
SOLID
  5
2D7
100
AcDbEntity
  8
DEFAULT_3
100
AcDbTrace
 62
2
  6
PHANTOM
 10
248.8403328151
 20
51.2108111886
 30
0.0
 11
245.9383278401
 21
49.8917180182
 31
0.0
 12
248.8403328151
 22
52.5299043591
 32
0.0
 13
248.8403328151
 23
52.5299043591
 33
0.0
  0
SOLID
  5
2D8
100
AcDbEntity
  8
DEFAULT_3
100
AcDbTrace
 62
2
  6
PHANTOM
 10
251.60263588
 20
52.6059824833
 30
0.0
 11
248.8403328151
 21
52.5299043591
 31
0.0
 12
250.9508818878
 22
52.7937229931
 32
0.0
 13
250.9508818878
 23
52.7937229931
 33
0.0
  0
SOLID
  5
2D9
100
AcDbEntity
  8
DEFAULT_3
100
AcDbTrace
 62
2
  6
PHANTOM
 10
250.9508818878
 20
52.7937229931
 30
0.0
 11
248.8403328151
 21
52.5299043591
 31
0.0
 12
251.6197426961
 22
53.0311552949
 32
0.0
 13
251.6197426961
 23
53.0311552949
 33
0.0
  0
SOLID
  5
2DA
100
AcDbEntity
  8
DEFAULT_3
100
AcDbTrace
 62
2
  6
PHANTOM
 10
251.6197426961
 20
53.0311552949
 30
0.0
 11
248.8403328151
 21
52.5299043591
 31
0.0
 12
252.0971740201
 22
53.5563297513
 32
0.0
 13
252.0971740201
 23
53.5563297513
 33
0.0
  0
SOLID
  5
2DB
100
AcDbEntity
  8
DEFAULT_3
100
AcDbTrace
 62
2
  6
PHANTOM
 10
252.0971740201
 20
53.5563297513
 30
0.0
 11
248.8403328151
 21
52.5299043591
 31
0.0
 12
249.2360607662
 22
53.5851788954
 32
0.0
 13
249.2360607662
 23
53.5851788954
 33
0.0
  0
SOLID
  5
2DC
100
AcDbEntity
  8
DEFAULT_3
100
AcDbTrace
 62
2
  6
PHANTOM
 10
248.8403328151
 20
52.5299043591
 30
0.0
 11
245.9383278401
 21
49.8917180182
 31
0.0
 12
249.2360607662
 22
53.5851788954
 32
0.0
 13
249.2360607662
 23
53.5851788954
 33
0.0
  0
SOLID
  5
2DD
100
AcDbEntity
  8
DEFAULT_3
100
AcDbTrace
 62
2
  6
PHANTOM
 10
249.2360607662
 20
53.5851788954
 30
0.0
 11
245.9383278401
 21
49.8917180182
 31
0.0
 12
248.8403328151
 22
53.5851788954
 32
0.0
 13
248.8403328151
 23
53.5851788954
 33
0.0
  0
SOLID
  5
2DE
100
AcDbEntity
  8
DEFAULT_3
100
AcDbTrace
 62
2
  6
PHANTOM
 10
248.8403328151
 20
53.5851788954
 30
0.0
 11
245.9383278401
 21
49.8917180182
 31
0.0
 12
248.8403328151
 22
54.9042720658
 32
0.0
 13
248.8403328151
 23
54.9042720658
 33
0.0
  0
SOLID
  5
2DF
100
AcDbEntity
  8
DEFAULT_3
100
AcDbTrace
 62
2
  6
PHANTOM
 10
252.0971740201
 20
54.9331212099
 30
0.0
 11
248.8403328151
 21
54.9042720658
 31
0.0
 12
251.6197426961
 22
55.4582956663
 32
0.0
 13
251.6197426961
 23
55.4582956663
 33
0.0
  0
SOLID
  5
2E0
100
AcDbEntity
  8
DEFAULT_3
100
AcDbTrace
 62
2
  6
PHANTOM
 10
251.6197426961
 20
55.4582956663
 30
0.0
 11
248.8403328151
 21
54.9042720658
 31
0.0
 12
250.9508818878
 22
55.6957279681
 32
0.0
 13
250.9508818878
 23
55.6957279681
 33
0.0
  0
SOLID
  5
2E1
100
AcDbEntity
  8
DEFAULT_3
100
AcDbTrace
 62
2
  6
PHANTOM
 10
250.9508818878
 20
55.6957279681
 30
0.0
 11
248.8403328151
 21
54.9042720658
 31
0.0
 12
245.9383278401
 22
55.6957279681
 32
0.0
 13
245.9383278401
 23
55.6957279681
 33
0.0
  0
SOLID
  5
2E2
100
AcDbEntity
  8
DEFAULT_3
100
AcDbTrace
 62
2
  6
PHANTOM
 10
245.9383278401
 20
49.8917180182
 30
0.0
 11
245.9383278401
 21
55.6957279681
 31
0.0
 12
248.8403328151
 22
54.9042720658
 32
0.0
 13
248.8403328151
 23
54.9042720658
 33
0.0
  0
SOLID
  5
2E3
100
AcDbEntity
  8
DEFAULT_3
100
AcDbTrace
 62
2
  6
PHANTOM
 10
251.610428473
 20
50.064455343
 30
0.0
 11
250.9508818878
 21
49.8877303681
 31
0.0
 12
245.9383278401
 22
49.8917180182
 32
0.0
 13
245.9383278401
 23
49.8917180182
 33
0.0
  0
LINE
  5
2E4
100
AcDbEntity
  8
DEFAULT_3
100
AcDbLine
 62
2
  6
PHANTOM
 10
268.8765557377
 20
49.8917180182
 30
0.0
 11
271.6561220584
 21
49.8917180182
 31
0.0
  0
LINE
  5
2E5
100
AcDbEntity
  8
DEFAULT_3
100
AcDbLine
 62
2
  6
PHANTOM
 10
271.6561220584
 20
49.8917180182
 30
0.0
 11
270.7109831105
 21
51.5287466962
 31
0.0
  0
ARC
  5
2E6
100
AcDbEntity
  8
DEFAULT_3
100
AcDbCircle
 62
2
  6
PHANTOM
 10
270.337028888
 20
52.7937229931
 30
0.0
 40
1.3190931704
100
AcDbArc
 50
286.4688135525
 51
360.0
  0
LINE
  5
2E7
100
AcDbEntity
  8
DEFAULT_3
100
AcDbLine
 62
2
  6
PHANTOM
 10
271.6561220584
 20
52.7937229931
 30
0.0
 11
271.6561220584
 21
54.3766347977
 31
0.0
  0
ARC
  5
2E8
100
AcDbEntity
  8
DEFAULT_3
100
AcDbCircle
 62
2
  6
PHANTOM
 10
270.337028888
 20
54.3766347977
 30
0.0
 40
1.3190931704
100
AcDbArc
 50
0.0
 51
90.0
  0
LINE
  5
2E9
100
AcDbEntity
  8
DEFAULT_3
100
AcDbLine
 62
2
  6
PHANTOM
 10
270.337028888
 20
55.6957279681
 30
0.0
 11
265.3244748404
 21
55.6957279681
 31
0.0
  0
LINE
  5
2EA
100
AcDbEntity
  8
DEFAULT_3
100
AcDbLine
 62
2
  6
PHANTOM
 10
265.3244748404
 20
55.6957279681
 30
0.0
 11
265.3244748404
 21
49.8917180182
 31
0.0
  0
LINE
  5
2EB
100
AcDbEntity
  8
DEFAULT_3
100
AcDbLine
 62
2
  6
PHANTOM
 10
265.3244748404
 20
49.8917180182
 30
0.0
 11
267.9626611812
 21
49.8917180182
 31
0.0
  0
LINE
  5
2EC
100
AcDbEntity
  8
DEFAULT_3
100
AcDbLine
 62
2
  6
PHANTOM
 10
267.9626611812
 20
49.8917180182
 30
0.0
 11
267.9626611812
 21
51.4746298227
 31
0.0
  0
LINE
  5
2ED
100
AcDbEntity
  8
DEFAULT_3
100
AcDbLine
 62
2
  6
PHANTOM
 10
267.9626611812
 20
51.4746298227
 30
0.0
 11
268.8765557377
 21
49.8917180182
 31
0.0
  0
LINE
  5
2EE
100
AcDbEntity
  8
DEFAULT_3
100
AcDbLine
 62
2
  6
PHANTOM
 10
268.6222077664
 20
53.0575416272
 30
0.0
 11
267.9626611812
 21
53.0575416272
 31
0.0
  0
LINE
  5
2EF
100
AcDbEntity
  8
DEFAULT_3
100
AcDbLine
 62
2
  6
PHANTOM
 10
267.9626611812
 20
53.0575416272
 30
0.0
 11
267.9626611812
 21
54.6404534318
 31
0.0
  0
LINE
  5
2F0
100
AcDbEntity
  8
DEFAULT_3
100
AcDbLine
 62
2
  6
PHANTOM
 10
267.9626611812
 20
54.6404534318
 30
0.0
 11
268.6222077664
 21
54.6404534318
 31
0.0
  0
ARC
  5
2F1
100
AcDbEntity
  8
DEFAULT_3
100
AcDbCircle
 62
2
  6
PHANTOM
 10
268.6222077664
 20
53.9809068465
 30
0.0
 40
0.6595465852
100
AcDbArc
 50
0.0
 51
89.9999999997
  0
LINE
  5
2F2
100
AcDbEntity
  8
DEFAULT_3
100
AcDbLine
 62
2
  6
PHANTOM
 10
269.2817543517
 20
53.9809068465
 30
0.0
 11
269.2817543517
 21
53.7170882125
 31
0.0
  0
ARC
  5
2F3
100
AcDbEntity
  8
DEFAULT_3
100
AcDbCircle
 62
2
  6
PHANTOM
 10
268.6222077664
 20
53.7170882125
 30
0.0
 40
0.6595465852
100
AcDbArc
 50
270.0
 51
360.0
  0
SOLID
  5
2F4
100
AcDbEntity
  8
DEFAULT_3
100
AcDbTrace
 62
2
  6
PHANTOM
 10
267.9626611812
 20
54.6404534318
 30
0.0
 11
271.4793970836
 21
55.0361813829
 31
0.0
 12
268.6222077664
 22
54.6404534318
 32
0.0
 13
268.6222077664
 23
54.6404534318
 33
0.0
  0
SOLID
  5
2F5
100
AcDbEntity
  8
DEFAULT_3
100
AcDbTrace
 62
2
  6
PHANTOM
 10
268.6222077664
 20
54.6404534318
 30
0.0
 11
271.4793970836
 21
55.0361813829
 31
0.0
 12
268.951981059
 22
54.5520909443
 32
0.0
 13
268.951981059
 23
54.5520909443
 33
0.0
  0
SOLID
  5
2F6
100
AcDbEntity
  8
DEFAULT_3
100
AcDbTrace
 62
2
  6
PHANTOM
 10
271.4793970836
 20
55.0361813829
 30
0.0
 11
271.6561220584
 21
54.3766347977
 31
0.0
 12
268.951981059
 22
54.5520909443
 32
0.0
 13
268.951981059
 23
54.5520909443
 33
0.0
  0
SOLID
  5
2F7
100
AcDbEntity
  8
DEFAULT_3
100
AcDbTrace
 62
2
  6
PHANTOM
 10
269.1933918642
 20
54.3106801391
 30
0.0
 11
268.951981059
 21
54.5520909443
 31
0.0
 12
271.6561220584
 22
54.3766347977
 32
0.0
 13
271.6561220584
 23
54.3766347977
 33
0.0
  0
SOLID
  5
2F8
100
AcDbEntity
  8
DEFAULT_3
100
AcDbTrace
 62
2
  6
PHANTOM
 10
269.1933918642
 20
54.3106801391
 30
0.0
 11
271.6561220584
 21
54.3766347977
 31
0.0
 12
269.2817543517
 22
53.9809068465
 32
0.0
 13
269.2817543517
 23
53.9809068465
 33
0.0
  0
SOLID
  5
2F9
100
AcDbEntity
  8
DEFAULT_3
100
AcDbTrace
 62
2
  6
PHANTOM
 10
269.2817543517
 20
53.9809068465
 30
0.0
 11
271.6561220584
 21
54.3766347977
 31
0.0
 12
269.2817543517
 22
53.7170882125
 32
0.0
 13
269.2817543517
 23
53.7170882125
 33
0.0
  0
SOLID
  5
2FA
100
AcDbEntity
  8
DEFAULT_3
100
AcDbTrace
 62
2
  6
PHANTOM
 10
269.2817543517
 20
53.7170882125
 30
0.0
 11
271.6561220584
 21
54.3766347977
 31
0.0
 12
269.1933918642
 22
53.3873149198
 32
0.0
 13
269.1933918642
 23
53.3873149198
 33
0.0
  0
SOLID
  5
2FB
100
AcDbEntity
  8
DEFAULT_3
100
AcDbTrace
 62
2
  6
PHANTOM
 10
269.1933918642
 20
53.3873149198
 30
0.0
 11
271.6561220584
 21
54.3766347977
 31
0.0
 12
268.951981059
 22
53.1459041147
 32
0.0
 13
268.951981059
 23
53.1459041147
 33
0.0
  0
SOLID
  5
2FC
100
AcDbEntity
  8
DEFAULT_3
100
AcDbTrace
 62
2
  6
PHANTOM
 10
268.6222077664
 20
53.0575416272
 30
0.0
 11
268.951981059
 21
53.1459041147
 31
0.0
 12
271.6561220584
 22
52.7937229931
 32
0.0
 13
271.6561220584
 23
52.7937229931
 33
0.0
  0
SOLID
  5
2FD
100
AcDbEntity
  8
DEFAULT_3
100
AcDbTrace
 62
2
  6
PHANTOM
 10
271.6561220584
 20
54.3766347977
 30
0.0
 11
271.6561220584
 21
52.7937229931
 31
0.0
 12
268.951981059
 22
53.1459041147
 32
0.0
 13
268.951981059
 23
53.1459041147
 33
0.0
  0
SOLID
  5
2FE
100
AcDbEntity
  8
DEFAULT_3
100
AcDbTrace
 62
2
  6
PHANTOM
 10
270.7109831105
 20
51.5287466962
 30
0.0
 11
267.9626611812
 21
51.4746298227
 31
0.0
 12
271.202070566
 22
51.7978767763
 32
0.0
 13
271.202070566
 23
51.7978767763
 33
0.0
  0
SOLID
  5
2FF
100
AcDbEntity
  8
DEFAULT_3
100
AcDbTrace
 62
2
  6
PHANTOM
 10
271.202070566
 20
51.7978767763
 30
0.0
 11
267.9626611812
 21
51.4746298227
 31
0.0
 12
271.5372533174
 22
52.2464861967
 32
0.0
 13
271.5372533174
 23
52.2464861967
 33
0.0
  0
SOLID
  5
300
100
AcDbEntity
  8
DEFAULT_3
100
AcDbTrace
 62
2
  6
PHANTOM
 10
271.5372533174
 20
52.2464861967
 30
0.0
 11
267.9626611812
 21
51.4746298227
 31
0.0
 12
271.6561220584
 22
52.7937229931
 32
0.0
 13
271.6561220584
 23
52.7937229931
 33
0.0
  0
SOLID
  5
301
100
AcDbEntity
  8
DEFAULT_3
100
AcDbTrace
 62
2
  6
PHANTOM
 10
271.6561220584
 20
52.7937229931
 30
0.0
 11
267.9626611812
 21
51.4746298227
 31
0.0
 12
268.6222077664
 22
53.0575416272
 32
0.0
 13
268.6222077664
 23
53.0575416272
 33
0.0
  0
SOLID
  5
302
100
AcDbEntity
  8
DEFAULT_3
100
AcDbTrace
 62
2
  6
PHANTOM
 10
267.9626611812
 20
51.4746298227
 30
0.0
 11
265.3244748404
 21
49.8917180182
 31
0.0
 12
268.6222077664
 22
53.0575416272
 32
0.0
 13
268.6222077664
 23
53.0575416272
 33
0.0
  0
SOLID
  5
303
100
AcDbEntity
  8
DEFAULT_3
100
AcDbTrace
 62
2
  6
PHANTOM
 10
268.6222077664
 20
53.0575416272
 30
0.0
 11
265.3244748404
 21
49.8917180182
 31
0.0
 12
267.9626611812
 22
53.0575416272
 32
0.0
 13
267.9626611812
 23
53.0575416272
 33
0.0
  0
SOLID
  5
304
100
AcDbEntity
  8
DEFAULT_3
100
AcDbTrace
 62
2
  6
PHANTOM
 10
267.9626611812
 20
53.0575416272
 30
0.0
 11
265.3244748404
 21
49.8917180182
 31
0.0
 12
267.9626611812
 22
54.6404534318
 32
0.0
 13
267.9626611812
 23
54.6404534318
 33
0.0
  0
SOLID
  5
305
100
AcDbEntity
  8
DEFAULT_3
100
AcDbTrace
 62
2
  6
PHANTOM
 10
271.4793970836
 20
55.0361813829
 30
0.0
 11
267.9626611812
 21
54.6404534318
 31
0.0
 12
270.9965754732
 22
55.5190029932
 32
0.0
 13
270.9965754732
 23
55.5190029932
 33
0.0
  0
SOLID
  5
306
100
AcDbEntity
  8
DEFAULT_3
100
AcDbTrace
 62
2
  6
PHANTOM
 10
270.9965754732
 20
55.5190029932
 30
0.0
 11
267.9626611812
 21
54.6404534318
 31
0.0
 12
270.337028888
 22
55.6957279681
 32
0.0
 13
270.337028888
 23
55.6957279681
 33
0.0
  0
SOLID
  5
307
100
AcDbEntity
  8
DEFAULT_3
100
AcDbTrace
 62
2
  6
PHANTOM
 10
270.337028888
 20
55.6957279681
 30
0.0
 11
267.9626611812
 21
54.6404534318
 31
0.0
 12
265.3244748404
 22
55.6957279681
 32
0.0
 13
265.3244748404
 23
55.6957279681
 33
0.0
  0
SOLID
  5
308
100
AcDbEntity
  8
DEFAULT_3
100
AcDbTrace
 62
2
  6
PHANTOM
 10
265.3244748404
 20
49.8917180182
 30
0.0
 11
265.3244748404
 21
55.6957279681
 31
0.0
 12
267.9626611812
 22
54.6404534318
 32
0.0
 13
267.9626611812
 23
54.6404534318
 33
0.0
  0
SOLID
  5
309
100
AcDbEntity
  8
DEFAULT_3
100
AcDbTrace
 62
2
  6
PHANTOM
 10
267.9626611812
 20
51.4746298227
 30
0.0
 11
267.9626611812
 21
49.8917180182
 31
0.0
 12
265.3244748404
 22
49.8917180182
 32
0.0
 13
265.3244748404
 23
49.8917180182
 33
0.0
  0
SOLID
  5
30A
100
AcDbEntity
  8
DEFAULT_3
100
AcDbTrace
 62
2
  6
PHANTOM
 10
267.9626611812
 20
51.4746298227
 30
0.0
 11
270.7109831105
 21
51.5287466962
 31
0.0
 12
268.8765557377
 22
49.8917180182
 32
0.0
 13
268.8765557377
 23
49.8917180182
 33
0.0
  0
SOLID
  5
30B
100
AcDbEntity
  8
DEFAULT_3
100
AcDbTrace
 62
2
  6
PHANTOM
 10
270.7109831105
 20
51.5287466962
 30
0.0
 11
271.6561220584
 21
49.8917180182
 31
0.0
 12
268.8765557377
 22
49.8917180182
 32
0.0
 13
268.8765557377
 23
49.8917180182
 33
0.0
  0
LINE
  5
30C
100
AcDbEntity
  8
DEFAULT_3
100
AcDbLine
 62
2
  6
PHANTOM
 10
268.8765557377
 20
49.8917180182
 30
0.0
 11
271.6561220584
 21
49.8917180182
 31
0.0
  0
LINE
  5
30D
100
AcDbEntity
  8
DEFAULT_3
100
AcDbLine
 62
2
  6
PHANTOM
 10
271.6561220584
 20
49.8917180182
 30
0.0
 11
270.7109831105
 21
51.5287466962
 31
0.0
  0
ARC
  5
30E
100
AcDbEntity
  8
DEFAULT_3
100
AcDbCircle
 62
2
  6
PHANTOM
 10
270.337028888
 20
52.7937229931
 30
0.0
 40
1.3190931704
100
AcDbArc
 50
286.4688135525
 51
360.0
  0
LINE
  5
30F
100
AcDbEntity
  8
DEFAULT_3
100
AcDbLine
 62
2
  6
PHANTOM
 10
271.6561220584
 20
52.7937229931
 30
0.0
 11
271.6561220584
 21
54.3766347977
 31
0.0
  0
ARC
  5
310
100
AcDbEntity
  8
DEFAULT_3
100
AcDbCircle
 62
2
  6
PHANTOM
 10
270.337028888
 20
54.3766347977
 30
0.0
 40
1.3190931704
100
AcDbArc
 50
0.0
 51
90.0
  0
LINE
  5
311
100
AcDbEntity
  8
DEFAULT_3
100
AcDbLine
 62
2
  6
PHANTOM
 10
270.337028888
 20
55.6957279681
 30
0.0
 11
265.3244748404
 21
55.6957279681
 31
0.0
  0
LINE
  5
312
100
AcDbEntity
  8
DEFAULT_3
100
AcDbLine
 62
2
  6
PHANTOM
 10
265.3244748404
 20
55.6957279681
 30
0.0
 11
265.3244748404
 21
49.8917180182
 31
0.0
  0
LINE
  5
313
100
AcDbEntity
  8
DEFAULT_3
100
AcDbLine
 62
2
  6
PHANTOM
 10
265.3244748404
 20
49.8917180182
 30
0.0
 11
267.9626611812
 21
49.8917180182
 31
0.0
  0
LINE
  5
314
100
AcDbEntity
  8
DEFAULT_3
100
AcDbLine
 62
2
  6
PHANTOM
 10
267.9626611812
 20
49.8917180182
 30
0.0
 11
267.9626611812
 21
51.4746298227
 31
0.0
  0
LINE
  5
315
100
AcDbEntity
  8
DEFAULT_3
100
AcDbLine
 62
2
  6
PHANTOM
 10
267.9626611812
 20
51.4746298227
 30
0.0
 11
268.8765557377
 21
49.8917180182
 31
0.0
  0
LINE
  5
316
100
AcDbEntity
  8
DEFAULT_3
100
AcDbLine
 62
2
  6
PHANTOM
 10
268.6222077664
 20
53.0575416272
 30
0.0
 11
267.9626611812
 21
53.0575416272
 31
0.0
  0
LINE
  5
317
100
AcDbEntity
  8
DEFAULT_3
100
AcDbLine
 62
2
  6
PHANTOM
 10
267.9626611812
 20
53.0575416272
 30
0.0
 11
267.9626611812
 21
54.6404534318
 31
0.0
  0
LINE
  5
318
100
AcDbEntity
  8
DEFAULT_3
100
AcDbLine
 62
2
  6
PHANTOM
 10
267.9626611812
 20
54.6404534318
 30
0.0
 11
268.6222077664
 21
54.6404534318
 31
0.0
  0
ARC
  5
319
100
AcDbEntity
  8
DEFAULT_3
100
AcDbCircle
 62
2
  6
PHANTOM
 10
268.6222077664
 20
53.9809068465
 30
0.0
 40
0.6595465852
100
AcDbArc
 50
0.0
 51
89.9999999997
  0
LINE
  5
31A
100
AcDbEntity
  8
DEFAULT_3
100
AcDbLine
 62
2
  6
PHANTOM
 10
269.2817543517
 20
53.9809068465
 30
0.0
 11
269.2817543517
 21
53.7170882125
 31
0.0
  0
ARC
  5
31B
100
AcDbEntity
  8
DEFAULT_3
100
AcDbCircle
 62
2
  6
PHANTOM
 10
268.6222077664
 20
53.7170882125
 30
0.0
 40
0.6595465852
100
AcDbArc
 50
270.0
 51
360.0
  0
SOLID
  5
31C
100
AcDbEntity
  8
DEFAULT_3
100
AcDbTrace
 62
2
  6
PHANTOM
 10
267.9626611812
 20
54.6404534318
 30
0.0
 11
271.4793970836
 21
55.0361813829
 31
0.0
 12
268.6222077664
 22
54.6404534318
 32
0.0
 13
268.6222077664
 23
54.6404534318
 33
0.0
  0
SOLID
  5
31D
100
AcDbEntity
  8
DEFAULT_3
100
AcDbTrace
 62
2
  6
PHANTOM
 10
268.6222077664
 20
54.6404534318
 30
0.0
 11
271.4793970836
 21
55.0361813829
 31
0.0
 12
268.951981059
 22
54.5520909443
 32
0.0
 13
268.951981059
 23
54.5520909443
 33
0.0
  0
SOLID
  5
31E
100
AcDbEntity
  8
DEFAULT_3
100
AcDbTrace
 62
2
  6
PHANTOM
 10
271.4793970836
 20
55.0361813829
 30
0.0
 11
271.6561220584
 21
54.3766347977
 31
0.0
 12
268.951981059
 22
54.5520909443
 32
0.0
 13
268.951981059
 23
54.5520909443
 33
0.0
  0
SOLID
  5
31F
100
AcDbEntity
  8
DEFAULT_3
100
AcDbTrace
 62
2
  6
PHANTOM
 10
269.1933918642
 20
54.3106801391
 30
0.0
 11
268.951981059
 21
54.5520909443
 31
0.0
 12
271.6561220584
 22
54.3766347977
 32
0.0
 13
271.6561220584
 23
54.3766347977
 33
0.0
  0
SOLID
  5
320
100
AcDbEntity
  8
DEFAULT_3
100
AcDbTrace
 62
2
  6
PHANTOM
 10
269.1933918642
 20
54.3106801391
 30
0.0
 11
271.6561220584
 21
54.3766347977
 31
0.0
 12
269.2817543517
 22
53.9809068465
 32
0.0
 13
269.2817543517
 23
53.9809068465
 33
0.0
  0
SOLID
  5
321
100
AcDbEntity
  8
DEFAULT_3
100
AcDbTrace
 62
2
  6
PHANTOM
 10
269.2817543517
 20
53.9809068465
 30
0.0
 11
271.6561220584
 21
54.3766347977
 31
0.0
 12
269.2817543517
 22
53.7170882125
 32
0.0
 13
269.2817543517
 23
53.7170882125
 33
0.0
  0
SOLID
  5
322
100
AcDbEntity
  8
DEFAULT_3
100
AcDbTrace
 62
2
  6
PHANTOM
 10
269.2817543517
 20
53.7170882125
 30
0.0
 11
271.6561220584
 21
54.3766347977
 31
0.0
 12
269.1933918642
 22
53.3873149198
 32
0.0
 13
269.1933918642
 23
53.3873149198
 33
0.0
  0
SOLID
  5
323
100
AcDbEntity
  8
DEFAULT_3
100
AcDbTrace
 62
2
  6
PHANTOM
 10
269.1933918642
 20
53.3873149198
 30
0.0
 11
271.6561220584
 21
54.3766347977
 31
0.0
 12
268.951981059
 22
53.1459041147
 32
0.0
 13
268.951981059
 23
53.1459041147
 33
0.0
  0
SOLID
  5
324
100
AcDbEntity
  8
DEFAULT_3
100
AcDbTrace
 62
2
  6
PHANTOM
 10
268.6222077664
 20
53.0575416272
 30
0.0
 11
268.951981059
 21
53.1459041147
 31
0.0
 12
271.6561220584
 22
52.7937229931
 32
0.0
 13
271.6561220584
 23
52.7937229931
 33
0.0
  0
SOLID
  5
325
100
AcDbEntity
  8
DEFAULT_3
100
AcDbTrace
 62
2
  6
PHANTOM
 10
271.6561220584
 20
54.3766347977
 30
0.0
 11
271.6561220584
 21
52.7937229931
 31
0.0
 12
268.951981059
 22
53.1459041147
 32
0.0
 13
268.951981059
 23
53.1459041147
 33
0.0
  0
SOLID
  5
326
100
AcDbEntity
  8
DEFAULT_3
100
AcDbTrace
 62
2
  6
PHANTOM
 10
270.7109831105
 20
51.5287466962
 30
0.0
 11
267.9626611812
 21
51.4746298227
 31
0.0
 12
271.202070566
 22
51.7978767763
 32
0.0
 13
271.202070566
 23
51.7978767763
 33
0.0
  0
SOLID
  5
327
100
AcDbEntity
  8
DEFAULT_3
100
AcDbTrace
 62
2
  6
PHANTOM
 10
271.202070566
 20
51.7978767763
 30
0.0
 11
267.9626611812
 21
51.4746298227
 31
0.0
 12
271.5372533174
 22
52.2464861967
 32
0.0
 13
271.5372533174
 23
52.2464861967
 33
0.0
  0
SOLID
  5
328
100
AcDbEntity
  8
DEFAULT_3
100
AcDbTrace
 62
2
  6
PHANTOM
 10
271.5372533174
 20
52.2464861967
 30
0.0
 11
267.9626611812
 21
51.4746298227
 31
0.0
 12
271.6561220584
 22
52.7937229931
 32
0.0
 13
271.6561220584
 23
52.7937229931
 33
0.0
  0
SOLID
  5
329
100
AcDbEntity
  8
DEFAULT_3
100
AcDbTrace
 62
2
  6
PHANTOM
 10
271.6561220584
 20
52.7937229931
 30
0.0
 11
267.9626611812
 21
51.4746298227
 31
0.0
 12
268.6222077664
 22
53.0575416272
 32
0.0
 13
268.6222077664
 23
53.0575416272
 33
0.0
  0
SOLID
  5
32A
100
AcDbEntity
  8
DEFAULT_3
100
AcDbTrace
 62
2
  6
PHANTOM
 10
267.9626611812
 20
51.4746298227
 30
0.0
 11
265.3244748404
 21
49.8917180182
 31
0.0
 12
268.6222077664
 22
53.0575416272
 32
0.0
 13
268.6222077664
 23
53.0575416272
 33
0.0
  0
SOLID
  5
32B
100
AcDbEntity
  8
DEFAULT_3
100
AcDbTrace
 62
2
  6
PHANTOM
 10
268.6222077664
 20
53.0575416272
 30
0.0
 11
265.3244748404
 21
49.8917180182
 31
0.0
 12
267.9626611812
 22
53.0575416272
 32
0.0
 13
267.9626611812
 23
53.0575416272
 33
0.0
  0
SOLID
  5
32C
100
AcDbEntity
  8
DEFAULT_3
100
AcDbTrace
 62
2
  6
PHANTOM
 10
267.9626611812
 20
53.0575416272
 30
0.0
 11
265.3244748404
 21
49.8917180182
 31
0.0
 12
267.9626611812
 22
54.6404534318
 32
0.0
 13
267.9626611812
 23
54.6404534318
 33
0.0
  0
SOLID
  5
32D
100
AcDbEntity
  8
DEFAULT_3
100
AcDbTrace
 62
2
  6
PHANTOM
 10
271.4793970836
 20
55.0361813829
 30
0.0
 11
267.9626611812
 21
54.6404534318
 31
0.0
 12
270.9965754732
 22
55.5190029932
 32
0.0
 13
270.9965754732
 23
55.5190029932
 33
0.0
  0
SOLID
  5
32E
100
AcDbEntity
  8
DEFAULT_3
100
AcDbTrace
 62
2
  6
PHANTOM
 10
270.9965754732
 20
55.5190029932
 30
0.0
 11
267.9626611812
 21
54.6404534318
 31
0.0
 12
270.337028888
 22
55.6957279681
 32
0.0
 13
270.337028888
 23
55.6957279681
 33
0.0
  0
SOLID
  5
32F
100
AcDbEntity
  8
DEFAULT_3
100
AcDbTrace
 62
2
  6
PHANTOM
 10
270.337028888
 20
55.6957279681
 30
0.0
 11
267.9626611812
 21
54.6404534318
 31
0.0
 12
265.3244748404
 22
55.6957279681
 32
0.0
 13
265.3244748404
 23
55.6957279681
 33
0.0
  0
SOLID
  5
330
100
AcDbEntity
  8
DEFAULT_3
100
AcDbTrace
 62
2
  6
PHANTOM
 10
265.3244748404
 20
49.8917180182
 30
0.0
 11
265.3244748404
 21
55.6957279681
 31
0.0
 12
267.9626611812
 22
54.6404534318
 32
0.0
 13
267.9626611812
 23
54.6404534318
 33
0.0
  0
SOLID
  5
331
100
AcDbEntity
  8
DEFAULT_3
100
AcDbTrace
 62
2
  6
PHANTOM
 10
267.9626611812
 20
51.4746298227
 30
0.0
 11
267.9626611812
 21
49.8917180182
 31
0.0
 12
265.3244748404
 22
49.8917180182
 32
0.0
 13
265.3244748404
 23
49.8917180182
 33
0.0
  0
SOLID
  5
332
100
AcDbEntity
  8
DEFAULT_3
100
AcDbTrace
 62
2
  6
PHANTOM
 10
267.9626611812
 20
51.4746298227
 30
0.0
 11
270.7109831105
 21
51.5287466962
 31
0.0
 12
268.8765557377
 22
49.8917180182
 32
0.0
 13
268.8765557377
 23
49.8917180182
 33
0.0
  0
SOLID
  5
333
100
AcDbEntity
  8
DEFAULT_3
100
AcDbTrace
 62
2
  6
PHANTOM
 10
270.7109831105
 20
51.5287466962
 30
0.0
 11
271.6561220584
 21
49.8917180182
 31
0.0
 12
268.8765557377
 22
49.8917180182
 32
0.0
 13
268.8765557377
 23
49.8917180182
 33
0.0
  0
LINE
  5
334
100
AcDbEntity
  8
DEFAULT_3
100
AcDbLine
 62
2
  6
PHANTOM
 10
278.6458083267
 20
54.3766347977
 30
0.0
 11
278.6458083267
 21
52.7937229931
 31
0.0
  0
ARC
  5
335
100
AcDbEntity
  8
DEFAULT_3
100
AcDbCircle
 62
2
  6
PHANTOM
 10
277.3267151563
 20
52.7937229931
 30
0.0
 40
1.3190931704
100
AcDbArc
 50
286.4688135524
 51
359.9999999999
  0
LINE
  5
336
100
AcDbEntity
  8
DEFAULT_3
100
AcDbLine
 62
2
  6
PHANTOM
 10
277.7006693788
 20
51.5287466962
 30
0.0
 11
278.6458083267
 21
49.8917180182
 31
0.0
  0
LINE
  5
337
100
AcDbEntity
  8
DEFAULT_3
100
AcDbLine
 62
2
  6
PHANTOM
 10
278.6458083267
 20
49.8917180182
 30
0.0
 11
275.8662420059
 21
49.8917180182
 31
0.0
  0
LINE
  5
338
100
AcDbEntity
  8
DEFAULT_3
100
AcDbLine
 62
2
  6
PHANTOM
 10
275.8662420059
 20
49.8917180182
 30
0.0
 11
274.9523474495
 21
51.4746298227
 31
0.0
  0
LINE
  5
339
100
AcDbEntity
  8
DEFAULT_3
100
AcDbLine
 62
2
  6
PHANTOM
 10
274.9523474495
 20
51.4746298227
 30
0.0
 11
274.9523474495
 21
49.8917180182
 31
0.0
  0
LINE
  5
33A
100
AcDbEntity
  8
DEFAULT_3
100
AcDbLine
 62
2
  6
PHANTOM
 10
274.9523474495
 20
49.8917180182
 30
0.0
 11
272.3141611086
 21
49.8917180182
 31
0.0
  0
LINE
  5
33B
100
AcDbEntity
  8
DEFAULT_3
100
AcDbLine
 62
2
  6
PHANTOM
 10
272.3141611086
 20
49.8917180182
 30
0.0
 11
272.3141611086
 21
55.6957279681
 31
0.0
  0
LINE
  5
33C
100
AcDbEntity
  8
DEFAULT_3
100
AcDbLine
 62
2
  6
PHANTOM
 10
272.3141611086
 20
55.6957279681
 30
0.0
 11
277.3267151563
 21
55.6957279681
 31
0.0
  0
ARC
  5
33D
100
AcDbEntity
  8
DEFAULT_3
100
AcDbCircle
 62
2
  6
PHANTOM
 10
277.3267151563
 20
54.3766347977
 30
0.0
 40
1.3190931704
100
AcDbArc
 50
0.0
 51
90.0
  0
ARC
  5
33E
100
AcDbEntity
  8
DEFAULT_3
100
AcDbCircle
 62
2
  6
PHANTOM
 10
275.6118940347
 20
53.9809068465
 30
0.0
 40
0.6595465852
100
AcDbArc
 50
0.0
 51
90.0
  0
LINE
  5
33F
100
AcDbEntity
  8
DEFAULT_3
100
AcDbLine
 62
2
  6
PHANTOM
 10
275.6118940347
 20
54.6404534318
 30
0.0
 11
274.9523474495
 21
54.6404534318
 31
0.0
  0
LINE
  5
340
100
AcDbEntity
  8
DEFAULT_3
100
AcDbLine
 62
2
  6
PHANTOM
 10
274.9523474495
 20
54.6404534318
 30
0.0
 11
274.9523474495
 21
53.0575416272
 31
0.0
  0
LINE
  5
341
100
AcDbEntity
  8
DEFAULT_3
100
AcDbLine
 62
2
  6
PHANTOM
 10
274.9523474495
 20
53.0575416272
 30
0.0
 11
275.6118940347
 21
53.0575416272
 31
0.0
  0
ARC
  5
342
100
AcDbEntity
  8
DEFAULT_3
100
AcDbCircle
 62
2
  6
PHANTOM
 10
275.6118940347
 20
53.7170882125
 30
0.0
 40
0.6595465852
100
AcDbArc
 50
270.0
 51
360.0
  0
LINE
  5
343
100
AcDbEntity
  8
DEFAULT_3
100
AcDbLine
 62
2
  6
PHANTOM
 10
276.2714406199
 20
53.7170882125
 30
0.0
 11
276.2714406199
 21
53.9809068465
 31
0.0
  0
SOLID
  5
344
100
AcDbEntity
  8
DEFAULT_3
100
AcDbTrace
 62
2
  6
PHANTOM
 10
277.3267151563
 20
55.6957279681
 30
0.0
 11
277.9862617415
 21
55.5190029932
 31
0.0
 12
272.3141611086
 22
55.6957279681
 32
0.0
 13
272.3141611086
 23
55.6957279681
 33
0.0
  0
SOLID
  5
345
100
AcDbEntity
  8
DEFAULT_3
100
AcDbTrace
 62
2
  6
PHANTOM
 10
274.9523474495
 20
54.6404534318
 30
0.0
 11
278.4690833518
 21
55.0361813829
 31
0.0
 12
275.6118940347
 22
54.6404534318
 32
0.0
 13
275.6118940347
 23
54.6404534318
 33
0.0
  0
SOLID
  5
346
100
AcDbEntity
  8
DEFAULT_3
100
AcDbTrace
 62
2
  6
PHANTOM
 10
275.6118940347
 20
54.6404534318
 30
0.0
 11
278.4690833518
 21
55.0361813829
 31
0.0
 12
275.9416673273
 22
54.5520909443
 32
0.0
 13
275.9416673273
 23
54.5520909443
 33
0.0
  0
SOLID
  5
347
100
AcDbEntity
  8
DEFAULT_3
100
AcDbTrace
 62
2
  6
PHANTOM
 10
278.4690833518
 20
55.0361813829
 30
0.0
 11
278.6458083267
 21
54.3766347977
 31
0.0
 12
275.9416673273
 22
54.5520909443
 32
0.0
 13
275.9416673273
 23
54.5520909443
 33
0.0
  0
SOLID
  5
348
100
AcDbEntity
  8
DEFAULT_3
100
AcDbTrace
 62
2
  6
PHANTOM
 10
276.1830781325
 20
54.3106801391
 30
0.0
 11
275.9416673273
 21
54.5520909443
 31
0.0
 12
278.6458083267
 22
54.3766347977
 32
0.0
 13
278.6458083267
 23
54.3766347977
 33
0.0
  0
SOLID
  5
349
100
AcDbEntity
  8
DEFAULT_3
100
AcDbTrace
 62
2
  6
PHANTOM
 10
276.1830781325
 20
54.3106801391
 30
0.0
 11
278.6458083267
 21
54.3766347977
 31
0.0
 12
276.2714406199
 22
53.9809068465
 32
0.0
 13
276.2714406199
 23
53.9809068465
 33
0.0
  0
SOLID
  5
34A
100
AcDbEntity
  8
DEFAULT_3
100
AcDbTrace
 62
2
  6
PHANTOM
 10
276.2714406199
 20
53.9809068465
 30
0.0
 11
278.6458083267
 21
54.3766347977
 31
0.0
 12
276.2714406199
 22
53.7170882125
 32
0.0
 13
276.2714406199
 23
53.7170882125
 33
0.0
  0
SOLID
  5
34B
100
AcDbEntity
  8
DEFAULT_3
100
AcDbTrace
 62
2
  6
PHANTOM
 10
276.2714406199
 20
53.7170882125
 30
0.0
 11
278.6458083267
 21
54.3766347977
 31
0.0
 12
276.1830781325
 22
53.3873149198
 32
0.0
 13
276.1830781325
 23
53.3873149198
 33
0.0
  0
SOLID
  5
34C
100
AcDbEntity
  8
DEFAULT_3
100
AcDbTrace
 62
2
  6
PHANTOM
 10
276.1830781325
 20
53.3873149198
 30
0.0
 11
278.6458083267
 21
54.3766347977
 31
0.0
 12
275.9416673273
 22
53.1459041147
 32
0.0
 13
275.9416673273
 23
53.1459041147
 33
0.0
  0
SOLID
  5
34D
100
AcDbEntity
  8
DEFAULT_3
100
AcDbTrace
 62
2
  6
PHANTOM
 10
275.6118940347
 20
53.0575416272
 30
0.0
 11
275.9416673273
 21
53.1459041147
 31
0.0
 12
278.6458083267
 22
52.7937229931
 32
0.0
 13
278.6458083267
 23
52.7937229931
 33
0.0
  0
SOLID
  5
34E
100
AcDbEntity
  8
DEFAULT_3
100
AcDbTrace
 62
2
  6
PHANTOM
 10
278.6458083267
 20
54.3766347977
 30
0.0
 11
278.6458083267
 21
52.7937229931
 31
0.0
 12
275.9416673273
 22
53.1459041147
 32
0.0
 13
275.9416673273
 23
53.1459041147
 33
0.0
  0
SOLID
  5
34F
100
AcDbEntity
  8
DEFAULT_3
100
AcDbTrace
 62
2
  6
PHANTOM
 10
277.7006693788
 20
51.5287466962
 30
0.0
 11
274.9523474495
 21
51.4746298227
 31
0.0
 12
278.1917568342
 22
51.7978767763
 32
0.0
 13
278.1917568342
 23
51.7978767763
 33
0.0
  0
SOLID
  5
350
100
AcDbEntity
  8
DEFAULT_3
100
AcDbTrace
 62
2
  6
PHANTOM
 10
278.1917568342
 20
51.7978767763
 30
0.0
 11
274.9523474495
 21
51.4746298227
 31
0.0
 12
278.5269395857
 22
52.2464861967
 32
0.0
 13
278.5269395857
 23
52.2464861967
 33
0.0
  0
SOLID
  5
351
100
AcDbEntity
  8
DEFAULT_3
100
AcDbTrace
 62
2
  6
PHANTOM
 10
278.5269395857
 20
52.2464861967
 30
0.0
 11
274.9523474495
 21
51.4746298227
 31
0.0
 12
278.6458083267
 22
52.7937229931
 32
0.0
 13
278.6458083267
 23
52.7937229931
 33
0.0
  0
SOLID
  5
352
100
AcDbEntity
  8
DEFAULT_3
100
AcDbTrace
 62
2
  6
PHANTOM
 10
278.6458083267
 20
52.7937229931
 30
0.0
 11
274.9523474495
 21
51.4746298227
 31
0.0
 12
275.6118940347
 22
53.0575416272
 32
0.0
 13
275.6118940347
 23
53.0575416272
 33
0.0
  0
SOLID
  5
353
100
AcDbEntity
  8
DEFAULT_3
100
AcDbTrace
 62
2
  6
PHANTOM
 10
274.9523474495
 20
51.4746298227
 30
0.0
 11
272.3141611086
 21
49.8917180182
 31
0.0
 12
275.6118940347
 22
53.0575416272
 32
0.0
 13
275.6118940347
 23
53.0575416272
 33
0.0
  0
SOLID
  5
354
100
AcDbEntity
  8
DEFAULT_3
100
AcDbTrace
 62
2
  6
PHANTOM
 10
275.6118940347
 20
53.0575416272
 30
0.0
 11
272.3141611086
 21
49.8917180182
 31
0.0
 12
274.9523474495
 22
53.0575416272
 32
0.0
 13
274.9523474495
 23
53.0575416272
 33
0.0
  0
SOLID
  5
355
100
AcDbEntity
  8
DEFAULT_3
100
AcDbTrace
 62
2
  6
PHANTOM
 10
274.9523474495
 20
53.0575416272
 30
0.0
 11
272.3141611086
 21
49.8917180182
 31
0.0
 12
274.9523474495
 22
54.6404534318
 32
0.0
 13
274.9523474495
 23
54.6404534318
 33
0.0
  0
SOLID
  5
356
100
AcDbEntity
  8
DEFAULT_3
100
AcDbTrace
 62
2
  6
PHANTOM
 10
278.4690833518
 20
55.0361813829
 30
0.0
 11
274.9523474495
 21
54.6404534318
 31
0.0
 12
277.9862617415
 22
55.5190029932
 32
0.0
 13
277.9862617415
 23
55.5190029932
 33
0.0
  0
SOLID
  5
357
100
AcDbEntity
  8
DEFAULT_3
100
AcDbTrace
 62
2
  6
PHANTOM
 10
277.9862617415
 20
55.5190029932
 30
0.0
 11
274.9523474495
 21
54.6404534318
 31
0.0
 12
272.3141611086
 22
55.6957279681
 32
0.0
 13
272.3141611086
 23
55.6957279681
 33
0.0
  0
SOLID
  5
358
100
AcDbEntity
  8
DEFAULT_3
100
AcDbTrace
 62
2
  6
PHANTOM
 10
272.3141611086
 20
49.8917180182
 30
0.0
 11
272.3141611086
 21
55.6957279681
 31
0.0
 12
274.9523474495
 22
54.6404534318
 32
0.0
 13
274.9523474495
 23
54.6404534318
 33
0.0
  0
SOLID
  5
359
100
AcDbEntity
  8
DEFAULT_3
100
AcDbTrace
 62
2
  6
PHANTOM
 10
274.9523474495
 20
51.4746298227
 30
0.0
 11
274.9523474495
 21
49.8917180182
 31
0.0
 12
272.3141611086
 22
49.8917180182
 32
0.0
 13
272.3141611086
 23
49.8917180182
 33
0.0
  0
SOLID
  5
35A
100
AcDbEntity
  8
DEFAULT_3
100
AcDbTrace
 62
2
  6
PHANTOM
 10
274.9523474495
 20
51.4746298227
 30
0.0
 11
277.7006693788
 21
51.5287466962
 31
0.0
 12
275.8662420059
 22
49.8917180182
 32
0.0
 13
275.8662420059
 23
49.8917180182
 33
0.0
  0
SOLID
  5
35B
100
AcDbEntity
  8
DEFAULT_3
100
AcDbTrace
 62
2
  6
PHANTOM
 10
277.7006693788
 20
51.5287466962
 30
0.0
 11
278.6458083267
 21
49.8917180182
 31
0.0
 12
275.8662420059
 22
49.8917180182
 32
0.0
 13
275.8662420059
 23
49.8917180182
 33
0.0
  0
LINE
  5
35C
100
AcDbEntity
  8
DEFAULT_3
100
AcDbLine
 62
2
  6
PHANTOM
 10
278.6458083267
 20
54.3766347977
 30
0.0
 11
278.6458083267
 21
52.7937229931
 31
0.0
  0
ARC
  5
35D
100
AcDbEntity
  8
DEFAULT_3
100
AcDbCircle
 62
2
  6
PHANTOM
 10
277.3267151563
 20
52.7937229931
 30
0.0
 40
1.3190931704
100
AcDbArc
 50
286.4688135524
 51
359.9999999999
  0
LINE
  5
35E
100
AcDbEntity
  8
DEFAULT_3
100
AcDbLine
 62
2
  6
PHANTOM
 10
277.7006693788
 20
51.5287466962
 30
0.0
 11
278.6458083267
 21
49.8917180182
 31
0.0
  0
LINE
  5
35F
100
AcDbEntity
  8
DEFAULT_3
100
AcDbLine
 62
2
  6
PHANTOM
 10
278.6458083267
 20
49.8917180182
 30
0.0
 11
275.8662420059
 21
49.8917180182
 31
0.0
  0
LINE
  5
360
100
AcDbEntity
  8
DEFAULT_3
100
AcDbLine
 62
2
  6
PHANTOM
 10
275.8662420059
 20
49.8917180182
 30
0.0
 11
274.9523474495
 21
51.4746298227
 31
0.0
  0
LINE
  5
361
100
AcDbEntity
  8
DEFAULT_3
100
AcDbLine
 62
2
  6
PHANTOM
 10
274.9523474495
 20
51.4746298227
 30
0.0
 11
274.9523474495
 21
49.8917180182
 31
0.0
  0
LINE
  5
362
100
AcDbEntity
  8
DEFAULT_3
100
AcDbLine
 62
2
  6
PHANTOM
 10
274.9523474495
 20
49.8917180182
 30
0.0
 11
272.3141611086
 21
49.8917180182
 31
0.0
  0
LINE
  5
363
100
AcDbEntity
  8
DEFAULT_3
100
AcDbLine
 62
2
  6
PHANTOM
 10
272.3141611086
 20
49.8917180182
 30
0.0
 11
272.3141611086
 21
55.6957279681
 31
0.0
  0
LINE
  5
364
100
AcDbEntity
  8
DEFAULT_3
100
AcDbLine
 62
2
  6
PHANTOM
 10
272.3141611086
 20
55.6957279681
 30
0.0
 11
277.3267151563
 21
55.6957279681
 31
0.0
  0
ARC
  5
365
100
AcDbEntity
  8
DEFAULT_3
100
AcDbCircle
 62
2
  6
PHANTOM
 10
277.3267151563
 20
54.3766347977
 30
0.0
 40
1.3190931704
100
AcDbArc
 50
0.0
 51
90.0
  0
ARC
  5
366
100
AcDbEntity
  8
DEFAULT_3
100
AcDbCircle
 62
2
  6
PHANTOM
 10
275.6118940347
 20
53.9809068465
 30
0.0
 40
0.6595465852
100
AcDbArc
 50
0.0
 51
90.0
  0
LINE
  5
367
100
AcDbEntity
  8
DEFAULT_3
100
AcDbLine
 62
2
  6
PHANTOM
 10
275.6118940347
 20
54.6404534318
 30
0.0
 11
274.9523474495
 21
54.6404534318
 31
0.0
  0
LINE
  5
368
100
AcDbEntity
  8
DEFAULT_3
100
AcDbLine
 62
2
  6
PHANTOM
 10
274.9523474495
 20
54.6404534318
 30
0.0
 11
274.9523474495
 21
53.0575416272
 31
0.0
  0
LINE
  5
369
100
AcDbEntity
  8
DEFAULT_3
100
AcDbLine
 62
2
  6
PHANTOM
 10
274.9523474495
 20
53.0575416272
 30
0.0
 11
275.6118940347
 21
53.0575416272
 31
0.0
  0
ARC
  5
36A
100
AcDbEntity
  8
DEFAULT_3
100
AcDbCircle
 62
2
  6
PHANTOM
 10
275.6118940347
 20
53.7170882125
 30
0.0
 40
0.6595465852
100
AcDbArc
 50
270.0
 51
360.0
  0
LINE
  5
36B
100
AcDbEntity
  8
DEFAULT_3
100
AcDbLine
 62
2
  6
PHANTOM
 10
276.2714406199
 20
53.7170882125
 30
0.0
 11
276.2714406199
 21
53.9809068465
 31
0.0
  0
SOLID
  5
36C
100
AcDbEntity
  8
DEFAULT_3
100
AcDbTrace
 62
2
  6
PHANTOM
 10
277.3267151563
 20
55.6957279681
 30
0.0
 11
277.9862617415
 21
55.5190029932
 31
0.0
 12
272.3141611086
 22
55.6957279681
 32
0.0
 13
272.3141611086
 23
55.6957279681
 33
0.0
  0
SOLID
  5
36D
100
AcDbEntity
  8
DEFAULT_3
100
AcDbTrace
 62
2
  6
PHANTOM
 10
274.9523474495
 20
54.6404534318
 30
0.0
 11
278.4690833518
 21
55.0361813829
 31
0.0
 12
275.6118940347
 22
54.6404534318
 32
0.0
 13
275.6118940347
 23
54.6404534318
 33
0.0
  0
SOLID
  5
36E
100
AcDbEntity
  8
DEFAULT_3
100
AcDbTrace
 62
2
  6
PHANTOM
 10
275.6118940347
 20
54.6404534318
 30
0.0
 11
278.4690833518
 21
55.0361813829
 31
0.0
 12
275.9416673273
 22
54.5520909443
 32
0.0
 13
275.9416673273
 23
54.5520909443
 33
0.0
  0
SOLID
  5
36F
100
AcDbEntity
  8
DEFAULT_3
100
AcDbTrace
 62
2
  6
PHANTOM
 10
278.4690833518
 20
55.0361813829
 30
0.0
 11
278.6458083267
 21
54.3766347977
 31
0.0
 12
275.9416673273
 22
54.5520909443
 32
0.0
 13
275.9416673273
 23
54.5520909443
 33
0.0
  0
SOLID
  5
370
100
AcDbEntity
  8
DEFAULT_3
100
AcDbTrace
 62
2
  6
PHANTOM
 10
276.1830781325
 20
54.3106801391
 30
0.0
 11
275.9416673273
 21
54.5520909443
 31
0.0
 12
278.6458083267
 22
54.3766347977
 32
0.0
 13
278.6458083267
 23
54.3766347977
 33
0.0
  0
SOLID
  5
371
100
AcDbEntity
  8
DEFAULT_3
100
AcDbTrace
 62
2
  6
PHANTOM
 10
276.1830781325
 20
54.3106801391
 30
0.0
 11
278.6458083267
 21
54.3766347977
 31
0.0
 12
276.2714406199
 22
53.9809068465
 32
0.0
 13
276.2714406199
 23
53.9809068465
 33
0.0
  0
SOLID
  5
372
100
AcDbEntity
  8
DEFAULT_3
100
AcDbTrace
 62
2
  6
PHANTOM
 10
276.2714406199
 20
53.9809068465
 30
0.0
 11
278.6458083267
 21
54.3766347977
 31
0.0
 12
276.2714406199
 22
53.7170882125
 32
0.0
 13
276.2714406199
 23
53.7170882125
 33
0.0
  0
SOLID
  5
373
100
AcDbEntity
  8
DEFAULT_3
100
AcDbTrace
 62
2
  6
PHANTOM
 10
276.2714406199
 20
53.7170882125
 30
0.0
 11
278.6458083267
 21
54.3766347977
 31
0.0
 12
276.1830781325
 22
53.3873149198
 32
0.0
 13
276.1830781325
 23
53.3873149198
 33
0.0
  0
SOLID
  5
374
100
AcDbEntity
  8
DEFAULT_3
100
AcDbTrace
 62
2
  6
PHANTOM
 10
276.1830781325
 20
53.3873149198
 30
0.0
 11
278.6458083267
 21
54.3766347977
 31
0.0
 12
275.9416673273
 22
53.1459041147
 32
0.0
 13
275.9416673273
 23
53.1459041147
 33
0.0
  0
SOLID
  5
375
100
AcDbEntity
  8
DEFAULT_3
100
AcDbTrace
 62
2
  6
PHANTOM
 10
275.6118940347
 20
53.0575416272
 30
0.0
 11
275.9416673273
 21
53.1459041147
 31
0.0
 12
278.6458083267
 22
52.7937229931
 32
0.0
 13
278.6458083267
 23
52.7937229931
 33
0.0
  0
SOLID
  5
376
100
AcDbEntity
  8
DEFAULT_3
100
AcDbTrace
 62
2
  6
PHANTOM
 10
278.6458083267
 20
54.3766347977
 30
0.0
 11
278.6458083267
 21
52.7937229931
 31
0.0
 12
275.9416673273
 22
53.1459041147
 32
0.0
 13
275.9416673273
 23
53.1459041147
 33
0.0
  0
SOLID
  5
377
100
AcDbEntity
  8
DEFAULT_3
100
AcDbTrace
 62
2
  6
PHANTOM
 10
277.7006693788
 20
51.5287466962
 30
0.0
 11
274.9523474495
 21
51.4746298227
 31
0.0
 12
278.1917568342
 22
51.7978767763
 32
0.0
 13
278.1917568342
 23
51.7978767763
 33
0.0
  0
SOLID
  5
378
100
AcDbEntity
  8
DEFAULT_3
100
AcDbTrace
 62
2
  6
PHANTOM
 10
278.1917568342
 20
51.7978767763
 30
0.0
 11
274.9523474495
 21
51.4746298227
 31
0.0
 12
278.5269395857
 22
52.2464861967
 32
0.0
 13
278.5269395857
 23
52.2464861967
 33
0.0
  0
SOLID
  5
379
100
AcDbEntity
  8
DEFAULT_3
100
AcDbTrace
 62
2
  6
PHANTOM
 10
278.5269395857
 20
52.2464861967
 30
0.0
 11
274.9523474495
 21
51.4746298227
 31
0.0
 12
278.6458083267
 22
52.7937229931
 32
0.0
 13
278.6458083267
 23
52.7937229931
 33
0.0
  0
SOLID
  5
37A
100
AcDbEntity
  8
DEFAULT_3
100
AcDbTrace
 62
2
  6
PHANTOM
 10
278.6458083267
 20
52.7937229931
 30
0.0
 11
274.9523474495
 21
51.4746298227
 31
0.0
 12
275.6118940347
 22
53.0575416272
 32
0.0
 13
275.6118940347
 23
53.0575416272
 33
0.0
  0
SOLID
  5
37B
100
AcDbEntity
  8
DEFAULT_3
100
AcDbTrace
 62
2
  6
PHANTOM
 10
274.9523474495
 20
51.4746298227
 30
0.0
 11
272.3141611086
 21
49.8917180182
 31
0.0
 12
275.6118940347
 22
53.0575416272
 32
0.0
 13
275.6118940347
 23
53.0575416272
 33
0.0
  0
SOLID
  5
37C
100
AcDbEntity
  8
DEFAULT_3
100
AcDbTrace
 62
2
  6
PHANTOM
 10
275.6118940347
 20
53.0575416272
 30
0.0
 11
272.3141611086
 21
49.8917180182
 31
0.0
 12
274.9523474495
 22
53.0575416272
 32
0.0
 13
274.9523474495
 23
53.0575416272
 33
0.0
  0
SOLID
  5
37D
100
AcDbEntity
  8
DEFAULT_3
100
AcDbTrace
 62
2
  6
PHANTOM
 10
274.9523474495
 20
53.0575416272
 30
0.0
 11
272.3141611086
 21
49.8917180182
 31
0.0
 12
274.9523474495
 22
54.6404534318
 32
0.0
 13
274.9523474495
 23
54.6404534318
 33
0.0
  0
SOLID
  5
37E
100
AcDbEntity
  8
DEFAULT_3
100
AcDbTrace
 62
2
  6
PHANTOM
 10
278.4690833518
 20
55.0361813829
 30
0.0
 11
274.9523474495
 21
54.6404534318
 31
0.0
 12
277.9862617415
 22
55.5190029932
 32
0.0
 13
277.9862617415
 23
55.5190029932
 33
0.0
  0
SOLID
  5
37F
100
AcDbEntity
  8
DEFAULT_3
100
AcDbTrace
 62
2
  6
PHANTOM
 10
277.9862617415
 20
55.5190029932
 30
0.0
 11
274.9523474495
 21
54.6404534318
 31
0.0
 12
272.3141611086
 22
55.6957279681
 32
0.0
 13
272.3141611086
 23
55.6957279681
 33
0.0
  0
SOLID
  5
380
100
AcDbEntity
  8
DEFAULT_3
100
AcDbTrace
 62
2
  6
PHANTOM
 10
272.3141611086
 20
49.8917180182
 30
0.0
 11
272.3141611086
 21
55.6957279681
 31
0.0
 12
274.9523474495
 22
54.6404534318
 32
0.0
 13
274.9523474495
 23
54.6404534318
 33
0.0
  0
SOLID
  5
381
100
AcDbEntity
  8
DEFAULT_3
100
AcDbTrace
 62
2
  6
PHANTOM
 10
274.9523474495
 20
51.4746298227
 30
0.0
 11
274.9523474495
 21
49.8917180182
 31
0.0
 12
272.3141611086
 22
49.8917180182
 32
0.0
 13
272.3141611086
 23
49.8917180182
 33
0.0
  0
SOLID
  5
382
100
AcDbEntity
  8
DEFAULT_3
100
AcDbTrace
 62
2
  6
PHANTOM
 10
274.9523474495
 20
51.4746298227
 30
0.0
 11
277.7006693788
 21
51.5287466962
 31
0.0
 12
275.8662420059
 22
49.8917180182
 32
0.0
 13
275.8662420059
 23
49.8917180182
 33
0.0
  0
SOLID
  5
383
100
AcDbEntity
  8
DEFAULT_3
100
AcDbTrace
 62
2
  6
PHANTOM
 10
277.7006693788
 20
51.5287466962
 30
0.0
 11
278.6458083267
 21
49.8917180182
 31
0.0
 12
275.8662420059
 22
49.8917180182
 32
0.0
 13
275.8662420059
 23
49.8917180182
 33
0.0
  0
LINE
  5
384
100
AcDbEntity
  8
DEFAULT_3
100
AcDbLine
 62
2
  6
PHANTOM
 10
252.9280141084
 20
55.6957279681
 30
0.0
 11
252.9280141084
 21
49.8917180182
 31
0.0
  0
LINE
  5
385
100
AcDbEntity
  8
DEFAULT_3
100
AcDbLine
 62
2
  6
PHANTOM
 10
252.9280141084
 20
49.8917180182
 30
0.0
 11
255.9619284004
 21
49.8917180182
 31
0.0
  0
LINE
  5
386
100
AcDbEntity
  8
DEFAULT_3
100
AcDbLine
 62
2
  6
PHANTOM
 10
255.9619284004
 20
49.8917180182
 30
0.0
 11
255.9619284004
 21
52.266085725
 31
0.0
  0
LINE
  5
387
100
AcDbEntity
  8
DEFAULT_3
100
AcDbLine
 62
2
  6
PHANTOM
 10
255.9619284004
 20
52.266085725
 30
0.0
 11
256.8852936197
 21
52.266085725
 31
0.0
  0
LINE
  5
388
100
AcDbEntity
  8
DEFAULT_3
100
AcDbLine
 62
2
  6
PHANTOM
 10
256.8852936197
 20
52.266085725
 30
0.0
 11
256.8852936197
 21
49.8917180182
 31
0.0
  0
LINE
  5
389
100
AcDbEntity
  8
DEFAULT_3
100
AcDbLine
 62
2
  6
PHANTOM
 10
256.8852936197
 20
49.8917180182
 30
0.0
 11
259.7872985946
 21
49.8917180182
 31
0.0
  0
LINE
  5
38A
100
AcDbEntity
  8
DEFAULT_3
100
AcDbLine
 62
2
  6
PHANTOM
 10
259.7872985946
 20
49.8917180182
 30
0.0
 11
259.7872985946
 21
55.6957279681
 31
0.0
  0
LINE
  5
38B
100
AcDbEntity
  8
DEFAULT_3
100
AcDbLine
 62
2
  6
PHANTOM
 10
259.7872985946
 20
55.6957279681
 30
0.0
 11
256.8852936197
 21
55.6957279681
 31
0.0
  0
LINE
  5
38C
100
AcDbEntity
  8
DEFAULT_3
100
AcDbLine
 62
2
  6
PHANTOM
 10
256.8852936197
 20
55.6957279681
 30
0.0
 11
256.8852936197
 21
53.5851788954
 31
0.0
  0
LINE
  5
38D
100
AcDbEntity
  8
DEFAULT_3
100
AcDbLine
 62
2
  6
PHANTOM
 10
256.8852936197
 20
53.5851788954
 30
0.0
 11
255.9619284004
 21
53.5851788954
 31
0.0
  0
LINE
  5
38E
100
AcDbEntity
  8
DEFAULT_3
100
AcDbLine
 62
2
  6
PHANTOM
 10
255.9619284004
 20
53.5851788954
 30
0.0
 11
255.9619284004
 21
55.6957279681
 31
0.0
  0
LINE
  5
38F
100
AcDbEntity
  8
DEFAULT_3
100
AcDbLine
 62
2
  6
PHANTOM
 10
255.9619284004
 20
55.6957279681
 30
0.0
 11
252.9280141084
 21
55.6957279681
 31
0.0
  0
SOLID
  5
390
100
AcDbEntity
  8
DEFAULT_3
100
AcDbTrace
 62
2
  6
PHANTOM
 10
256.8852936197
 20
53.5851788954
 30
0.0
 11
256.8852936197
 21
55.6957279681
 31
0.0
 12
259.7872985946
 22
55.6957279681
 32
0.0
 13
259.7872985946
 23
55.6957279681
 33
0.0
  0
SOLID
  5
391
100
AcDbEntity
  8
DEFAULT_3
100
AcDbTrace
 62
2
  6
PHANTOM
 10
255.9619284004
 20
52.266085725
 30
0.0
 11
252.9280141084
 21
49.8917180182
 31
0.0
 12
256.8852936197
 22
53.5851788954
 32
0.0
 13
256.8852936197
 23
53.5851788954
 33
0.0
  0
SOLID
  5
392
100
AcDbEntity
  8
DEFAULT_3
100
AcDbTrace
 62
2
  6
PHANTOM
 10
256.8852936197
 20
53.5851788954
 30
0.0
 11
252.9280141084
 21
49.8917180182
 31
0.0
 12
255.9619284004
 22
53.5851788954
 32
0.0
 13
255.9619284004
 23
53.5851788954
 33
0.0
  0
SOLID
  5
393
100
AcDbEntity
  8
DEFAULT_3
100
AcDbTrace
 62
2
  6
PHANTOM
 10
255.9619284004
 20
53.5851788954
 30
0.0
 11
252.9280141084
 21
49.8917180182
 31
0.0
 12
255.9619284004
 22
55.6957279681
 32
0.0
 13
255.9619284004
 23
55.6957279681
 33
0.0
  0
SOLID
  5
394
100
AcDbEntity
  8
DEFAULT_3
100
AcDbTrace
 62
2
  6
PHANTOM
 10
252.9280141084
 20
49.8917180182
 30
0.0
 11
252.9280141084
 21
55.6957279681
 31
0.0
 12
255.9619284004
 22
55.6957279681
 32
0.0
 13
255.9619284004
 23
55.6957279681
 33
0.0
  0
SOLID
  5
395
100
AcDbEntity
  8
DEFAULT_3
100
AcDbTrace
 62
2
  6
PHANTOM
 10
255.9619284004
 20
52.266085725
 30
0.0
 11
255.9619284004
 21
49.8917180182
 31
0.0
 12
252.9280141084
 22
49.8917180182
 32
0.0
 13
252.9280141084
 23
49.8917180182
 33
0.0
  0
SOLID
  5
396
100
AcDbEntity
  8
DEFAULT_3
100
AcDbTrace
 62
2
  6
PHANTOM
 10
256.8852936197
 20
53.5851788954
 30
0.0
 11
259.7872985946
 21
55.6957279681
 31
0.0
 12
255.9619284004
 22
52.266085725
 32
0.0
 13
255.9619284004
 23
52.266085725
 33
0.0
  0
SOLID
  5
397
100
AcDbEntity
  8
DEFAULT_3
100
AcDbTrace
 62
2
  6
PHANTOM
 10
255.9619284004
 20
52.266085725
 30
0.0
 11
259.7872985946
 21
55.6957279681
 31
0.0
 12
256.8852936197
 22
52.266085725
 32
0.0
 13
256.8852936197
 23
52.266085725
 33
0.0
  0
SOLID
  5
398
100
AcDbEntity
  8
DEFAULT_3
100
AcDbTrace
 62
2
  6
PHANTOM
 10
256.8852936197
 20
52.266085725
 30
0.0
 11
259.7872985946
 21
55.6957279681
 31
0.0
 12
256.8852936197
 22
49.8917180182
 32
0.0
 13
256.8852936197
 23
49.8917180182
 33
0.0
  0
SOLID
  5
399
100
AcDbEntity
  8
DEFAULT_3
100
AcDbTrace
 62
2
  6
PHANTOM
 10
259.7872985946
 20
55.6957279681
 30
0.0
 11
259.7872985946
 21
49.8917180182
 31
0.0
 12
256.8852936197
 22
49.8917180182
 32
0.0
 13
256.8852936197
 23
49.8917180182
 33
0.0
  0
LINE
  5
39A
100
AcDbEntity
  8
DEFAULT_3
100
AcDbLine
 62
2
  6
PHANTOM
 10
252.9280141084
 20
55.6957279681
 30
0.0
 11
252.9280141084
 21
49.8917180182
 31
0.0
  0
LINE
  5
39B
100
AcDbEntity
  8
DEFAULT_3
100
AcDbLine
 62
2
  6
PHANTOM
 10
252.9280141084
 20
49.8917180182
 30
0.0
 11
255.9619284004
 21
49.8917180182
 31
0.0
  0
LINE
  5
39C
100
AcDbEntity
  8
DEFAULT_3
100
AcDbLine
 62
2
  6
PHANTOM
 10
255.9619284004
 20
49.8917180182
 30
0.0
 11
255.9619284004
 21
52.266085725
 31
0.0
  0
LINE
  5
39D
100
AcDbEntity
  8
DEFAULT_3
100
AcDbLine
 62
2
  6
PHANTOM
 10
255.9619284004
 20
52.266085725
 30
0.0
 11
256.8852936197
 21
52.266085725
 31
0.0
  0
LINE
  5
39E
100
AcDbEntity
  8
DEFAULT_3
100
AcDbLine
 62
2
  6
PHANTOM
 10
256.8852936197
 20
52.266085725
 30
0.0
 11
256.8852936197
 21
49.8917180182
 31
0.0
  0
LINE
  5
39F
100
AcDbEntity
  8
DEFAULT_3
100
AcDbLine
 62
2
  6
PHANTOM
 10
256.8852936197
 20
49.8917180182
 30
0.0
 11
259.7872985946
 21
49.8917180182
 31
0.0
  0
LINE
  5
3A0
100
AcDbEntity
  8
DEFAULT_3
100
AcDbLine
 62
2
  6
PHANTOM
 10
259.7872985946
 20
49.8917180182
 30
0.0
 11
259.7872985946
 21
55.6957279681
 31
0.0
  0
LINE
  5
3A1
100
AcDbEntity
  8
DEFAULT_3
100
AcDbLine
 62
2
  6
PHANTOM
 10
259.7872985946
 20
55.6957279681
 30
0.0
 11
256.8852936197
 21
55.6957279681
 31
0.0
  0
LINE
  5
3A2
100
AcDbEntity
  8
DEFAULT_3
100
AcDbLine
 62
2
  6
PHANTOM
 10
256.8852936197
 20
55.6957279681
 30
0.0
 11
256.8852936197
 21
53.5851788954
 31
0.0
  0
LINE
  5
3A3
100
AcDbEntity
  8
DEFAULT_3
100
AcDbLine
 62
2
  6
PHANTOM
 10
256.8852936197
 20
53.5851788954
 30
0.0
 11
255.9619284004
 21
53.5851788954
 31
0.0
  0
LINE
  5
3A4
100
AcDbEntity
  8
DEFAULT_3
100
AcDbLine
 62
2
  6
PHANTOM
 10
255.9619284004
 20
53.5851788954
 30
0.0
 11
255.9619284004
 21
55.6957279681
 31
0.0
  0
LINE
  5
3A5
100
AcDbEntity
  8
DEFAULT_3
100
AcDbLine
 62
2
  6
PHANTOM
 10
255.9619284004
 20
55.6957279681
 30
0.0
 11
252.9280141084
 21
55.6957279681
 31
0.0
  0
SOLID
  5
3A6
100
AcDbEntity
  8
DEFAULT_3
100
AcDbTrace
 62
2
  6
PHANTOM
 10
256.8852936197
 20
53.5851788954
 30
0.0
 11
256.8852936197
 21
55.6957279681
 31
0.0
 12
259.7872985946
 22
55.6957279681
 32
0.0
 13
259.7872985946
 23
55.6957279681
 33
0.0
  0
SOLID
  5
3A7
100
AcDbEntity
  8
DEFAULT_3
100
AcDbTrace
 62
2
  6
PHANTOM
 10
255.9619284004
 20
52.266085725
 30
0.0
 11
252.9280141084
 21
49.8917180182
 31
0.0
 12
256.8852936197
 22
53.5851788954
 32
0.0
 13
256.8852936197
 23
53.5851788954
 33
0.0
  0
SOLID
  5
3A8
100
AcDbEntity
  8
DEFAULT_3
100
AcDbTrace
 62
2
  6
PHANTOM
 10
256.8852936197
 20
53.5851788954
 30
0.0
 11
252.9280141084
 21
49.8917180182
 31
0.0
 12
255.9619284004
 22
53.5851788954
 32
0.0
 13
255.9619284004
 23
53.5851788954
 33
0.0
  0
SOLID
  5
3A9
100
AcDbEntity
  8
DEFAULT_3
100
AcDbTrace
 62
2
  6
PHANTOM
 10
255.9619284004
 20
53.5851788954
 30
0.0
 11
252.9280141084
 21
49.8917180182
 31
0.0
 12
255.9619284004
 22
55.6957279681
 32
0.0
 13
255.9619284004
 23
55.6957279681
 33
0.0
  0
SOLID
  5
3AA
100
AcDbEntity
  8
DEFAULT_3
100
AcDbTrace
 62
2
  6
PHANTOM
 10
252.9280141084
 20
49.8917180182
 30
0.0
 11
252.9280141084
 21
55.6957279681
 31
0.0
 12
255.9619284004
 22
55.6957279681
 32
0.0
 13
255.9619284004
 23
55.6957279681
 33
0.0
  0
SOLID
  5
3AB
100
AcDbEntity
  8
DEFAULT_3
100
AcDbTrace
 62
2
  6
PHANTOM
 10
255.9619284004
 20
52.266085725
 30
0.0
 11
255.9619284004
 21
49.8917180182
 31
0.0
 12
252.9280141084
 22
49.8917180182
 32
0.0
 13
252.9280141084
 23
49.8917180182
 33
0.0
  0
SOLID
  5
3AC
100
AcDbEntity
  8
DEFAULT_3
100
AcDbTrace
 62
2
  6
PHANTOM
 10
256.8852936197
 20
53.5851788954
 30
0.0
 11
259.7872985946
 21
55.6957279681
 31
0.0
 12
255.9619284004
 22
52.266085725
 32
0.0
 13
255.9619284004
 23
52.266085725
 33
0.0
  0
SOLID
  5
3AD
100
AcDbEntity
  8
DEFAULT_3
100
AcDbTrace
 62
2
  6
PHANTOM
 10
255.9619284004
 20
52.266085725
 30
0.0
 11
259.7872985946
 21
55.6957279681
 31
0.0
 12
256.8852936197
 22
52.266085725
 32
0.0
 13
256.8852936197
 23
52.266085725
 33
0.0
  0
SOLID
  5
3AE
100
AcDbEntity
  8
DEFAULT_3
100
AcDbTrace
 62
2
  6
PHANTOM
 10
256.8852936197
 20
52.266085725
 30
0.0
 11
259.7872985946
 21
55.6957279681
 31
0.0
 12
256.8852936197
 22
49.8917180182
 32
0.0
 13
256.8852936197
 23
49.8917180182
 33
0.0
  0
SOLID
  5
3AF
100
AcDbEntity
  8
DEFAULT_3
100
AcDbTrace
 62
2
  6
PHANTOM
 10
259.7872985946
 20
55.6957279681
 30
0.0
 11
259.7872985946
 21
49.8917180182
 31
0.0
 12
256.8852936197
 22
49.8917180182
 32
0.0
 13
256.8852936197
 23
49.8917180182
 33
0.0
  0
LINE
  5
3B0
100
AcDbEntity
  8
DEFAULT_3
100
AcDbLine
 62
2
  6
PHANTOM
 10
260.4453376448
 20
55.6957279681
 30
0.0
 11
260.4453376448
 21
49.8917180182
 31
0.0
  0
LINE
  5
3B1
100
AcDbEntity
  8
DEFAULT_3
100
AcDbLine
 62
2
  6
PHANTOM
 10
260.4453376448
 20
49.8917180182
 30
0.0
 11
264.6664357902
 21
49.8917180182
 31
0.0
  0
LINE
  5
3B2
100
AcDbEntity
  8
DEFAULT_3
100
AcDbLine
 62
2
  6
PHANTOM
 10
264.6664357902
 20
49.8917180182
 30
0.0
 11
264.6664357902
 21
51.2108111886
 31
0.0
  0
LINE
  5
3B3
100
AcDbEntity
  8
DEFAULT_3
100
AcDbLine
 62
2
  6
PHANTOM
 10
264.6664357902
 20
51.2108111886
 30
0.0
 11
263.3473426198
 21
51.2108111886
 31
0.0
  0
LINE
  5
3B4
100
AcDbEntity
  8
DEFAULT_3
100
AcDbLine
 62
2
  6
PHANTOM
 10
263.3473426198
 20
51.2108111886
 30
0.0
 11
263.3473426198
 21
52.397995042
 31
0.0
  0
LINE
  5
3B5
100
AcDbEntity
  8
DEFAULT_3
100
AcDbLine
 62
2
  6
PHANTOM
 10
263.3473426198
 20
52.397995042
 30
0.0
 11
264.6664357902
 21
52.397995042
 31
0.0
  0
LINE
  5
3B6
100
AcDbEntity
  8
DEFAULT_3
100
AcDbLine
 62
2
  6
PHANTOM
 10
264.6664357902
 20
52.397995042
 30
0.0
 11
264.6664357902
 21
53.4532695784
 31
0.0
  0
LINE
  5
3B7
100
AcDbEntity
  8
DEFAULT_3
100
AcDbLine
 62
2
  6
PHANTOM
 10
264.6664357902
 20
53.4532695784
 30
0.0
 11
263.3473426198
 21
53.4532695784
 31
0.0
  0
LINE
  5
3B8
100
AcDbEntity
  8
DEFAULT_3
100
AcDbLine
 62
2
  6
PHANTOM
 10
263.3473426198
 20
53.4532695784
 30
0.0
 11
263.3473426198
 21
54.6404534318
 31
0.0
  0
LINE
  5
3B9
100
AcDbEntity
  8
DEFAULT_3
100
AcDbLine
 62
2
  6
PHANTOM
 10
263.3473426198
 20
54.6404534318
 30
0.0
 11
264.6664357902
 21
54.6404534318
 31
0.0
  0
LINE
  5
3BA
100
AcDbEntity
  8
DEFAULT_3
100
AcDbLine
 62
2
  6
PHANTOM
 10
264.6664357902
 20
54.6404534318
 30
0.0
 11
264.6664357902
 21
55.6957279681
 31
0.0
  0
LINE
  5
3BB
100
AcDbEntity
  8
DEFAULT_3
100
AcDbLine
 62
2
  6
PHANTOM
 10
264.6664357902
 20
55.6957279681
 30
0.0
 11
260.4453376448
 21
55.6957279681
 31
0.0
  0
SOLID
  5
3BC
100
AcDbEntity
  8
DEFAULT_3
100
AcDbTrace
 62
2
  6
PHANTOM
 10
264.6664357902
 20
55.6957279681
 30
0.0
 11
264.6664357902
 21
54.6404534318
 31
0.0
 12
263.3473426198
 22
54.6404534318
 32
0.0
 13
263.3473426198
 23
54.6404534318
 33
0.0
  0
SOLID
  5
3BD
100
AcDbEntity
  8
DEFAULT_3
100
AcDbTrace
 62
2
  6
PHANTOM
 10
264.6664357902
 20
53.4532695784
 30
0.0
 11
264.6664357902
 21
52.397995042
 31
0.0
 12
263.3473426198
 22
52.397995042
 32
0.0
 13
263.3473426198
 23
52.397995042
 33
0.0
  0
SOLID
  5
3BE
100
AcDbEntity
  8
DEFAULT_3
100
AcDbTrace
 62
2
  6
PHANTOM
 10
264.6664357902
 20
51.2108111886
 30
0.0
 11
260.4453376448
 21
49.8917180182
 31
0.0
 12
263.3473426198
 22
51.2108111886
 32
0.0
 13
263.3473426198
 23
51.2108111886
 33
0.0
  0
SOLID
  5
3BF
100
AcDbEntity
  8
DEFAULT_3
100
AcDbTrace
 62
2
  6
PHANTOM
 10
263.3473426198
 20
51.2108111886
 30
0.0
 11
260.4453376448
 21
49.8917180182
 31
0.0
 12
263.3473426198
 22
52.397995042
 32
0.0
 13
263.3473426198
 23
52.397995042
 33
0.0
  0
SOLID
  5
3C0
100
AcDbEntity
  8
DEFAULT_3
100
AcDbTrace
 62
2
  6
PHANTOM
 10
264.6664357902
 20
53.4532695784
 30
0.0
 11
263.3473426198
 21
52.397995042
 31
0.0
 12
263.3473426198
 22
53.4532695784
 32
0.0
 13
263.3473426198
 23
53.4532695784
 33
0.0
  0
SOLID
  5
3C1
100
AcDbEntity
  8
DEFAULT_3
100
AcDbTrace
 62
2
  6
PHANTOM
 10
263.3473426198
 20
52.397995042
 30
0.0
 11
260.4453376448
 21
49.8917180182
 31
0.0
 12
263.3473426198
 22
53.4532695784
 32
0.0
 13
263.3473426198
 23
53.4532695784
 33
0.0
  0
SOLID
  5
3C2
100
AcDbEntity
  8
DEFAULT_3
100
AcDbTrace
 62
2
  6
PHANTOM
 10
263.3473426198
 20
53.4532695784
 30
0.0
 11
260.4453376448
 21
49.8917180182
 31
0.0
 12
263.3473426198
 22
54.6404534318
 32
0.0
 13
263.3473426198
 23
54.6404534318
 33
0.0
  0
SOLID
  5
3C3
100
AcDbEntity
  8
DEFAULT_3
100
AcDbTrace
 62
2
  6
PHANTOM
 10
264.6664357902
 20
55.6957279681
 30
0.0
 11
263.3473426198
 21
54.6404534318
 31
0.0
 12
260.4453376448
 22
55.6957279681
 32
0.0
 13
260.4453376448
 23
55.6957279681
 33
0.0
  0
SOLID
  5
3C4
100
AcDbEntity
  8
DEFAULT_3
100
AcDbTrace
 62
2
  6
PHANTOM
 10
260.4453376448
 20
49.8917180182
 30
0.0
 11
260.4453376448
 21
55.6957279681
 31
0.0
 12
263.3473426198
 22
54.6404534318
 32
0.0
 13
263.3473426198
 23
54.6404534318
 33
0.0
  0
SOLID
  5
3C5
100
AcDbEntity
  8
DEFAULT_3
100
AcDbTrace
 62
2
  6
PHANTOM
 10
264.6664357902
 20
51.2108111886
 30
0.0
 11
264.6664357902
 21
49.8917180182
 31
0.0
 12
260.4453376448
 22
49.8917180182
 32
0.0
 13
260.4453376448
 23
49.8917180182
 33
0.0
  0
LINE
  5
3C6
100
AcDbEntity
  8
DEFAULT_3
100
AcDbLine
 62
2
  6
PHANTOM
 10
260.4453376448
 20
55.6957279681
 30
0.0
 11
260.4453376448
 21
49.8917180182
 31
0.0
  0
LINE
  5
3C7
100
AcDbEntity
  8
DEFAULT_3
100
AcDbLine
 62
2
  6
PHANTOM
 10
260.4453376448
 20
49.8917180182
 30
0.0
 11
264.6664357902
 21
49.8917180182
 31
0.0
  0
LINE
  5
3C8
100
AcDbEntity
  8
DEFAULT_3
100
AcDbLine
 62
2
  6
PHANTOM
 10
264.6664357902
 20
49.8917180182
 30
0.0
 11
264.6664357902
 21
51.2108111886
 31
0.0
  0
LINE
  5
3C9
100
AcDbEntity
  8
DEFAULT_3
100
AcDbLine
 62
2
  6
PHANTOM
 10
264.6664357902
 20
51.2108111886
 30
0.0
 11
263.3473426198
 21
51.2108111886
 31
0.0
  0
LINE
  5
3CA
100
AcDbEntity
  8
DEFAULT_3
100
AcDbLine
 62
2
  6
PHANTOM
 10
263.3473426198
 20
51.2108111886
 30
0.0
 11
263.3473426198
 21
52.397995042
 31
0.0
  0
LINE
  5
3CB
100
AcDbEntity
  8
DEFAULT_3
100
AcDbLine
 62
2
  6
PHANTOM
 10
263.3473426198
 20
52.397995042
 30
0.0
 11
264.6664357902
 21
52.397995042
 31
0.0
  0
LINE
  5
3CC
100
AcDbEntity
  8
DEFAULT_3
100
AcDbLine
 62
2
  6
PHANTOM
 10
264.6664357902
 20
52.397995042
 30
0.0
 11
264.6664357902
 21
53.4532695784
 31
0.0
  0
LINE
  5
3CD
100
AcDbEntity
  8
DEFAULT_3
100
AcDbLine
 62
2
  6
PHANTOM
 10
264.6664357902
 20
53.4532695784
 30
0.0
 11
263.3473426198
 21
53.4532695784
 31
0.0
  0
LINE
  5
3CE
100
AcDbEntity
  8
DEFAULT_3
100
AcDbLine
 62
2
  6
PHANTOM
 10
263.3473426198
 20
53.4532695784
 30
0.0
 11
263.3473426198
 21
54.6404534318
 31
0.0
  0
LINE
  5
3CF
100
AcDbEntity
  8
DEFAULT_3
100
AcDbLine
 62
2
  6
PHANTOM
 10
263.3473426198
 20
54.6404534318
 30
0.0
 11
264.6664357902
 21
54.6404534318
 31
0.0
  0
LINE
  5
3D0
100
AcDbEntity
  8
DEFAULT_3
100
AcDbLine
 62
2
  6
PHANTOM
 10
264.6664357902
 20
54.6404534318
 30
0.0
 11
264.6664357902
 21
55.6957279681
 31
0.0
  0
LINE
  5
3D1
100
AcDbEntity
  8
DEFAULT_3
100
AcDbLine
 62
2
  6
PHANTOM
 10
264.6664357902
 20
55.6957279681
 30
0.0
 11
260.4453376448
 21
55.6957279681
 31
0.0
  0
SOLID
  5
3D2
100
AcDbEntity
  8
DEFAULT_3
100
AcDbTrace
 62
2
  6
PHANTOM
 10
264.6664357902
 20
55.6957279681
 30
0.0
 11
264.6664357902
 21
54.6404534318
 31
0.0
 12
263.3473426198
 22
54.6404534318
 32
0.0
 13
263.3473426198
 23
54.6404534318
 33
0.0
  0
SOLID
  5
3D3
100
AcDbEntity
  8
DEFAULT_3
100
AcDbTrace
 62
2
  6
PHANTOM
 10
264.6664357902
 20
53.4532695784
 30
0.0
 11
264.6664357902
 21
52.397995042
 31
0.0
 12
263.3473426198
 22
52.397995042
 32
0.0
 13
263.3473426198
 23
52.397995042
 33
0.0
  0
SOLID
  5
3D4
100
AcDbEntity
  8
DEFAULT_3
100
AcDbTrace
 62
2
  6
PHANTOM
 10
264.6664357902
 20
51.2108111886
 30
0.0
 11
260.4453376448
 21
49.8917180182
 31
0.0
 12
263.3473426198
 22
51.2108111886
 32
0.0
 13
263.3473426198
 23
51.2108111886
 33
0.0
  0
SOLID
  5
3D5
100
AcDbEntity
  8
DEFAULT_3
100
AcDbTrace
 62
2
  6
PHANTOM
 10
263.3473426198
 20
51.2108111886
 30
0.0
 11
260.4453376448
 21
49.8917180182
 31
0.0
 12
263.3473426198
 22
52.397995042
 32
0.0
 13
263.3473426198
 23
52.397995042
 33
0.0
  0
SOLID
  5
3D6
100
AcDbEntity
  8
DEFAULT_3
100
AcDbTrace
 62
2
  6
PHANTOM
 10
264.6664357902
 20
53.4532695784
 30
0.0
 11
263.3473426198
 21
52.397995042
 31
0.0
 12
263.3473426198
 22
53.4532695784
 32
0.0
 13
263.3473426198
 23
53.4532695784
 33
0.0
  0
SOLID
  5
3D7
100
AcDbEntity
  8
DEFAULT_3
100
AcDbTrace
 62
2
  6
PHANTOM
 10
263.3473426198
 20
52.397995042
 30
0.0
 11
260.4453376448
 21
49.8917180182
 31
0.0
 12
263.3473426198
 22
53.4532695784
 32
0.0
 13
263.3473426198
 23
53.4532695784
 33
0.0
  0
SOLID
  5
3D8
100
AcDbEntity
  8
DEFAULT_3
100
AcDbTrace
 62
2
  6
PHANTOM
 10
263.3473426198
 20
53.4532695784
 30
0.0
 11
260.4453376448
 21
49.8917180182
 31
0.0
 12
263.3473426198
 22
54.6404534318
 32
0.0
 13
263.3473426198
 23
54.6404534318
 33
0.0
  0
SOLID
  5
3D9
100
AcDbEntity
  8
DEFAULT_3
100
AcDbTrace
 62
2
  6
PHANTOM
 10
264.6664357902
 20
55.6957279681
 30
0.0
 11
263.3473426198
 21
54.6404534318
 31
0.0
 12
260.4453376448
 22
55.6957279681
 32
0.0
 13
260.4453376448
 23
55.6957279681
 33
0.0
  0
SOLID
  5
3DA
100
AcDbEntity
  8
DEFAULT_3
100
AcDbTrace
 62
2
  6
PHANTOM
 10
260.4453376448
 20
49.8917180182
 30
0.0
 11
260.4453376448
 21
55.6957279681
 31
0.0
 12
263.3473426198
 22
54.6404534318
 32
0.0
 13
263.3473426198
 23
54.6404534318
 33
0.0
  0
SOLID
  5
3DB
100
AcDbEntity
  8
DEFAULT_3
100
AcDbTrace
 62
2
  6
PHANTOM
 10
264.6664357902
 20
51.2108111886
 30
0.0
 11
264.6664357902
 21
49.8917180182
 31
0.0
 12
260.4453376448
 22
49.8917180182
 32
0.0
 13
260.4453376448
 23
49.8917180182
 33
0.0
  0
LINE
  5
3DC
100
AcDbEntity
  8
DEFAULT_3
100
AcDbLine
 62
2
  6
PHANTOM
 10
241.0591906446
 20
55.6957279681
 30
0.0
 11
241.0591906446
 21
49.8917180182
 31
0.0
  0
LINE
  5
3DD
100
AcDbEntity
  8
DEFAULT_3
100
AcDbLine
 62
2
  6
PHANTOM
 10
241.0591906446
 20
49.8917180182
 30
0.0
 11
245.28028879
 21
49.8917180182
 31
0.0
  0
LINE
  5
3DE
100
AcDbEntity
  8
DEFAULT_3
100
AcDbLine
 62
2
  6
PHANTOM
 10
245.28028879
 20
49.8917180182
 30
0.0
 11
245.28028879
 21
51.2108111886
 31
0.0
  0
LINE
  5
3DF
100
AcDbEntity
  8
DEFAULT_3
100
AcDbLine
 62
2
  6
PHANTOM
 10
245.28028879
 20
51.2108111886
 30
0.0
 11
243.9611956195
 21
51.2108111886
 31
0.0
  0
LINE
  5
3E0
100
AcDbEntity
  8
DEFAULT_3
100
AcDbLine
 62
2
  6
PHANTOM
 10
243.9611956195
 20
51.2108111886
 30
0.0
 11
243.9611956195
 21
52.397995042
 31
0.0
  0
LINE
  5
3E1
100
AcDbEntity
  8
DEFAULT_3
100
AcDbLine
 62
2
  6
PHANTOM
 10
243.9611956195
 20
52.397995042
 30
0.0
 11
245.28028879
 21
52.397995042
 31
0.0
  0
LINE
  5
3E2
100
AcDbEntity
  8
DEFAULT_3
100
AcDbLine
 62
2
  6
PHANTOM
 10
245.28028879
 20
52.397995042
 30
0.0
 11
245.28028879
 21
53.4532695784
 31
0.0
  0
LINE
  5
3E3
100
AcDbEntity
  8
DEFAULT_3
100
AcDbLine
 62
2
  6
PHANTOM
 10
245.28028879
 20
53.4532695784
 30
0.0
 11
243.9611956195
 21
53.4532695784
 31
0.0
  0
LINE
  5
3E4
100
AcDbEntity
  8
DEFAULT_3
100
AcDbLine
 62
2
  6
PHANTOM
 10
243.9611956195
 20
53.4532695784
 30
0.0
 11
243.9611956195
 21
54.6404534318
 31
0.0
  0
LINE
  5
3E5
100
AcDbEntity
  8
DEFAULT_3
100
AcDbLine
 62
2
  6
PHANTOM
 10
243.9611956195
 20
54.6404534318
 30
0.0
 11
245.28028879
 21
54.6404534318
 31
0.0
  0
LINE
  5
3E6
100
AcDbEntity
  8
DEFAULT_3
100
AcDbLine
 62
2
  6
PHANTOM
 10
245.28028879
 20
54.6404534318
 30
0.0
 11
245.28028879
 21
55.6957279681
 31
0.0
  0
LINE
  5
3E7
100
AcDbEntity
  8
DEFAULT_3
100
AcDbLine
 62
2
  6
PHANTOM
 10
245.28028879
 20
55.6957279681
 30
0.0
 11
241.0591906446
 21
55.6957279681
 31
0.0
  0
SOLID
  5
3E8
100
AcDbEntity
  8
DEFAULT_3
100
AcDbTrace
 62
2
  6
PHANTOM
 10
245.28028879
 20
55.6957279681
 30
0.0
 11
245.28028879
 21
54.6404534318
 31
0.0
 12
243.9611956195
 22
54.6404534318
 32
0.0
 13
243.9611956195
 23
54.6404534318
 33
0.0
  0
SOLID
  5
3E9
100
AcDbEntity
  8
DEFAULT_3
100
AcDbTrace
 62
2
  6
PHANTOM
 10
245.28028879
 20
53.4532695784
 30
0.0
 11
245.28028879
 21
52.397995042
 31
0.0
 12
243.9611956195
 22
52.397995042
 32
0.0
 13
243.9611956195
 23
52.397995042
 33
0.0
  0
SOLID
  5
3EA
100
AcDbEntity
  8
DEFAULT_3
100
AcDbTrace
 62
2
  6
PHANTOM
 10
245.28028879
 20
51.2108111886
 30
0.0
 11
241.0591906446
 21
49.8917180182
 31
0.0
 12
243.9611956195
 22
51.2108111886
 32
0.0
 13
243.9611956195
 23
51.2108111886
 33
0.0
  0
SOLID
  5
3EB
100
AcDbEntity
  8
DEFAULT_3
100
AcDbTrace
 62
2
  6
PHANTOM
 10
243.9611956195
 20
51.2108111886
 30
0.0
 11
241.0591906446
 21
49.8917180182
 31
0.0
 12
243.9611956195
 22
52.397995042
 32
0.0
 13
243.9611956195
 23
52.397995042
 33
0.0
  0
SOLID
  5
3EC
100
AcDbEntity
  8
DEFAULT_3
100
AcDbTrace
 62
2
  6
PHANTOM
 10
245.28028879
 20
53.4532695784
 30
0.0
 11
243.9611956195
 21
52.397995042
 31
0.0
 12
243.9611956195
 22
53.4532695784
 32
0.0
 13
243.9611956195
 23
53.4532695784
 33
0.0
  0
SOLID
  5
3ED
100
AcDbEntity
  8
DEFAULT_3
100
AcDbTrace
 62
2
  6
PHANTOM
 10
243.9611956195
 20
52.397995042
 30
0.0
 11
241.0591906446
 21
49.8917180182
 31
0.0
 12
243.9611956195
 22
53.4532695784
 32
0.0
 13
243.9611956195
 23
53.4532695784
 33
0.0
  0
SOLID
  5
3EE
100
AcDbEntity
  8
DEFAULT_3
100
AcDbTrace
 62
2
  6
PHANTOM
 10
243.9611956195
 20
53.4532695784
 30
0.0
 11
241.0591906446
 21
49.8917180182
 31
0.0
 12
243.9611956195
 22
54.6404534318
 32
0.0
 13
243.9611956195
 23
54.6404534318
 33
0.0
  0
SOLID
  5
3EF
100
AcDbEntity
  8
DEFAULT_3
100
AcDbTrace
 62
2
  6
PHANTOM
 10
245.28028879
 20
55.6957279681
 30
0.0
 11
243.9611956195
 21
54.6404534318
 31
0.0
 12
241.0591906446
 22
55.6957279681
 32
0.0
 13
241.0591906446
 23
55.6957279681
 33
0.0
  0
SOLID
  5
3F0
100
AcDbEntity
  8
DEFAULT_3
100
AcDbTrace
 62
2
  6
PHANTOM
 10
241.0591906446
 20
49.8917180182
 30
0.0
 11
241.0591906446
 21
55.6957279681
 31
0.0
 12
243.9611956195
 22
54.6404534318
 32
0.0
 13
243.9611956195
 23
54.6404534318
 33
0.0
  0
SOLID
  5
3F1
100
AcDbEntity
  8
DEFAULT_3
100
AcDbTrace
 62
2
  6
PHANTOM
 10
245.28028879
 20
51.2108111886
 30
0.0
 11
245.28028879
 21
49.8917180182
 31
0.0
 12
241.0591906446
 22
49.8917180182
 32
0.0
 13
241.0591906446
 23
49.8917180182
 33
0.0
  0
LINE
  5
3F2
100
AcDbEntity
  8
DEFAULT_3
100
AcDbLine
 62
2
  6
PHANTOM
 10
241.0591906446
 20
55.6957279681
 30
0.0
 11
241.0591906446
 21
49.8917180182
 31
0.0
  0
LINE
  5
3F3
100
AcDbEntity
  8
DEFAULT_3
100
AcDbLine
 62
2
  6
PHANTOM
 10
241.0591906446
 20
49.8917180182
 30
0.0
 11
245.28028879
 21
49.8917180182
 31
0.0
  0
LINE
  5
3F4
100
AcDbEntity
  8
DEFAULT_3
100
AcDbLine
 62
2
  6
PHANTOM
 10
245.28028879
 20
49.8917180182
 30
0.0
 11
245.28028879
 21
51.2108111886
 31
0.0
  0
LINE
  5
3F5
100
AcDbEntity
  8
DEFAULT_3
100
AcDbLine
 62
2
  6
PHANTOM
 10
245.28028879
 20
51.2108111886
 30
0.0
 11
243.9611956195
 21
51.2108111886
 31
0.0
  0
LINE
  5
3F6
100
AcDbEntity
  8
DEFAULT_3
100
AcDbLine
 62
2
  6
PHANTOM
 10
243.9611956195
 20
51.2108111886
 30
0.0
 11
243.9611956195
 21
52.397995042
 31
0.0
  0
LINE
  5
3F7
100
AcDbEntity
  8
DEFAULT_3
100
AcDbLine
 62
2
  6
PHANTOM
 10
243.9611956195
 20
52.397995042
 30
0.0
 11
245.28028879
 21
52.397995042
 31
0.0
  0
LINE
  5
3F8
100
AcDbEntity
  8
DEFAULT_3
100
AcDbLine
 62
2
  6
PHANTOM
 10
245.28028879
 20
52.397995042
 30
0.0
 11
245.28028879
 21
53.4532695784
 31
0.0
  0
LINE
  5
3F9
100
AcDbEntity
  8
DEFAULT_3
100
AcDbLine
 62
2
  6
PHANTOM
 10
245.28028879
 20
53.4532695784
 30
0.0
 11
243.9611956195
 21
53.4532695784
 31
0.0
  0
LINE
  5
3FA
100
AcDbEntity
  8
DEFAULT_3
100
AcDbLine
 62
2
  6
PHANTOM
 10
243.9611956195
 20
53.4532695784
 30
0.0
 11
243.9611956195
 21
54.6404534318
 31
0.0
  0
LINE
  5
3FB
100
AcDbEntity
  8
DEFAULT_3
100
AcDbLine
 62
2
  6
PHANTOM
 10
243.9611956195
 20
54.6404534318
 30
0.0
 11
245.28028879
 21
54.6404534318
 31
0.0
  0
LINE
  5
3FC
100
AcDbEntity
  8
DEFAULT_3
100
AcDbLine
 62
2
  6
PHANTOM
 10
245.28028879
 20
54.6404534318
 30
0.0
 11
245.28028879
 21
55.6957279681
 31
0.0
  0
LINE
  5
3FD
100
AcDbEntity
  8
DEFAULT_3
100
AcDbLine
 62
2
  6
PHANTOM
 10
245.28028879
 20
55.6957279681
 30
0.0
 11
241.0591906446
 21
55.6957279681
 31
0.0
  0
SOLID
  5
3FE
100
AcDbEntity
  8
DEFAULT_3
100
AcDbTrace
 62
2
  6
PHANTOM
 10
245.28028879
 20
55.6957279681
 30
0.0
 11
245.28028879
 21
54.6404534318
 31
0.0
 12
243.9611956195
 22
54.6404534318
 32
0.0
 13
243.9611956195
 23
54.6404534318
 33
0.0
  0
SOLID
  5
3FF
100
AcDbEntity
  8
DEFAULT_3
100
AcDbTrace
 62
2
  6
PHANTOM
 10
245.28028879
 20
53.4532695784
 30
0.0
 11
245.28028879
 21
52.397995042
 31
0.0
 12
243.9611956195
 22
52.397995042
 32
0.0
 13
243.9611956195
 23
52.397995042
 33
0.0
  0
SOLID
  5
400
100
AcDbEntity
  8
DEFAULT_3
100
AcDbTrace
 62
2
  6
PHANTOM
 10
245.28028879
 20
51.2108111886
 30
0.0
 11
241.0591906446
 21
49.8917180182
 31
0.0
 12
243.9611956195
 22
51.2108111886
 32
0.0
 13
243.9611956195
 23
51.2108111886
 33
0.0
  0
SOLID
  5
401
100
AcDbEntity
  8
DEFAULT_3
100
AcDbTrace
 62
2
  6
PHANTOM
 10
243.9611956195
 20
51.2108111886
 30
0.0
 11
241.0591906446
 21
49.8917180182
 31
0.0
 12
243.9611956195
 22
52.397995042
 32
0.0
 13
243.9611956195
 23
52.397995042
 33
0.0
  0
SOLID
  5
402
100
AcDbEntity
  8
DEFAULT_3
100
AcDbTrace
 62
2
  6
PHANTOM
 10
245.28028879
 20
53.4532695784
 30
0.0
 11
243.9611956195
 21
52.397995042
 31
0.0
 12
243.9611956195
 22
53.4532695784
 32
0.0
 13
243.9611956195
 23
53.4532695784
 33
0.0
  0
SOLID
  5
403
100
AcDbEntity
  8
DEFAULT_3
100
AcDbTrace
 62
2
  6
PHANTOM
 10
243.9611956195
 20
52.397995042
 30
0.0
 11
241.0591906446
 21
49.8917180182
 31
0.0
 12
243.9611956195
 22
53.4532695784
 32
0.0
 13
243.9611956195
 23
53.4532695784
 33
0.0
  0
SOLID
  5
404
100
AcDbEntity
  8
DEFAULT_3
100
AcDbTrace
 62
2
  6
PHANTOM
 10
243.9611956195
 20
53.4532695784
 30
0.0
 11
241.0591906446
 21
49.8917180182
 31
0.0
 12
243.9611956195
 22
54.6404534318
 32
0.0
 13
243.9611956195
 23
54.6404534318
 33
0.0
  0
SOLID
  5
405
100
AcDbEntity
  8
DEFAULT_3
100
AcDbTrace
 62
2
  6
PHANTOM
 10
245.28028879
 20
55.6957279681
 30
0.0
 11
243.9611956195
 21
54.6404534318
 31
0.0
 12
241.0591906446
 22
55.6957279681
 32
0.0
 13
241.0591906446
 23
55.6957279681
 33
0.0
  0
SOLID
  5
406
100
AcDbEntity
  8
DEFAULT_3
100
AcDbTrace
 62
2
  6
PHANTOM
 10
241.0591906446
 20
49.8917180182
 30
0.0
 11
241.0591906446
 21
55.6957279681
 31
0.0
 12
243.9611956195
 22
54.6404534318
 32
0.0
 13
243.9611956195
 23
54.6404534318
 33
0.0
  0
SOLID
  5
407
100
AcDbEntity
  8
DEFAULT_3
100
AcDbTrace
 62
2
  6
PHANTOM
 10
245.28028879
 20
51.2108111886
 30
0.0
 11
245.28028879
 21
49.8917180182
 31
0.0
 12
241.0591906446
 22
49.8917180182
 32
0.0
 13
241.0591906446
 23
49.8917180182
 33
0.0
  0
LINE
  5
408
100
AcDbEntity
  8
DEFAULT_3
100
AcDbLine
 62
2
  6
PHANTOM
 10
237.4991466194
 20
55.6957279681
 30
0.0
 11
237.4991466194
 21
49.8917180182
 31
0.0
  0
LINE
  5
409
100
AcDbEntity
  8
DEFAULT_3
100
AcDbLine
 62
2
  6
PHANTOM
 10
237.4991466194
 20
49.8917180182
 30
0.0
 11
240.4011515944
 21
49.8917180182
 31
0.0
  0
LINE
  5
40A
100
AcDbEntity
  8
DEFAULT_3
100
AcDbLine
 62
2
  6
PHANTOM
 10
240.4011515944
 20
49.8917180182
 30
0.0
 11
240.4011515944
 21
55.6957279681
 31
0.0
  0
LINE
  5
40B
100
AcDbEntity
  8
DEFAULT_3
100
AcDbLine
 62
2
  6
PHANTOM
 10
240.4011515944
 20
55.6957279681
 30
0.0
 11
237.4991466194
 21
55.6957279681
 31
0.0
  0
SOLID
  5
40C
100
AcDbEntity
  8
DEFAULT_3
100
AcDbTrace
 62
2
  6
PHANTOM
 10
237.4991466194
 20
49.8917180182
 30
0.0
 11
237.4991466194
 21
55.6957279681
 31
0.0
 12
240.4011515944
 22
55.6957279681
 32
0.0
 13
240.4011515944
 23
55.6957279681
 33
0.0
  0
SOLID
  5
40D
100
AcDbEntity
  8
DEFAULT_3
100
AcDbTrace
 62
2
  6
PHANTOM
 10
240.4011515944
 20
55.6957279681
 30
0.0
 11
240.4011515944
 21
49.8917180182
 31
0.0
 12
237.4991466194
 22
49.8917180182
 32
0.0
 13
237.4991466194
 23
49.8917180182
 33
0.0
  0
LINE
  5
40E
100
AcDbEntity
  8
DEFAULT_3
100
AcDbLine
 62
2
  6
PHANTOM
 10
237.4991466194
 20
55.6957279681
 30
0.0
 11
237.4991466194
 21
49.8917180182
 31
0.0
  0
LINE
  5
40F
100
AcDbEntity
  8
DEFAULT_3
100
AcDbLine
 62
2
  6
PHANTOM
 10
237.4991466194
 20
49.8917180182
 30
0.0
 11
240.4011515944
 21
49.8917180182
 31
0.0
  0
LINE
  5
410
100
AcDbEntity
  8
DEFAULT_3
100
AcDbLine
 62
2
  6
PHANTOM
 10
240.4011515944
 20
49.8917180182
 30
0.0
 11
240.4011515944
 21
55.6957279681
 31
0.0
  0
LINE
  5
411
100
AcDbEntity
  8
DEFAULT_3
100
AcDbLine
 62
2
  6
PHANTOM
 10
240.4011515944
 20
55.6957279681
 30
0.0
 11
237.4991466194
 21
55.6957279681
 31
0.0
  0
SOLID
  5
412
100
AcDbEntity
  8
DEFAULT_3
100
AcDbTrace
 62
2
  6
PHANTOM
 10
237.4991466194
 20
49.8917180182
 30
0.0
 11
237.4991466194
 21
55.6957279681
 31
0.0
 12
240.4011515944
 22
55.6957279681
 32
0.0
 13
240.4011515944
 23
55.6957279681
 33
0.0
  0
SOLID
  5
413
100
AcDbEntity
  8
DEFAULT_3
100
AcDbTrace
 62
2
  6
PHANTOM
 10
240.4011515944
 20
55.6957279681
 30
0.0
 11
240.4011515944
 21
49.8917180182
 31
0.0
 12
237.4991466194
 22
49.8917180182
 32
0.0
 13
237.4991466194
 23
49.8917180182
 33
0.0
  0
LINE
  5
414
100
AcDbEntity
  8
DEFAULT_3
100
AcDbLine
 62
2
  6
PHANTOM
 10
232.6200094239
 20
49.8917180182
 30
0.0
 11
232.6200094239
 21
55.6957279681
 31
0.0
  0
LINE
  5
415
100
AcDbEntity
  8
DEFAULT_3
100
AcDbLine
 62
2
  6
PHANTOM
 10
232.6200094239
 20
55.6957279681
 30
0.0
 11
235.5220143988
 21
55.6957279681
 31
0.0
  0
LINE
  5
416
100
AcDbEntity
  8
DEFAULT_3
100
AcDbLine
 62
2
  6
PHANTOM
 10
235.5220143988
 20
55.6957279681
 30
0.0
 11
235.5220143988
 21
51.4746298227
 31
0.0
  0
LINE
  5
417
100
AcDbEntity
  8
DEFAULT_3
100
AcDbLine
 62
2
  6
PHANTOM
 10
235.5220143988
 20
51.4746298227
 30
0.0
 11
236.8411075693
 21
51.4746298227
 31
0.0
  0
LINE
  5
418
100
AcDbEntity
  8
DEFAULT_3
100
AcDbLine
 62
2
  6
PHANTOM
 10
236.8411075693
 20
51.4746298227
 30
0.0
 11
236.8411075693
 21
49.8917180182
 31
0.0
  0
LINE
  5
419
100
AcDbEntity
  8
DEFAULT_3
100
AcDbLine
 62
2
  6
PHANTOM
 10
236.8411075693
 20
49.8917180182
 30
0.0
 11
232.6200094239
 21
49.8917180182
 31
0.0
  0
SOLID
  5
41A
100
AcDbEntity
  8
DEFAULT_3
100
AcDbTrace
 62
2
  6
PHANTOM
 10
236.8411075693
 20
51.4746298227
 30
0.0
 11
232.6200094239
 21
49.8917180182
 31
0.0
 12
235.5220143988
 22
51.4746298227
 32
0.0
 13
235.5220143988
 23
51.4746298227
 33
0.0
  0
SOLID
  5
41B
100
AcDbEntity
  8
DEFAULT_3
100
AcDbTrace
 62
2
  6
PHANTOM
 10
235.5220143988
 20
51.4746298227
 30
0.0
 11
232.6200094239
 21
49.8917180182
 31
0.0
 12
235.5220143988
 22
55.6957279681
 32
0.0
 13
235.5220143988
 23
55.6957279681
 33
0.0
  0
SOLID
  5
41C
100
AcDbEntity
  8
DEFAULT_3
100
AcDbTrace
 62
2
  6
PHANTOM
 10
232.6200094239
 20
49.8917180182
 30
0.0
 11
232.6200094239
 21
55.6957279681
 31
0.0
 12
235.5220143988
 22
55.6957279681
 32
0.0
 13
235.5220143988
 23
55.6957279681
 33
0.0
  0
SOLID
  5
41D
100
AcDbEntity
  8
DEFAULT_3
100
AcDbTrace
 62
2
  6
PHANTOM
 10
236.8411075693
 20
51.4746298227
 30
0.0
 11
236.8411075693
 21
49.8917180182
 31
0.0
 12
232.6200094239
 22
49.8917180182
 32
0.0
 13
232.6200094239
 23
49.8917180182
 33
0.0
  0
LINE
  5
41E
100
AcDbEntity
  8
DEFAULT_3
100
AcDbLine
 62
2
  6
PHANTOM
 10
232.6200094239
 20
49.8917180182
 30
0.0
 11
232.6200094239
 21
55.6957279681
 31
0.0
  0
LINE
  5
41F
100
AcDbEntity
  8
DEFAULT_3
100
AcDbLine
 62
2
  6
PHANTOM
 10
232.6200094239
 20
55.6957279681
 30
0.0
 11
235.5220143988
 21
55.6957279681
 31
0.0
  0
LINE
  5
420
100
AcDbEntity
  8
DEFAULT_3
100
AcDbLine
 62
2
  6
PHANTOM
 10
235.5220143988
 20
55.6957279681
 30
0.0
 11
235.5220143988
 21
51.4746298227
 31
0.0
  0
LINE
  5
421
100
AcDbEntity
  8
DEFAULT_3
100
AcDbLine
 62
2
  6
PHANTOM
 10
235.5220143988
 20
51.4746298227
 30
0.0
 11
236.8411075693
 21
51.4746298227
 31
0.0
  0
LINE
  5
422
100
AcDbEntity
  8
DEFAULT_3
100
AcDbLine
 62
2
  6
PHANTOM
 10
236.8411075693
 20
51.4746298227
 30
0.0
 11
236.8411075693
 21
49.8917180182
 31
0.0
  0
LINE
  5
423
100
AcDbEntity
  8
DEFAULT_3
100
AcDbLine
 62
2
  6
PHANTOM
 10
236.8411075693
 20
49.8917180182
 30
0.0
 11
232.6200094239
 21
49.8917180182
 31
0.0
  0
SOLID
  5
424
100
AcDbEntity
  8
DEFAULT_3
100
AcDbTrace
 62
2
  6
PHANTOM
 10
236.8411075693
 20
51.4746298227
 30
0.0
 11
232.6200094239
 21
49.8917180182
 31
0.0
 12
235.5220143988
 22
51.4746298227
 32
0.0
 13
235.5220143988
 23
51.4746298227
 33
0.0
  0
SOLID
  5
425
100
AcDbEntity
  8
DEFAULT_3
100
AcDbTrace
 62
2
  6
PHANTOM
 10
235.5220143988
 20
51.4746298227
 30
0.0
 11
232.6200094239
 21
49.8917180182
 31
0.0
 12
235.5220143988
 22
55.6957279681
 32
0.0
 13
235.5220143988
 23
55.6957279681
 33
0.0
  0
SOLID
  5
426
100
AcDbEntity
  8
DEFAULT_3
100
AcDbTrace
 62
2
  6
PHANTOM
 10
232.6200094239
 20
49.8917180182
 30
0.0
 11
232.6200094239
 21
55.6957279681
 31
0.0
 12
235.5220143988
 22
55.6957279681
 32
0.0
 13
235.5220143988
 23
55.6957279681
 33
0.0
  0
SOLID
  5
427
100
AcDbEntity
  8
DEFAULT_3
100
AcDbTrace
 62
2
  6
PHANTOM
 10
236.8411075693
 20
51.4746298227
 30
0.0
 11
236.8411075693
 21
49.8917180182
 31
0.0
 12
232.6200094239
 22
49.8917180182
 32
0.0
 13
232.6200094239
 23
49.8917180182
 33
0.0
  0
LINE
  5
428
100
AcDbEntity
  8
0
100
AcDbLine
 62
2
  6
CONTINUOUS
 10
292.5
 20
121.0
 30
0.0
 11
292.5
 21
98.25
 31
0.0
  0
LINE
  5
429
100
AcDbEntity
  8
0
100
AcDbLine
 62
2
  6
CONTINUOUS
 10
230.0
 20
98.25
 30
0.0
 11
327.5
 21
98.25
 31
0.0
  0
LINE
  5
42A
100
AcDbEntity
  8
0
100
AcDbLine
 62
2
  6
CONTINUOUS
 10
268.5
 20
98.25
 30
0.0
 11
268.5
 21
121.0
 31
0.0
  0
LINE
  5
42B
100
AcDbEntity
  8
0
100
AcDbLine
 62
2
  6
CONTINUOUS
 10
327.5
 20
68.0
 30
0.0
 11
410.0
 21
68.0
 31
0.0
  0
LINE
  5
42C
100
AcDbEntity
  8
0
100
AcDbLine
 62
2
  6
CONTINUOUS
 10
327.5
 20
84.0
 30
0.0
 11
410.0
 21
84.0
 31
0.0
  0
LINE
  5
42D
100
AcDbEntity
  8
0
100
AcDbLine
 62
2
  6
CONTINUOUS
 10
327.5
 20
110.0
 30
0.0
 11
410.0
 21
110.0
 31
0.0
  0
LINE
  5
42E
100
AcDbEntity
  8
0
100
AcDbLine
 62
3
  6
CONTINUOUS
 10
410.0
 20
10.0
 30
0.0
 11
410.0
 21
121.0
 31
0.0
  0
LINE
  5
42F
100
AcDbEntity
  8
0
100
AcDbLine
 62
2
  6
CONTINUOUS
 10
390.0
 20
20.0
 30
0.0
 11
390.0
 21
34.0
 31
0.0
  0
LINE
  5
430
100
AcDbEntity
  8
0
100
AcDbLine
 62
3
  6
CONTINUOUS
 10
52.0
 20
24.5
 30
0.0
 11
52.0
 21
10.0
 31
0.0
  0
LINE
  5
431
100
AcDbEntity
  8
0
100
AcDbLine
 62
3
  6
CONTINUOUS
 10
52.0
 20
24.5
 30
0.0
 11
230.0
 21
24.5
 31
0.0
  0
LINE
  5
432
100
AcDbEntity
  8
0
100
AcDbLine
 62
2
  6
CONTINUOUS
 10
292.5
 20
84.5833333333
 30
0.0
 11
327.5
 21
84.5833333333
 31
0.0
  0
LINE
  5
433
100
AcDbEntity
  8
0
100
AcDbLine
 62
2
  6
CONTINUOUS
 10
292.5
 20
78.9166666667
 30
0.0
 11
230.0
 21
78.9166666667
 31
0.0
  0
LINE
  5
434
100
AcDbEntity
  8
0
100
AcDbLine
 62
2
  6
CONTINUOUS
 10
327.5
 20
52.0
 30
0.0
 11
410.0
 21
52.0
 31
0.0
  0
LINE
  5
435
100
AcDbEntity
  8
0
100
AcDbLine
 62
2
  6
CONTINUOUS
 10
327.5
 20
48.0
 30
0.0
 11
327.5
 21
121.0
 31
0.0
  0
LINE
  5
436
100
AcDbEntity
  8
0
100
AcDbLine
 62
2
  6
CONTINUOUS
 10
272.4086435392
 20
81.6981956786
 30
0.0
 11
288.7674460091
 21
81.6981956786
 31
0.0
  0
LINE
  5
437
100
AcDbEntity
  8
0
100
AcDbLine
 62
3
  6
CONTINUOUS
 10
230.0
 20
10.0
 30
0.0
 11
230.0
 21
121.0
 31
0.0
  0
LINE
  5
438
100
AcDbEntity
  8
0
100
AcDbLine
 62
3
  6
CONTINUOUS
 10
230.0
 20
121.0
 30
0.0
 11
410.0
 21
121.0
 31
0.0
  0
LINE
  5
439
100
AcDbEntity
  8
0
100
AcDbLine
 62
2
  6
CONTINUOUS
 10
410.0
 20
20.0
 30
0.0
 11
230.0
 21
20.0
 31
0.0
  0
LINE
  5
43A
100
AcDbEntity
  8
0
100
AcDbLine
 62
2
  6
CONTINUOUS
 10
230.0
 20
63.0
 30
0.0
 11
327.5
 21
63.0
 31
0.0
  0
LINE
  5
43B
100
AcDbEntity
  8
0
100
AcDbLine
 62
2
  6
CONTINUOUS
 10
230.0
 20
74.1559880348
 30
0.0
 11
327.5
 21
74.1559880348
 31
0.0
  0
LINE
  5
43C
100
AcDbEntity
  8
0
100
AcDbLine
 62
2
  6
CONTINUOUS
 10
292.5
 20
63.0
 30
0.0
 11
292.5
 21
69.7941075937
 31
0.0
  0
LINE
  5
43D
100
AcDbEntity
  8
0
100
AcDbLine
 62
2
  6
CONTINUOUS
 10
268.5
 20
63.0
 30
0.0
 11
268.5
 21
69.7941075937
 31
0.0
  0
LINE
  5
43E
100
AcDbEntity
  8
0
100
AcDbLine
 62
2
  6
CONTINUOUS
 10
268.5
 20
98.25
 30
0.0
 11
268.5
 21
74.1559880348
 31
0.0
  0
LINE
  5
43F
100
AcDbEntity
  8
0
100
AcDbLine
 62
2
  6
CONTINUOUS
 10
292.5
 20
98.25
 30
0.0
 11
292.5
 21
74.1559880348
 31
0.0
  0
LINE
  5
440
100
AcDbEntity
  8
0
100
AcDbLine
 62
2
  6
CONTINUOUS
 10
230.0
 20
69.7941075937
 30
0.0
 11
327.5
 21
69.7941075937
 31
0.0
  0
ENDBLK
  5
441
100
AcDbEntity
  8
0
  6
BYBLOCK
 62
0
100
AcDbBlockEnd
  0
BLOCK
  5
442
100
AcDbEntity
  8
0
100
AcDbBlockBegin
 62
2
  6
CONTINUOUS
  2
A3_ISO_5457_MARGIN_BL0
 70
64
 10
212.4700552199
 20
148.5000104527
 30
0.0
  3
A3_ISO_5457_MARGIN_BL0
  1

  0
TEXT
  5
443
100
AcDbEntity
  8
0
100
AcDbText
 62
1
  6
CONTINUOUS
 10
83.2982541541
 20
287.7649367064
 30
0.0
  7
TEXTSTYLE_2
 40
3.5
  1
2
 41
0.9761904762
 72
0
100
AcDbText
  0
TEXT
  5
444
100
AcDbEntity
  8
0
100
AcDbText
 62
1
  6
CONTINUOUS
 10
15.8514655202
 20
272.0054183771
 30
0.0
  7
TEXTSTYLE_2
 40
3.5
  1
A
 41
1.0476190476
 72
0
100
AcDbText
  0
TEXT
  5
445
100
AcDbEntity
  8
0
100
AcDbText
 62
1
  6
CONTINUOUS
 10
33.6732541541
 20
287.7649367064
 30
0.0
  7
TEXTSTYLE_2
 40
3.5
  1
1
 41
0.7619047619
 72
0
100
AcDbText
  0
TEXT
  5
446
100
AcDbEntity
  8
0
100
AcDbText
 62
1
  6
CONTINUOUS
 10
133.4232541541
 20
287.7649367064
 30
0.0
  7
TEXTSTYLE_2
 40
3.5
  1
3
 41
0.9047619048
 72
0
100
AcDbText
  0
TEXT
  5
447
100
AcDbEntity
  8
0
100
AcDbText
 62
1
  6
CONTINUOUS
 10
183.2982541541
 20
287.7649367064
 30
0.0
  7
TEXTSTYLE_2
 40
3.5
  1
4
 41
0.9761904762
 72
0
100
AcDbText
  0
TEXT
  5
448
100
AcDbEntity
  8
0
100
AcDbText
 62
1
  6
CONTINUOUS
 10
233.4232541541
 20
287.7649367064
 30
0.0
  7
TEXTSTYLE_2
 40
3.5
  1
5
 41
0.9047619048
 72
0
100
AcDbText
  0
TEXT
  5
449
100
AcDbEntity
  8
0
100
AcDbText
 62
1
  6
CONTINUOUS
 10
283.2982541541
 20
287.7649367064
 30
0.0
  7
TEXTSTYLE_2
 40
3.5
  1
6
 41
0.9761904762
 72
0
100
AcDbText
  0
TEXT
  5
44A
100
AcDbEntity
  8
0
100
AcDbText
 62
1
  6
CONTINUOUS
 10
333.2982541541
 20
287.7649367064
 30
0.0
  7
TEXTSTYLE_2
 40
3.5
  1
7
 41
0.9761904762
 72
0
100
AcDbText
  0
TEXT
  5
44B
100
AcDbEntity
  8
0
100
AcDbText
 62
1
  6
CONTINUOUS
 10
383.2982541541
 20
287.7649367064
 30
0.0
  7
TEXTSTYLE_2
 40
3.5
  1
8
 41
0.9761904762
 72
0
100
AcDbText
  0
TEXT
  5
44C
100
AcDbEntity
  8
0
100
AcDbText
 62
1
  6
CONTINUOUS
 10
15.9764655202
 20
222.0054183771
 30
0.0
  7
TEXTSTYLE_2
 40
3.5
  1
B
 41
0.9761904762
 72
0
100
AcDbText
  0
TEXT
  5
44D
100
AcDbEntity
  8
0
100
AcDbText
 62
1
  6
CONTINUOUS
 10
15.8931321869
 20
172.0054183771
 30
0.0
  7
TEXTSTYLE_2
 40
3.5
  1
C
 41
1.0238095238
 72
0
100
AcDbText
  0
TEXT
  5
44E
100
AcDbEntity
  8
0
100
AcDbText
 62
1
  6
CONTINUOUS
 10
15.7681321869
 20
122.0054183771
 30
0.0
  7
TEXTSTYLE_2
 40
3.5
  1
D
 41
1.0952380952
 72
0
100
AcDbText
  0
TEXT
  5
44F
100
AcDbEntity
  8
0
100
AcDbText
 62
1
  6
CONTINUOUS
 10
16.1014655202
 20
72.0054183771
 30
0.0
  7
TEXTSTYLE_2
 40
3.5
  1
E
 41
0.9047619048
 72
0
100
AcDbText
  0
TEXT
  5
450
100
AcDbEntity
  8
0
100
AcDbText
 62
1
  6
CONTINUOUS
 10
16.1014655202
 20
22.0054183771
 30
0.0
  7
TEXTSTYLE_2
 40
3.5
  1
F
 41
0.9047619048
 72
0
100
AcDbText
  0
TEXT
  5
451
100
AcDbEntity
  8
0
100
AcDbText
 62
1
  6
CONTINUOUS
 10
410.8514655202
 20
272.0054183771
 30
0.0
  7
TEXTSTYLE_2
 40
3.5
  1
A
 41
1.0476190476
 72
0
100
AcDbText
  0
TEXT
  5
452
100
AcDbEntity
  8
0
100
AcDbText
 62
1
  6
CONTINUOUS
 10
410.9764655202
 20
222.0054183771
 30
0.0
  7
TEXTSTYLE_2
 40
3.5
  1
B
 41
0.9761904762
 72
0
100
AcDbText
  0
TEXT
  5
453
100
AcDbEntity
  8
0
100
AcDbText
 62
1
  6
CONTINUOUS
 10
410.8931321869
 20
172.0054183771
 30
0.0
  7
TEXTSTYLE_2
 40
3.5
  1
C
 41
1.0238095238
 72
0
100
AcDbText
  0
TEXT
  5
454
100
AcDbEntity
  8
0
100
AcDbText
 62
1
  6
CONTINUOUS
 10
410.7681321869
 20
122.0054183771
 30
0.0
  7
TEXTSTYLE_2
 40
3.5
  1
D
 41
1.0952380952
 72
0
100
AcDbText
  0
TEXT
  5
455
100
AcDbEntity
  8
0
100
AcDbText
 62
1
  6
CONTINUOUS
 10
411.1014655202
 20
72.0054183771
 30
0.0
  7
TEXTSTYLE_2
 40
3.5
  1
E
 41
0.9047619048
 72
0
100
AcDbText
  0
TEXT
  5
456
100
AcDbEntity
  8
0
100
AcDbText
 62
1
  6
CONTINUOUS
 10
411.1014655202
 20
22.0054183771
 30
0.0
  7
TEXTSTYLE_2
 40
3.5
  1
F
 41
0.9047619048
 72
0
100
AcDbText
  0
TEXT
  5
457
100
AcDbEntity
  8
0
100
AcDbText
 62
1
  6
CONTINUOUS
 10
83.2982541541
 20
5.7649367064
 30
0.0
  7
TEXTSTYLE_2
 40
3.5
  1
2
 41
0.9761904762
 72
0
100
AcDbText
  0
TEXT
  5
458
100
AcDbEntity
  8
0
100
AcDbText
 62
1
  6
CONTINUOUS
 10
33.6732541541
 20
5.7649367064
 30
0.0
  7
TEXTSTYLE_2
 40
3.5
  1
1
 41
0.7619047619
 72
0
100
AcDbText
  0
TEXT
  5
459
100
AcDbEntity
  8
0
100
AcDbText
 62
1
  6
CONTINUOUS
 10
133.4232541541
 20
5.7649367064
 30
0.0
  7
TEXTSTYLE_2
 40
3.5
  1
3
 41
0.9047619048
 72
0
100
AcDbText
  0
TEXT
  5
45A
100
AcDbEntity
  8
0
100
AcDbText
 62
1
  6
CONTINUOUS
 10
183.2982541541
 20
5.7649367064
 30
0.0
  7
TEXTSTYLE_2
 40
3.5
  1
4
 41
0.9761904762
 72
0
100
AcDbText
  0
TEXT
  5
45B
100
AcDbEntity
  8
0
100
AcDbText
 62
1
  6
CONTINUOUS
 10
233.4232541541
 20
5.7649367064
 30
0.0
  7
TEXTSTYLE_2
 40
3.5
  1
5
 41
0.9047619048
 72
0
100
AcDbText
  0
TEXT
  5
45C
100
AcDbEntity
  8
0
100
AcDbText
 62
1
  6
CONTINUOUS
 10
283.2982541541
 20
5.7649367064
 30
0.0
  7
TEXTSTYLE_2
 40
3.5
  1
6
 41
0.9761904762
 72
0
100
AcDbText
  0
TEXT
  5
45D
100
AcDbEntity
  8
0
100
AcDbText
 62
1
  6
CONTINUOUS
 10
333.2982541541
 20
5.7649367064
 30
0.0
  7
TEXTSTYLE_2
 40
3.5
  1
7
 41
0.9761904762
 72
0
100
AcDbText
  0
TEXT
  5
45E
100
AcDbEntity
  8
0
100
AcDbText
 62
1
  6
CONTINUOUS
 10
383.2982541541
 20
5.7649367064
 30
0.0
  7
TEXTSTYLE_2
 40
3.5
  1
8
 41
0.9761904762
 72
0
100
AcDbText
  0
LINE
  5
45F
100
AcDbEntity
  8
0
100
AcDbLine
 62
3
  6
CONTINUOUS
 10
20.0
 20
287.0
 30
0.0
 11
410.0
 21
287.0
 31
0.0
  0
LINE
  5
460
100
AcDbEntity
  8
0
100
AcDbLine
 62
3
  6
CONTINUOUS
 10
410.0
 20
287.0200780384
 30
0.0
 11
410.0
 21
10.0200780384
 31
0.0
  0
LINE
  5
461
100
AcDbEntity
  8
0
100
AcDbLine
 62
3
  6
CONTINUOUS
 10
410.0
 20
10.0
 30
0.0
 11
20.0
 21
10.0
 31
0.0
  0
LINE
  5
462
100
AcDbEntity
  8
0
100
AcDbLine
 62
3
  6
CONTINUOUS
 10
20.0
 20
10.0
 30
0.0
 11
20.0
 21
287.0
 31
0.0
  0
LINE
  5
463
100
AcDbEntity
  8
0
100
AcDbLine
 62
2
  6
CONTINUOUS
 10
15.0
 20
292.0
 30
0.0
 11
415.0
 21
292.0
 31
0.0
  0
LINE
  5
464
100
AcDbEntity
  8
0
100
AcDbLine
 62
2
  6
CONTINUOUS
 10
415.0
 20
292.0
 30
0.0
 11
415.0
 21
5.0
 31
0.0
  0
LINE
  5
465
100
AcDbEntity
  8
0
100
AcDbLine
 62
2
  6
CONTINUOUS
 10
415.0
 20
5.0
 30
0.0
 11
15.0
 21
5.0
 31
0.0
  0
LINE
  5
466
100
AcDbEntity
  8
0
100
AcDbLine
 62
2
  6
CONTINUOUS
 10
15.0
 20
5.0
 30
0.0
 11
15.0
 21
292.0
 31
0.0
  0
LINE
  5
467
100
AcDbEntity
  8
0
100
AcDbLine
 62
3
  6
CONTINUOUS
 10
210.0110319461
 20
286.9990475519
 30
0.0
 11
210.0469389627
 21
292.0000209054
 31
0.0
  0
LINE
  5
468
100
AcDbEntity
  8
0
100
AcDbLine
 62
3
  6
CONTINUOUS
 10
410.0000050835
 20
148.508714585
 30
0.0
 11
415.007272283
 21
148.4970715142
 31
0.0
  0
LINE
  5
469
100
AcDbEntity
  8
0
100
AcDbLine
 62
3
  6
CONTINUOUS
 10
19.9998596127
 20
148.8049257042
 30
0.0
 11
9.9328381568
 21
148.8192504578
 31
0.0
  0
LINE
  5
46A
100
AcDbEntity
  8
0
100
AcDbLine
 62
3
  6
CONTINUOUS
 10
210.0
 20
5.0
 30
0.0
 11
210.0
 21
10.0
 31
0.0
  0
LINE
  5
46B
100
AcDbEntity
  8
0
100
AcDbLine
 62
2
  6
CONTINUOUS
 10
160.0
 20
292.0
 30
0.0
 11
160.0
 21
287.0
 31
0.0
  0
LINE
  5
46C
100
AcDbEntity
  8
0
100
AcDbLine
 62
2
  6
CONTINUOUS
 10
260.0
 20
292.0
 30
0.0
 11
260.0
 21
287.0
 31
0.0
  0
LINE
  5
46D
100
AcDbEntity
  8
0
100
AcDbLine
 62
2
  6
CONTINUOUS
 10
15.0
 20
98.5
 30
0.0
 11
20.0
 21
98.5
 31
0.0
  0
LINE
  5
46E
100
AcDbEntity
  8
0
100
AcDbLine
 62
2
  6
CONTINUOUS
 10
15.0
 20
198.5
 30
0.0
 11
20.0
 21
198.5
 31
0.0
  0
LINE
  5
46F
100
AcDbEntity
  8
0
100
AcDbLine
 62
2
  6
CONTINUOUS
 10
310.0
 20
292.0
 30
0.0
 11
310.0
 21
287.0
 31
0.0
  0
LINE
  5
470
100
AcDbEntity
  8
0
100
AcDbLine
 62
2
  6
CONTINUOUS
 10
360.0
 20
292.0
 30
0.0
 11
360.0
 21
287.0
 31
0.0
  0
LINE
  5
471
100
AcDbEntity
  8
0
100
AcDbLine
 62
2
  6
CONTINUOUS
 10
110.0
 20
292.0
 30
0.0
 11
110.0
 21
287.0
 31
0.0
  0
LINE
  5
472
100
AcDbEntity
  8
0
100
AcDbLine
 62
2
  6
CONTINUOUS
 10
60.0
 20
292.0
 30
0.0
 11
60.0
 21
287.0
 31
0.0
  0
LINE
  5
473
100
AcDbEntity
  8
0
100
AcDbLine
 62
2
  6
CONTINUOUS
 10
15.0
 20
248.5
 30
0.0
 11
20.0
 21
248.5
 31
0.0
  0
LINE
  5
474
100
AcDbEntity
  8
0
100
AcDbLine
 62
2
  6
CONTINUOUS
 10
15.0
 20
48.5
 30
0.0
 11
20.0
 21
48.5
 31
0.0
  0
LINE
  5
475
100
AcDbEntity
  8
0
100
AcDbLine
 62
2
  6
CONTINUOUS
 10
410.0
 20
98.5
 30
0.0
 11
415.0
 21
98.5
 31
0.0
  0
LINE
  5
476
100
AcDbEntity
  8
0
100
AcDbLine
 62
2
  6
CONTINUOUS
 10
410.0
 20
198.5
 30
0.0
 11
415.0
 21
198.5
 31
0.0
  0
LINE
  5
477
100
AcDbEntity
  8
0
100
AcDbLine
 62
2
  6
CONTINUOUS
 10
410.0
 20
248.5
 30
0.0
 11
415.0
 21
248.5
 31
0.0
  0
LINE
  5
478
100
AcDbEntity
  8
0
100
AcDbLine
 62
2
  6
CONTINUOUS
 10
410.0
 20
48.5
 30
0.0
 11
415.0
 21
48.5
 31
0.0
  0
LINE
  5
479
100
AcDbEntity
  8
0
100
AcDbLine
 62
2
  6
CONTINUOUS
 10
160.0
 20
10.0
 30
0.0
 11
160.0
 21
5.0
 31
0.0
  0
LINE
  5
47A
100
AcDbEntity
  8
0
100
AcDbLine
 62
2
  6
CONTINUOUS
 10
260.0
 20
10.0
 30
0.0
 11
260.0
 21
5.0
 31
0.0
  0
LINE
  5
47B
100
AcDbEntity
  8
0
100
AcDbLine
 62
2
  6
CONTINUOUS
 10
310.0
 20
10.0
 30
0.0
 11
310.0
 21
5.0
 31
0.0
  0
LINE
  5
47C
100
AcDbEntity
  8
0
100
AcDbLine
 62
2
  6
CONTINUOUS
 10
360.0
 20
10.0
 30
0.0
 11
360.0
 21
5.0
 31
0.0
  0
LINE
  5
47D
100
AcDbEntity
  8
0
100
AcDbLine
 62
2
  6
CONTINUOUS
 10
110.0
 20
10.0
 30
0.0
 11
110.0
 21
5.0
 31
0.0
  0
LINE
  5
47E
100
AcDbEntity
  8
0
100
AcDbLine
 62
2
  6
CONTINUOUS
 10
60.0
 20
10.0
 30
0.0
 11
60.0
 21
5.0
 31
0.0
  0
ENDBLK
  5
47F
100
AcDbEntity
  8
0
  6
BYBLOCK
 62
0
100
AcDbBlockEnd
  0
BLOCK
  5
480
100
AcDbEntity
  8
0
100
AcDbBlockBegin
  2
_FILLED
 70
64
 10
0.0
 20
0.0
 30
0.0
  3
_FILLED
  1

  0
SOLID
  5
481
100
AcDbEntity
  8
0
  6
BYBLOCK
 62
0
100
AcDbTrace
 10
0.0
 20
0.0
 30
0.0
 11
-1.0
 21
0.1428571429
 31
0.0
 12
-1.0
 22
-0.1428571429
 32
0.0
 13
-1.0
 23
-0.1428571429
 33
0.0
  0
ENDBLK
  5
482
100
AcDbEntity
  8
0
  6
BYBLOCK
 62
0
100
AcDbBlockEnd
  0
BLOCK
  5
483
100
AcDbEntity
  8
0
100
AcDbBlockBegin
 62
2
  6
CONTINUOUS
  2
*D0
 70
65
 10
0.0
 20
0.0
 30
0.0
  3
*D0
  1

  0
MTEXT
  5
484
100
AcDbEntity
  8
0
100
AcDbMText
 62
5
  6
CONTINUOUS
  7
STANDARD
 71
2
 72
1
 10
152.268384592
 20
267.5094634619
 30
0.0
 11
1.0
 21
0.0
 31
0.0
 73
2
 44
0.9
  1
778
 40
3.5
 41
7.056
  0
LINE
  5
485
100
AcDbEntity
  8
0
100
AcDbLine
 62
2
  6
CONTINUOUS
 10
74.468384592
 20
249.9954400122
 30
0.0
 11
74.468384592
 21
264.6344634619
 31
0.0
  0
LINE
  5
486
100
AcDbEntity
  8
0
100
AcDbLine
 62
2
  6
CONTINUOUS
 10
230.068384592
 20
249.9954400122
 30
0.0
 11
230.068384592
 21
264.6344634619
 31
0.0
  0
LINE
  5
487
100
AcDbEntity
  8
0
100
AcDbLine
 62
2
  6
CONTINUOUS
 10
74.468384592
 20
263.1344634619
 30
0.0
 11
152.268384592
 21
263.1344634619
 31
0.0
  0
LINE
  5
488
100
AcDbEntity
  8
0
100
AcDbLine
 62
2
  6
CONTINUOUS
 10
230.068384592
 20
263.1344634619
 30
0.0
 11
152.268384592
 21
263.1344634619
 31
0.0
  0
INSERT
  5
489
100
AcDbEntity
  8
0
100
AcDbBlockReference
 62
2
  6
CONTINUOUS
  2
_FILLED
 10
74.468384592
 20
263.1344634619
 30
0.0
 41
3.5
 42
3.5
 43
3.5
 50
180.0
  0
INSERT
  5
48A
100
AcDbEntity
  8
0
100
AcDbBlockReference
 62
2
  6
CONTINUOUS
  2
_FILLED
 10
230.068384592
 20
263.1344634619
 30
0.0
 41
3.5
 42
3.5
 43
3.5
  0
ENDBLK
  5
48B
100
AcDbEntity
  8
0
  6
BYBLOCK
 62
0
100
AcDbBlockEnd
  0
BLOCK
  5
48C
100
AcDbEntity
  8
0
100
AcDbBlockBegin
 62
2
  6
CONTINUOUS
  2
*D1
 70
65
 10
0.0
 20
0.0
 30
0.0
  3
*D1
  1

  0
MTEXT
  5
48D
100
AcDbEntity
  8
0
100
AcDbMText
 62
5
  6
CONTINUOUS
  7
STANDARD
 71
1
 72
1
 10
299.7137874172
 20
263.4188151337
 30
0.0
 11
0.0
 21
1.0
 31
0.0
 73
2
 44
0.9
  1
6
 40
3.5
 41
2.352
  0
LINE
  5
48E
100
AcDbEntity
  8
0
100
AcDbLine
 62
2
  6
CONTINUOUS
 10
287.3790783082
 20
248.7954400122
 30
0.0
 11
305.5887874172
 21
248.7954400122
 31
0.0
  0
LINE
  5
48F
100
AcDbEntity
  8
0
100
AcDbLine
 62
2
  6
CONTINUOUS
 10
287.3790783082
 20
249.9954400122
 30
0.0
 11
305.5887874172
 21
249.9954400122
 31
0.0
  0
LINE
  5
490
100
AcDbEntity
  8
0
100
AcDbLine
 62
2
  6
CONTINUOUS
 10
304.0887874172
 20
248.7954400122
 30
0.0
 11
304.0887874172
 21
241.7954400122
 31
0.0
  0
LINE
  5
491
100
AcDbEntity
  8
0
100
AcDbLine
 62
2
  6
CONTINUOUS
 10
304.0887874172
 20
241.7954400122
 30
0.0
 11
304.0887874172
 21
249.3954400122
 31
0.0
  0
LINE
  5
492
100
AcDbEntity
  8
0
100
AcDbLine
 62
2
  6
CONTINUOUS
 10
304.0887874172
 20
249.9954400122
 30
0.0
 11
304.0887874172
 21
265.7708151337
 31
0.0
  0
LINE
  5
493
100
AcDbEntity
  8
0
100
AcDbLine
 62
2
  6
CONTINUOUS
 10
304.0887874172
 20
265.7708151337
 30
0.0
 11
304.0887874172
 21
249.3954400122
 31
0.0
  0
INSERT
  5
494
100
AcDbEntity
  8
0
100
AcDbBlockReference
 62
2
  6
CONTINUOUS
  2
_FILLED
 10
304.0887874172
 20
248.7954400122
 30
0.0
 41
3.5
 42
3.5
 43
3.5
 50
90.0
  0
INSERT
  5
495
100
AcDbEntity
  8
0
100
AcDbBlockReference
 62
2
  6
CONTINUOUS
  2
_FILLED
 10
304.0887874172
 20
249.9954400122
 30
0.0
 41
3.5
 42
3.5
 43
3.5
 50
270.0
  0
ENDBLK
  5
496
100
AcDbEntity
  8
0
  6
BYBLOCK
 62
0
100
AcDbBlockEnd
  0
BLOCK
  5
497
100
AcDbEntity
  8
0
100
AcDbBlockBegin
 62
2
  6
CONTINUOUS
  2
*D2
 70
65
 10
0.0
 20
0.0
 30
0.0
  3
*D2
  1

  0
MTEXT
  5
498
100
AcDbEntity
  8
0
100
AcDbMText
 62
5
  6
CONTINUOUS
  7
STANDARD
 71
2
 72
1
 10
240.48783374
 20
202.0823146732
 30
0.0
 11
0.0
 21
1.0
 31
0.0
 73
2
 44
0.9
  1
155
 40
3.5
 41
7.056
  0
LINE
  5
499
100
AcDbEntity
  8
0
100
AcDbLine
 62
2
  6
CONTINUOUS
 10
84.468384592
 20
217.5823146732
 30
0.0
 11
246.36283374
 21
217.5823146732
 31
0.0
  0
LINE
  5
49A
100
AcDbEntity
  8
0
100
AcDbLine
 62
2
  6
CONTINUOUS
 10
151.618384592
 20
186.5823146732
 30
0.0
 11
246.36283374
 21
186.5823146732
 31
0.0
  0
LINE
  5
49B
100
AcDbEntity
  8
0
100
AcDbLine
 62
2
  6
CONTINUOUS
 10
244.86283374
 20
217.5823146732
 30
0.0
 11
244.86283374
 21
202.0823146732
 31
0.0
  0
LINE
  5
49C
100
AcDbEntity
  8
0
100
AcDbLine
 62
2
  6
CONTINUOUS
 10
244.86283374
 20
186.5823146732
 30
0.0
 11
244.86283374
 21
202.0823146732
 31
0.0
  0
INSERT
  5
49D
100
AcDbEntity
  8
0
100
AcDbBlockReference
 62
2
  6
CONTINUOUS
  2
_FILLED
 10
244.86283374
 20
217.5823146732
 30
0.0
 41
3.5
 42
3.5
 43
3.5
 50
90.0
  0
INSERT
  5
49E
100
AcDbEntity
  8
0
100
AcDbBlockReference
 62
2
  6
CONTINUOUS
  2
_FILLED
 10
244.86283374
 20
186.5823146732
 30
0.0
 41
3.5
 42
3.5
 43
3.5
 50
270.0
  0
ENDBLK
  5
49F
100
AcDbEntity
  8
0
  6
BYBLOCK
 62
0
100
AcDbBlockEnd
  0
BLOCK
  5
4A0
100
AcDbEntity
  8
0
100
AcDbBlockBegin
  2
*T1
 70
1
 10
0.0
 20
0.0
 30
0.0
  3
*T1
  1

  0
LINE
  5
4A1
100
AcDbEntity
  8
0
100
AcDbLine
 62
2
  6
CONTINUOUS
 10
0.0
 20
0.0
 30
0.0
 11
180.0
 21
0.0
 31
0.0
  0
LINE
  5
4A2
100
AcDbEntity
  8
0
100
AcDbLine
 62
2
  6
CONTINUOUS
 10
0.0
 20
0.0
 30
0.0
 11
0.0
 21
-10.0
 31
0.0
  0
LINE
  5
4A3
100
AcDbEntity
  8
0
100
AcDbLine
 62
2
  6
CONTINUOUS
 10
0.0
 20
-10.0
 30
0.0
 11
180.0
 21
-10.0
 31
0.0
  0
LINE
  5
4A4
100
AcDbEntity
  8
0
100
AcDbLine
 62
2
  6
CONTINUOUS
 10
180.0
 20
0.0
 30
0.0
 11
180.0
 21
-10.0
 31
0.0
  0
MTEXT
  5
4A5
100
AcDbEntity
  8
0
100
AcDbMText
 62
4
  6
CONTINUOUS
  7
TEXTSTYLE_4
 71
1
 72
1
 10
1.2
 20
-1.8125
 30
0.0
 11
1.0
 21
0.0
 31
0.0
 73
2
 44
0.93
  3
Pro/E model: \H2.0;0583667_008\H2.5; Version: \H2.0;.0\H2.5; \H2.0;07-Apr-25 07:35:17 AM\H2.5; Drawing version: \H2.0;.0\H2.5; \H2.0;16-Apr-25 07:27:55 AM\P\H2.5;Article number: \H2.0;0583667_008\H2.5; Version: \H2.0;&MDLPARAM_ART_VERSION\H2.5; \H2.0
  1
;&MDLPARAM_ARTICLE_MODIFIEDON
 40
2.5
 41
292.3851851852
  0
ENDBLK
  5
4A6
100
AcDbEntity
  8
0
  6
BYBLOCK
 62
0
100
AcDbBlockEnd
  0
BLOCK
  5
4A7
100
AcDbEntity
  8
0
100
AcDbBlockBegin
  2
*T2
 70
1
 10
0.0
 20
0.0
 30
0.0
  3
*T2
  1

  0
LINE
  5
4A8
100
AcDbEntity
  8
0
100
AcDbLine
 62
2
  6
CONTINUOUS
 10
0.0
 20
0.0
 30
0.0
 11
82.5
 21
0.0
 31
0.0
  0
LINE
  5
4A9
100
AcDbEntity
  8
0
100
AcDbLine
 62
2
  6
CONTINUOUS
 10
0.0
 20
0.0
 30
0.0
 11
0.0
 21
-101.00033
 31
0.0
  0
LINE
  5
4AA
100
AcDbEntity
  8
0
100
AcDbLine
 62
2
  6
CONTINUOUS
 10
0.0
 20
-53.00033
 30
0.0
 11
82.5
 21
-53.00033
 31
0.0
  0
LINE
  5
4AB
100
AcDbEntity
  8
0
100
AcDbLine
 62
2
  6
CONTINUOUS
 10
0.0
 20
-101.00033
 30
0.0
 11
82.5
 21
-101.00033
 31
0.0
  0
LINE
  5
4AC
100
AcDbEntity
  8
0
100
AcDbLine
 62
2
  6
CONTINUOUS
 10
82.5
 20
0.0
 30
0.0
 11
82.5
 21
-101.00033
 31
0.0
  0
MTEXT
  5
4AD
100
AcDbEntity
  8
0
100
AcDbMText
 62
4
  6
CONTINUOUS
  7
TEXTSTYLE_4
 71
2
 72
1
 10
41.25
 20
-41.66683
 30
0.0
 11
1.0
 21
0.0
 31
0.0
 73
2
 44
0.9
  1
S355MC
 40
3.5
 41
37.8
  0
MTEXT
  5
4AE
100
AcDbEntity
  8
0
100
AcDbMText
 62
4
  6
CONTINUOUS
  7
TEXTSTYLE_4
 71
1
 72
1
 10
1.2
 20
-79.00033
 30
0.0
 11
1.0
 21
0.0
 31
0.0
 73
2
 44
0.9
  1
 0583667_008
 40
4.0
 41
70.162962963
  0
MTEXT
  5
4AF
100
AcDbEntity
  8
0
100
AcDbMText
 62
4
  6
CONTINUOUS
  7
TEXTSTYLE_4
 71
2
 72
1
 10
72.5
 20
-79.00033
 30
0.0
 11
1.0
 21
0.0
 31
0.0
 73
2
 44
0.9
  1
000
 40
4.0
 41
18.4
  0
MTEXT
  5
4B0
100
AcDbEntity
  8
0
100
AcDbMText
 62
4
  6
CONTINUOUS
  7
TEXTSTYLE_4
 71
2
 72
1
 10
31.25
 20
-93.25033
 30
0.0
 11
1.0
 21
0.0
 31
0.0
 73
2
 44
0.9
  1
0583667_008
 40
4.0
 41
66.8740740741
  0
MTEXT
  5
4B1
100
AcDbEntity
  8
0
100
AcDbMText
 62
4
  6
CONTINUOUS
  7
TEXTSTYLE_4
 71
2
 72
1
 10
67.5
 20
-93.25033
 30
0.0
 11
1.0
 21
0.0
 31
0.0
 73
2
 44
0.9
  1
1
 40
4.0
 41
6.1333333333
  0
MTEXT
  5
4B2
100
AcDbEntity
  8
0
100
AcDbMText
 62
4
  6
CONTINUOUS
  7
TEXTSTYLE_4
 71
2
 72
1
 10
77.5
 20
-93.25033
 30
0.0
 11
1.0
 21
0.0
 31
0.0
 73
2
 44
0.9
  1
1
 40
4.0
 41
6.1333333333
  0
ENDBLK
  5
4B3
100
AcDbEntity
  8
0
  6
BYBLOCK
 62
0
100
AcDbBlockEnd
  0
BLOCK
  5
4B4
100
AcDbEntity
  8
0
100
AcDbBlockBegin
  2
*T3
 70
1
 10
0.0
 20
0.0
 30
0.0
  3
*T3
  1

  0
LINE
  5
4B5
100
AcDbEntity
  8
0
100
AcDbLine
 62
2
  6
CONTINUOUS
 10
0.0
 20
0.0
 30
0.0
 11
97.5
 21
0.0
 31
0.0
  0
LINE
  5
4B6
100
AcDbEntity
  8
0
100
AcDbLine
 62
2
  6
CONTINUOUS
 10
0.0
 20
0.0
 30
0.0
 11
0.0
 21
-101.00067
 31
0.0
  0
LINE
  5
4B7
100
AcDbEntity
  8
0
100
AcDbLine
 62
2
  6
CONTINUOUS
 10
0.0
 20
-101.00067
 30
0.0
 11
97.5
 21
-101.00067
 31
0.0
  0
LINE
  5
4B8
100
AcDbEntity
  8
0
100
AcDbLine
 62
2
  6
CONTINUOUS
 10
62.5
 20
-13.25
 30
0.0
 11
62.5
 21
-14.25
 31
0.0
  0
LINE
  5
4B9
100
AcDbEntity
  8
0
100
AcDbLine
 62
2
  6
CONTINUOUS
 10
97.5
 20
0.0
 30
0.0
 11
97.5
 21
-101.00067
 31
0.0
  0
MTEXT
  5
4BA
100
AcDbEntity
  8
0
100
AcDbMText
 62
4
  6
CONTINUOUS
  7
TEXTSTYLE_5
 71
2
 72
1
 10
19.25
 20
-8.25
 30
0.0
 11
1.0
 21
0.0
 31
0.0
 73
2
 44
0.9
  1
ISO 2768
 40
2.75
 41
32.2259259259
  0
MTEXT
  5
4BB
100
AcDbEntity
  8
0
100
AcDbMText
 62
4
  6
CONTINUOUS
  7
TEXTSTYLE_4
 71
3
 72
1
 10
61.3
 20
-10.915
 30
0.0
 11
1.0
 21
0.0
 31
0.0
 73
2
 44
0.9
  1
0,000 %
 40
1.42
 41
14.9678518519
  0
MTEXT
  5
4BC
100
AcDbEntity
  8
0
100
AcDbMText
 62
4
  6
CONTINUOUS
  7
TEXTSTYLE_3
 71
2
 72
1
 10
19.25
 20
-14.75
 30
0.0
 11
1.0
 21
0.0
 31
0.0
 73
2
 44
0.9
  1
-mK
 40
2.25
 41
11.3333333333
  0
MTEXT
  5
4BD
100
AcDbEntity
  8
0
100
AcDbMText
 62
4
  6
CONTINUOUS
  7
TEXTSTYLE_4
 71
2
 72
1
 10
50.5
 20
-17.0
 30
0.0
 11
1.0
 21
0.0
 31
0.0
 73
2
 44
0.9
  1
 4.88
 40
3.0
 41
18.7333333333
  0
MTEXT
  5
4BE
100
AcDbEntity
  8
0
100
AcDbMText
 62
4
  6
CONTINUOUS
  7
TEXTSTYLE_4
 71
2
 72
1
 10
50.5
 20
-32.5835
 30
0.0
 11
1.0
 21
0.0
 31
0.0
 73
2
 44
0.9
  1
16.04.2025
 40
2.0
 41
27.8222222222
  0
MTEXT
  5
4BF
100
AcDbEntity
  8
0
100
AcDbMText
 62
4
  6
CONTINUOUS
  7
TEXTSTYLE_4
 71
2
 72
1
 10
80.0
 20
-32.5835
 30
0.0
 11
1.0
 21
0.0
 31
0.0
 73
2
 44
0.9
  1
A.Mueller
 40
2.0
 41
23.9555555556
  0
MTEXT
  5
4C0
100
AcDbEntity
  8
0
100
AcDbMText
 62
4
  6
CONTINUOUS
  7
TEXTSTYLE_4
 71
2
 72
1
 10
48.75
 20
-59.50067
 30
0.0
 11
1.0
 21
0.0
 31
0.0
 73
2
 44
0.9
  1
VERTRAULICH/CONFIDENTIAL/CONFIDENTIEL
 40
3.0
 41
186.6444444444
  0
MTEXT
  5
4C1
100
AcDbEntity
  8
0
100
AcDbMText
 62
4
  6
CONTINUOUS
  7
TEXTSTYLE_3
 71
2
 72
1
 10
25.25
 20
-73.00067
 30
0.0
 11
1.0
 21
0.0
 31
0.0
 73
2
 44
0.9
  1
LHB
 40
6.5
 41
35.9666666667
  0
MTEXT
  5
4C2
100
AcDbEntity
  8
0
100
AcDbMText
 62
3
  6
CONTINUOUS
  7
TEXTSTYLE_6
 71
2
 72
1
 10
63.0
 20
-66.50067
 30
0.0
 11
1.0
 21
0.0
 31
0.0
 73
2
 44
0.9
  1
A3
 40
12.0
 41
40.5333333333
  0
MTEXT
  5
4C3
100
AcDbEntity
  8
0
100
AcDbMText
 62
4
  6
CONTINUOUS
  7
TEXTSTYLE_4
 71
2
 72
1
 10
86.5
 20
-71.00067
 30
0.0
 11
1.0
 21
0.0
 31
0.0
 73
2
 44
0.9
  1
1:5
 40
5.0
 41
19.4444444444
  0
MTEXT
  5
4C4
100
AcDbEntity
  8
0
100
AcDbMText
 62
4
  6
CONTINUOUS
  7
TEXTSTYLE_4
 71
1
 72
1
 10
1.2
 20
-90.47567
 30
0.0
 11
1.0
 21
0.0
 31
0.0
 73
2
 44
1.02
  1
Platte
 40
3.0
 41
21.6666666667
  0
ENDBLK
  5
4C5
100
AcDbEntity
  8
0
  6
BYBLOCK
 62
0
100
AcDbBlockEnd
  0
ENDSEC
  0
SECTION
  2
ENTITIES
  0
LINE
  5
4C6
100
AcDbEntity
  8
0
100
AcDbLine
 62
7
  6
CONTINUOUS
 10
0.0
 20
0.0
 30
0.0
 11
420.0
 21
0.0
 31
0.0
  0
LINE
  5
4C7
100
AcDbEntity
  8
0
100
AcDbLine
 62
7
  6
CONTINUOUS
 10
420.0
 20
0.0
 30
0.0
 11
420.0
 21
297.0
 31
0.0
  0
LINE
  5
4C8
100
AcDbEntity
  8
0
100
AcDbLine
 62
7
  6
CONTINUOUS
 10
0.0
 20
297.0
 30
0.0
 11
420.0
 21
297.0
 31
0.0
  0
LINE
  5
4C9
100
AcDbEntity
  8
0
100
AcDbLine
 62
7
  6
CONTINUOUS
 10
0.0
 20
0.0
 30
0.0
 11
0.0
 21
297.0
 31
0.0
  0
INSERT
  5
4CA
100
AcDbEntity
  8
0
100
AcDbBlockReference
 62
2
  6
CONTINUOUS
  2
A3_ISO_5457_MARGIN_BL0
 10
212.4700552199
 20
148.5000104527
 30
0.0
  0
INSERT
  5
4CB
100
AcDbEntity
  8
0
100
AcDbBlockReference
 62
2
  6
CONTINUOUS
  2
CARTOUCHE_BL1
 10
231.0
 20
65.5
 30
0.0
  0
LINE
  5
4CC
100
AcDbEntity
  8
0
100
AcDbLine
 62
7
  6
CONTINUOUS
 10
230.068384592
 20
248.7954400122
 30
0.0
 11
230.068384592
 21
249.9954400122
 31
0.0
  0
LINE
  5
4CD
100
AcDbEntity
  8
0
100
AcDbLine
 62
7
  6
CONTINUOUS
 10
226.068384592
 20
248.7954400122
 30
0.0
 11
226.068384592
 21
249.9954400122
 31
0.0
  0
LINE
  5
4CE
100
AcDbEntity
  8
0
100
AcDbLine
 62
7
  6
CONTINUOUS
 10
152.918384592
 20
248.7954400122
 30
0.0
 11
152.918384592
 21
249.9954400122
 31
0.0
  0
LINE
  5
4CF
100
AcDbEntity
  8
0
100
AcDbLine
 62
7
  6
CONTINUOUS
 10
78.468384592
 20
248.7954400122
 30
0.0
 11
78.468384592
 21
249.9954400122
 31
0.0
  0
LINE
  5
4D0
100
AcDbEntity
  8
0
100
AcDbLine
 62
7
  6
CONTINUOUS
 10
78.468384592
 20
248.7954400122
 30
0.0
 11
74.468384592
 21
248.7954400122
 31
0.0
  0
LINE
  5
4D1
100
AcDbEntity
  8
0
100
AcDbLine
 62
7
  6
CONTINUOUS
 10
78.468384592
 20
248.7954400122
 30
0.0
 11
151.618384592
 21
248.7954400122
 31
0.0
  0
LINE
  5
4D2
100
AcDbEntity
  8
0
100
AcDbLine
 62
7
  6
CONTINUOUS
 10
151.618384592
 20
248.7954400122
 30
0.0
 11
151.618384592
 21
249.9954400122
 31
0.0
  0
LINE
  5
4D3
100
AcDbEntity
  8
0
100
AcDbLine
 62
7
  6
CONTINUOUS
 10
152.918384592
 20
248.7954400122
 30
0.0
 11
151.618384592
 21
248.7954400122
 31
0.0
  0
LINE
  5
4D4
100
AcDbEntity
  8
0
100
AcDbLine
 62
7
  6
CONTINUOUS
 10
74.468384592
 20
248.7954400122
 30
0.0
 11
74.468384592
 21
249.9954400122
 31
0.0
  0
LINE
  5
4D5
100
AcDbEntity
  8
0
100
AcDbLine
 62
7
  6
CONTINUOUS
 10
152.918384592
 20
248.7954400122
 30
0.0
 11
226.068384592
 21
248.7954400122
 31
0.0
  0
LINE
  5
4D6
100
AcDbEntity
  8
0
100
AcDbLine
 62
7
  6
CONTINUOUS
 10
230.068384592
 20
248.7954400122
 30
0.0
 11
226.068384592
 21
248.7954400122
 31
0.0
  0
LINE
  5
4D7
100
AcDbEntity
  8
0
100
AcDbLine
 62
7
  6
CONTINUOUS
 10
78.468384592
 20
249.9954400122
 30
0.0
 11
74.468384592
 21
249.9954400122
 31
0.0
  0
LINE
  5
4D8
100
AcDbEntity
  8
0
100
AcDbLine
 62
7
  6
CONTINUOUS
 10
78.468384592
 20
249.9954400122
 30
0.0
 11
151.618384592
 21
249.9954400122
 31
0.0
  0
LINE
  5
4D9
100
AcDbEntity
  8
0
100
AcDbLine
 62
7
  6
CONTINUOUS
 10
152.918384592
 20
249.9954400122
 30
0.0
 11
151.618384592
 21
249.9954400122
 31
0.0
  0
LINE
  5
4DA
100
AcDbEntity
  8
0
100
AcDbLine
 62
7
  6
CONTINUOUS
 10
152.918384592
 20
249.9954400122
 30
0.0
 11
226.068384592
 21
249.9954400122
 31
0.0
  0
LINE
  5
4DB
100
AcDbEntity
  8
0
100
AcDbLine
 62
7
  6
CONTINUOUS
 10
230.068384592
 20
249.9954400122
 30
0.0
 11
226.068384592
 21
249.9954400122
 31
0.0
  0
ARC
  5
4DC
100
AcDbEntity
  8
0
100
AcDbCircle
 62
7
  6
CONTINUOUS
 10
203.868384592
 20
210.1823146732
 30
0.0
 40
1.6
100
AcDbArc
 50
270.0
 51
360.0
  0
ARC
  5
4DD
100
AcDbEntity
  8
0
100
AcDbCircle
 62
7
  6
CONTINUOUS
 10
203.068384592
 20
210.1823146732
 30
0.0
 40
1.6
100
AcDbArc
 50
180.0
 51
270.0
  0
LINE
  5
4DE
100
AcDbEntity
  8
0
100
AcDbLine
 62
7
  6
CONTINUOUS
 10
201.468384592
 20
210.5823146732
 30
0.0
 11
201.468384592
 21
210.1823146732
 31
0.0
  0
LINE
  5
4DF
100
AcDbEntity
  8
0
100
AcDbLine
 62
7
  6
CONTINUOUS
 10
201.468384592
 20
210.5823146732
 30
0.0
 11
198.068384592
 21
210.5823146732
 31
0.0
  0
LINE
  5
4E0
100
AcDbEntity
  8
0
100
AcDbLine
 62
7
  6
CONTINUOUS
 10
84.468384592
 20
217.5823146732
 30
0.0
 11
198.068384592
 21
210.5823146732
 31
0.0
  0
LINE
  5
4E1
100
AcDbEntity
  8
0
100
AcDbLine
 62
7
  6
CONTINUOUS
 10
84.468384592
 20
217.5823146732
 30
0.0
 11
74.468384592
 21
217.5823146732
 31
0.0
  0
LINE
  5
4E2
100
AcDbEntity
  8
0
100
AcDbLine
 62
7
  6
CONTINUOUS
 10
74.468384592
 20
217.5823146732
 30
0.0
 11
74.468384592
 21
190.5823146732
 31
0.0
  0
ARC
  5
4E3
100
AcDbEntity
  8
0
100
AcDbCircle
 62
7
  6
CONTINUOUS
 10
74.468384592
 20
186.5823146732
 30
0.0
 40
4.0
100
AcDbArc
 50
0.0
 51
90.0
  0
LINE
  5
4E4
100
AcDbEntity
  8
0
100
AcDbLine
 62
7
  6
CONTINUOUS
 10
78.468384592
 20
186.5823146732
 30
0.0
 11
151.618384592
 21
186.5823146732
 31
0.0
  0
LINE
  5
4E5
100
AcDbEntity
  8
0
100
AcDbLine
 62
7
  6
CONTINUOUS
 10
151.618384592
 20
186.5823146732
 30
0.0
 11
151.618384592
 21
198.7823146732
 31
0.0
  0
LINE
  5
4E6
100
AcDbEntity
  8
0
100
AcDbLine
 62
7
  6
CONTINUOUS
 10
152.918384592
 20
198.7823146732
 30
0.0
 11
151.618384592
 21
198.7823146732
 31
0.0
  0
LINE
  5
4E7
100
AcDbEntity
  8
0
100
AcDbLine
 62
7
  6
CONTINUOUS
 10
152.918384592
 20
186.5823146732
 30
0.0
 11
152.918384592
 21
198.7823146732
 31
0.0
  0
LINE
  5
4E8
100
AcDbEntity
  8
0
100
AcDbLine
 62
7
  6
CONTINUOUS
 10
152.918384592
 20
186.5823146732
 30
0.0
 11
226.068384592
 21
186.5823146732
 31
0.0
  0
ARC
  5
4E9
100
AcDbEntity
  8
0
100
AcDbCircle
 62
7
  6
CONTINUOUS
 10
230.068384592
 20
186.5823146732
 30
0.0
 40
4.0
100
AcDbArc
 50
90.0
 51
180.0
  0
LINE
  5
4EA
100
AcDbEntity
  8
0
100
AcDbLine
 62
7
  6
CONTINUOUS
 10
230.068384592
 20
190.5823146732
 30
0.0
 11
230.068384592
 21
206.5823146732
 31
0.0
  0
ARC
  5
4EB
100
AcDbEntity
  8
0
100
AcDbCircle
 62
7
  6
CONTINUOUS
 10
230.068384592
 20
210.5823146732
 30
0.0
 40
4.0
100
AcDbArc
 50
180.0
 51
270.0
  0
LINE
  5
4EC
100
AcDbEntity
  8
0
100
AcDbLine
 62
7
  6
CONTINUOUS
 10
226.068384592
 20
210.5823146732
 30
0.0
 11
205.468384592
 21
210.5823146732
 31
0.0
  0
LINE
  5
4ED
100
AcDbEntity
  8
0
100
AcDbLine
 62
7
  6
CONTINUOUS
 10
203.068384592
 20
208.5823146732
 30
0.0
 11
203.868384592
 21
208.5823146732
 31
0.0
  0
LINE
  5
4EE
100
AcDbEntity
  8
0
100
AcDbLine
 62
7
  6
CONTINUOUS
 10
205.468384592
 20
210.1823146732
 30
0.0
 11
205.468384592
 21
210.5823146732
 31
0.0
  0
LINE
  5
4EF
100
AcDbEntity
  8
0
100
AcDbLine
 62
7
  6
CONTINUOUS
 10
256.3790783082
 20
248.7954400122
 30
0.0
 11
283.3790783082
 21
248.7954400122
 31
0.0
  0
LINE
  5
4F0
100
AcDbEntity
  8
0
100
AcDbLine
 62
7
  6
CONTINUOUS
 10
287.3790783082
 20
248.7954400122
 30
0.0
 11
283.3790783082
 21
248.7954400122
 31
0.0
  0
LINE
  5
4F1
100
AcDbEntity
  8
0
100
AcDbLine
 62
7
  6
CONTINUOUS
 10
287.3790783082
 20
248.7954400122
 30
0.0
 11
287.3790783082
 21
249.9954400122
 31
0.0
  0
LINE
  5
4F2
100
AcDbEntity
  8
0
100
AcDbLine
 62
7
  6
CONTINUOUS
 10
256.3790783082
 20
248.7954400122
 30
0.0
 11
256.3790783082
 21
249.9954400122
 31
0.0
  0
LINE
  5
4F3
100
AcDbEntity
  8
0
100
AcDbLine
 62
7
  6
CONTINUOUS
 10
283.3790783082
 20
248.7954400122
 30
0.0
 11
283.3790783082
 21
249.9954400122
 31
0.0
  0
LINE
  5
4F4
100
AcDbEntity
  8
0
100
AcDbLine
 62
7
  6
CONTINUOUS
 10
256.3790783082
 20
249.9954400122
 30
0.0
 11
283.3790783082
 21
249.9954400122
 31
0.0
  0
LINE
  5
4F5
100
AcDbEntity
  8
0
100
AcDbLine
 62
7
  6
CONTINUOUS
 10
287.3790783082
 20
249.9954400122
 30
0.0
 11
283.3790783082
 21
249.9954400122
 31
0.0
  0
SPLINE
  5
4F6
100
AcDbEntity
  8
0
100
AcDbSpline
 62
7
  6
CONTINUOUS
 70
0
 71
3
 72
11
 73
7
 74
0
 42
0.0000001
 43
0.0000001
 44
0.0000000001
 40
0.0
 40
0.0
 40
0.0
 40
0.0
 40
0.2177722616
 40
0.4509514415
 40
0.7102012536
 40
1.0
 40
1.0
 40
1.0
 40
1.0
 10
390.4370501933
 20
147.9357661195
 30
0.0
 10
390.4370501793
 20
147.783415887
 30
0.0
 10
390.493282473
 20
147.4658051171
 30
0.0
 10
390.7341131088
 20
147.0234611476
 30
0.0
 10
391.1145600545
 20
146.6233740625
 30
0.0
 10
391.4330460515
 20
146.4041419241
 30
0.0
 10
391.6086230685
 20
146.3027724602
 30
0.0
  0
LINE
  5
4F7
100
AcDbEntity
  8
0
100
AcDbLine
 62
7
  6
CONTINUOUS
 10
374.2137962513
 20
158.6318743462
 30
0.0
 11
373.9309535389
 21
158.4685749884
 31
0.0
  0
SPLINE
  5
4F8
100
AcDbEntity
  8
0
100
AcDbSpline
 62
7
  6
CONTINUOUS
 70
0
 71
3
 72
10
 73
6
 74
0
 42
0.0000001
 43
0.0000001
 44
0.0000000001
 40
0.0
 40
0.0
 40
0.0
 40
0.0
 40
0.4590788499
 40
0.7187872508
 40
1.0
 40
1.0
 40
1.0
 40
1.0
 10
271.3494613985
 20
201.1718205097
 30
0.0
 10
271.263345425
 20
201.4006361482
 30
0.0
 10
271.0393932369
 20
201.7270646304
 30
0.0
 10
270.640311172
 20
202.0802146902
 30
0.0
 10
270.3987962118
 20
202.2395720514
 30
0.0
 10
270.2690994169
 20
202.3144525499
 30
0.0
  0
SPLINE
  5
4F9
100
AcDbEntity
  8
0
100
AcDbSpline
 62
7
  6
CONTINUOUS
 70
0
 71
3
 72
11
 73
7
 74
0
 42
0.0000001
 43
0.0000001
 44
0.0000000001
 40
0.0
 40
0.0
 40
0.0
 40
0.0
 40
0.2372185706
 40
0.5
 40
0.7627814294
 40
1.0
 40
1.0
 40
1.0
 40
1.0
 10
376.7593806636
 20
157.8153771831
 30
0.0
 10
376.5987724031
 20
157.722649937
 30
0.0
 10
376.2252503973
 20
157.587317301
 30
0.0
 10
375.6280098137
 20
157.5224757646
 30
0.0
 10
375.0307692301
 20
157.587317301
 30
0.0
 10
374.6572472244
 20
157.722649937
 30
0.0
 10
374.4966389638
 20
157.8153771831
 30
0.0
  0
SPLINE
  5
4FA
100
AcDbEntity
  8
0
100
AcDbSpline
 62
7
  6
CONTINUOUS
 70
0
 71
3
 72
9
 73
5
 74
0
 42
0.0000001
 43
0.0000001
 44
0.0000000001
 40
0.0
 40
0.0
 40
0.0
 40
0.0
 40
0.261739523
 40
1.0
 40
1.0
 40
1.0
 40
1.0
 10
373.9309535389
 20
158.4685749884
 30
0.0
 10
373.9099241146
 20
158.4564336416
 30
0.0
 10
373.8307296626
 20
158.4081229862
 30
0.0
 10
373.7562488425
 20
158.3517780126
 30
0.0
 10
373.7059151046
 20
158.305327939
 30
0.0
  0
SPLINE
  5
4FB
100
AcDbEntity
  8
0
100
AcDbSpline
 62
7
  6
CONTINUOUS
 70
0
 71
3
 72
11
 73
7
 74
0
 42
0.0000001
 43
0.0000001
 44
0.0000000001
 40
0.0
 40
0.0
 40
0.0
 40
0.0
 40
0.2898012144
 40
0.5490487504
 40
0.782227698
 40
1.0
 40
1.0
 40
1.0
 40
1.0
 10
373.9309535389
 20
158.1419758986
 30
0.0
 10
373.8607221441
 20
158.1825240236
 30
0.0
 10
373.7333274252
 20
158.2702166016
 30
0.0
 10
373.5811495659
 20
158.4302522362
 30
0.0
 10
373.4848175724
 20
158.6071890148
 30
0.0
 10
373.4623243888
 20
158.7342332342
 30
0.0
 10
373.4623243888
 20
158.7951733297
 30
0.0
  0
LINE
  5
4FC
100
AcDbEntity
  8
0
100
AcDbLine
 62
7
  6
CONTINUOUS
 10
270.2690994169
 20
199.0484653945
 30
0.0
 11
321.9939604607
 21
169.1850953421
 31
0.0
  0
LINE
  5
4FD
100
AcDbEntity
  8
0
100
AcDbLine
 62
7
  6
CONTINUOUS
 10
321.9939604607
 20
169.1850953421
 30
0.0
 11
330.6206631912
 21
174.1657257542
 31
0.0
  0
LINE
  5
4FE
100
AcDbEntity
  8
0
100
AcDbLine
 62
7
  6
CONTINUOUS
 10
330.6913741934
 20
174.1249007276
 30
0.0
 11
330.6206631912
 21
174.1657257542
 31
0.0
  0
LINE
  5
4FF
100
AcDbEntity
  8
0
100
AcDbLine
 62
7
  6
CONTINUOUS
 10
322.9131992763
 20
168.6543724294
 30
0.0
 11
374.6380603201
 21
138.791002377
 31
0.0
  0
SPLINE
  5
500
100
AcDbEntity
  8
0
100
AcDbSpline
 62
7
  6
CONTINUOUS
 70
0
 71
3
 72
13
 73
9
 74
0
 42
0.0000001
 43
0.0000001
 44
0.0000000001
 40
0.0
 40
0.0
 40
0.0
 40
0.0
 40
0.1142560595
 40
0.2375376159
 40
0.499999988
 40
0.7624623642
 40
0.8857439253
 40
1.0
 40
1.0
 40
1.0
 40
1.0
 10
380.2949145695
 20
138.791002377
 30
0.0
 10
380.1012873854
 20
138.9027931124
 30
0.0
 10
379.6778667803
 20
139.1000017768
 30
0.0
 10
378.7394143187
 20
139.3849822218
 30
0.0
 10
377.4664875079
 20
139.5234951033
 30
0.0
 10
376.1935606853
 20
139.3849822441
 30
0.0
 10
375.255108173
 20
139.1000018041
 30
0.0
 10
374.8316875299
 20
138.9027931272
 30
0.0
 10
374.6380603201
 20
138.791002377
 30
0.0
  0
LINE
  5
501
100
AcDbEntity
  8
0
100
AcDbLine
 62
7
  6
CONTINUOUS
 10
380.2949145695
 20
138.791002377
 30
0.0
 11
391.6086230685
 21
145.3229766879
 31
0.0
  0
SPLINE
  5
502
100
AcDbEntity
  8
0
100
AcDbSpline
 62
7
  6
CONTINUOUS
 70
0
 71
3
 72
10
 73
6
 74
0
 42
0.0000001
 43
0.0000001
 44
0.0000000001
 40
0.0
 40
0.0
 40
0.0
 40
0.0
 40
0.2812128476
 40
0.5409212479
 40
1.0
 40
1.0
 40
1.0
 40
1.0
 10
391.6086230685
 20
148.5889638433
 30
0.0
 10
391.4789260002
 20
148.5140831869
 30
0.0
 10
391.237410586
 20
148.3547254832
 30
0.0
 10
390.838327982
 20
148.0015746188
 30
0.0
 10
390.6143757542
 20
147.6751452911
 30
0.0
 10
390.5282600832
 20
147.4463291351
 30
0.0
  0
LINE
  5
503
100
AcDbEntity
  8
0
100
AcDbLine
 62
7
  6
CONTINUOUS
 10
373.9309535389
 20
158.1419758986
 30
0.0
 11
374.4966389638
 21
157.8153771831
 31
0.0
  0
LINE
  5
504
100
AcDbEntity
  8
0
100
AcDbLine
 62
7
  6
CONTINUOUS
 10
376.7593806636
 20
157.8153771831
 30
0.0
 11
377.0422233761
 21
157.9786765409
 31
0.0
  0
LINE
  5
505
100
AcDbEntity
  8
0
100
AcDbLine
 62
7
  6
CONTINUOUS
 10
391.6086230685
 20
149.5687596156
 30
0.0
 11
377.0422233761
 21
157.9786765409
 31
0.0
  0
LINE
  5
506
100
AcDbEntity
  8
0
100
AcDbLine
 62
7
  6
CONTINUOUS
 10
322.9131992763
 20
169.6341682017
 30
0.0
 11
331.5399020067
 21
174.6147986138
 31
0.0
  0
SPLINE
  5
507
100
AcDbEntity
  8
0
100
AcDbSpline
 62
7
  6
CONTINUOUS
 70
0
 71
3
 72
11
 73
7
 74
0
 42
0.0000001
 43
0.0000001
 44
0.0000000001
 40
0.0
 40
0.0
 40
0.0
 40
0.0
 40
0.2897987668
 40
0.5490485733
 40
0.7822277473
 40
1.0
 40
1.0
 40
1.0
 40
1.0
 10
270.2690994169
 20
200.0282611669
 30
0.0
 10
270.4446764328
 20
200.12963063
 30
0.0
 10
270.7631624149
 20
200.3488627569
 30
0.0
 10
271.1436093372
 20
200.7489498112
 30
0.0
 10
271.3844399713
 20
201.1912937216
 30
0.0
 10
271.4406722782
 20
201.5089044485
 30
0.0
 10
271.4406722922
 20
201.6612546631
 30
0.0
  0
LINE
  5
508
100
AcDbEntity
  8
0
100
AcDbLine
 62
7
  6
CONTINUOUS
 10
289.360982509
 20
214.3169549718
 30
0.0
 11
270.2690994169
 21
203.2942483223
 31
0.0
  0
LINE
  5
509
100
AcDbEntity
  8
0
100
AcDbLine
 62
7
  6
CONTINUOUS
 10
296.4320503208
 20
210.2344710275
 30
0.0
 11
289.360982509
 21
214.3169549718
 31
0.0
  0
LINE
  5
50A
100
AcDbEntity
  8
0
100
AcDbLine
 62
7
  6
CONTINUOUS
 10
296.4320503208
 20
210.2344710275
 30
0.0
 11
371.8096331953
 21
160.9997146596
 31
0.0
  0
LINE
  5
50B
100
AcDbEntity
  8
0
100
AcDbLine
 62
7
  6
CONTINUOUS
 10
374.2137962513
 20
159.6116701186
 30
0.0
 11
371.8096331953
 21
160.9997146596
 31
0.0
  0
LINE
  5
50C
100
AcDbEntity
  8
0
100
AcDbLine
 62
7
  6
CONTINUOUS
 10
270.2690994169
 20
202.3144525499
 30
0.0
 11
270.2690994169
 21
203.2942483223
 31
0.0
  0
LINE
  5
50D
100
AcDbEntity
  8
0
100
AcDbLine
 62
7
  6
CONTINUOUS
 10
374.2137962513
 20
158.6318743462
 30
0.0
 11
374.2137962513
 21
159.6116701186
 31
0.0
  0
LINE
  5
50E
100
AcDbEntity
  8
0
100
AcDbLine
 62
7
  6
CONTINUOUS
 10
270.2690994169
 20
199.0484653945
 30
0.0
 11
270.2690994169
 21
200.0282611669
 31
0.0
  0
LINE
  5
50F
100
AcDbEntity
  8
0
100
AcDbLine
 62
7
  6
CONTINUOUS
 10
322.9131992763
 20
168.6543724294
 30
0.0
 11
322.9131992763
 21
169.6341682017
 31
0.0
  0
LINE
  5
510
100
AcDbEntity
  8
0
100
AcDbLine
 62
7
  6
CONTINUOUS
 10
391.6086230685
 20
145.3229766879
 30
0.0
 11
391.6086230685
 21
146.3027724602
 31
0.0
  0
LINE
  5
511
100
AcDbEntity
  8
0
100
AcDbLine
 62
7
  6
CONTINUOUS
 10
391.6086230685
 20
148.5889638433
 30
0.0
 11
391.6086230685
 21
149.5687596156
 31
0.0
  0
SPLINE
  5
512
100
AcDbEntity
  8
0
100
AcDbSpline
 62
7
  6
CONTINUOUS
 70
0
 71
3
 72
11
 73
7
 74
0
 42
0.0000001
 43
0.0000001
 44
0.0000000001
 40
0.0
 40
0.0
 40
0.0
 40
0.0
 40
0.217772302
 40
0.4509512496
 40
0.7101987856
 40
1.0
 40
1.0
 40
1.0
 40
1.0
 10
373.4623243888
 20
158.7951733297
 30
0.0
 10
373.4623243888
 20
158.8561134252
 30
0.0
 10
373.4848175724
 20
158.9831576447
 30
0.0
 10
373.5811495659
 20
159.1600944232
 30
0.0
 10
373.7333274252
 20
159.3201300578
 30
0.0
 10
373.8607221441
 20
159.4078226358
 30
0.0
 10
373.9309535389
 20
159.4483707608
 30
0.0
  0
LINE
  5
513
100
AcDbEntity
  8
0
100
AcDbLine
 62
9
  6
CONTINUOUS
 10
373.9309535389
 20
159.4483707608
 30
0.0
 11
373.9309535389
 21
158.4685749884
 31
0.0
  0
SPLINE
  5
514
100
AcDbEntity
  8
0
100
AcDbSpline
 62
7
  6
CONTINUOUS
 70
0
 71
3
 72
11
 73
7
 74
0
 42
0.0000001
 43
0.0000001
 44
0.0000000001
 40
0.0
 40
0.0
 40
0.0
 40
0.0
 40
0.2177722616
 40
0.4509514415
 40
0.7102012536
 40
1.0
 40
1.0
 40
1.0
 40
1.0
 10
271.4406722922
 20
201.6612546631
 30
0.0
 10
271.4406723062
 20
201.8136048955
 30
0.0
 10
271.3844400124
 20
202.1312156654
 30
0.0
 10
271.1436093766
 20
202.5735596349
 30
0.0
 10
270.763162431
 20
202.97364672
 30
0.0
 10
270.4446764339
 20
203.1928788584
 30
0.0
 10
270.2690994169
 20
203.2942483223
 30
0.0
  0
SPLINE
  5
515
100
AcDbEntity
  8
0
100
AcDbSpline
 62
7
  6
CONTINUOUS
 70
0
 71
3
 72
11
 73
7
 74
0
 42
0.0000001
 43
0.0000001
 44
0.0000000001
 40
0.0
 40
0.0
 40
0.0
 40
0.0
 40
0.2897987668
 40
0.5490485733
 40
0.7822277473
 40
1.0
 40
1.0
 40
1.0
 40
1.0
 10
391.6086230685
 20
149.5687596156
 30
0.0
 10
391.4330460527
 20
149.4673901525
 30
0.0
 10
391.1145600706
 20
149.2481580256
 30
0.0
 10
390.7341131483
 20
148.8480709713
 30
0.0
 10
390.4932825141
 20
148.4057270609
 30
0.0
 10
390.4370502073
 20
148.088116334
 30
0.0
 10
390.4370501933
 20
147.9357661195
 30
0.0
  0
LINE
  5
516
100
AcDbEntity
  8
0
100
AcDbLine
 62
7
  6
CONTINUOUS
 10
380.2949145695
 20
139.7707981494
 30
0.0
 11
391.6086230685
 21
146.3027724602
 31
0.0
  0
LINE
  5
517
100
AcDbEntity
  8
0
100
AcDbLine
 62
7
  6
CONTINUOUS
 10
374.2137962513
 20
159.6116701186
 30
0.0
 11
373.9309535389
 21
159.4483707608
 31
0.0
  0
SPLINE
  5
518
100
AcDbEntity
  8
0
100
AcDbSpline
 62
7
  6
CONTINUOUS
 70
0
 71
3
 72
13
 73
9
 74
0
 42
0.0000001
 43
0.0000001
 44
0.0000000001
 40
0.0
 40
0.0
 40
0.0
 40
0.0
 40
0.1142560595
 40
0.2375376159
 40
0.499999988
 40
0.7624623642
 40
0.8857439253
 40
1.0
 40
1.0
 40
1.0
 40
1.0
 10
380.2949145695
 20
139.7707981494
 30
0.0
 10
380.1012873854
 20
139.8825888847
 30
0.0
 10
379.6778667803
 20
140.0797975491
 30
0.0
 10
378.7394143187
 20
140.3647779942
 30
0.0
 10
377.4664875079
 20
140.5032908757
 30
0.0
 10
376.1935606853
 20
140.3647780164
 30
0.0
 10
375.255108173
 20
140.0797975765
 30
0.0
 10
374.8316875299
 20
139.8825888996
 30
0.0
 10
374.6380603201
 20
139.7707981494
 30
0.0
  0
LINE
  5
519
100
AcDbEntity
  8
0
100
AcDbLine
 62
7
  6
CONTINUOUS
 10
322.9131992763
 20
169.6341682017
 30
0.0
 11
374.6380603201
 21
139.7707981494
 31
0.0
  0
LINE
  5
51A
100
AcDbEntity
  8
0
100
AcDbLine
 62
7
  6
CONTINUOUS
 10
321.9939604607
 20
169.1850953421
 30
0.0
 11
321.9939604607
 21
170.1648911145
 31
0.0
  0
LINE
  5
51B
100
AcDbEntity
  8
0
100
AcDbLine
 62
7
  6
CONTINUOUS
 10
330.6206631912
 20
175.1455215265
 30
0.0
 11
330.6206631912
 21
174.1657257542
 31
0.0
  0
LINE
  5
51C
100
AcDbEntity
  8
0
100
AcDbLine
 62
7
  6
CONTINUOUS
 10
331.5399020067
 20
174.6147986138
 30
0.0
 11
330.6206631912
 21
175.1455215265
 31
0.0
  0
LINE
  5
51D
100
AcDbEntity
  8
0
100
AcDbLine
 62
7
  6
CONTINUOUS
 10
374.6380603201
 20
138.791002377
 30
0.0
 11
374.6380603201
 21
139.7707981494
 31
0.0
  0
LINE
  5
51E
100
AcDbEntity
  8
0
100
AcDbLine
 62
7
  6
CONTINUOUS
 10
321.9939604607
 20
170.1648911145
 30
0.0
 11
330.6206631912
 21
175.1455215265
 31
0.0
  0
LINE
  5
51F
100
AcDbEntity
  8
0
100
AcDbLine
 62
7
  6
CONTINUOUS
 10
380.2949145695
 20
138.791002377
 30
0.0
 11
380.2949145695
 21
139.7707981494
 31
0.0
  0
LINE
  5
520
100
AcDbEntity
  8
0
100
AcDbLine
 62
7
  6
CONTINUOUS
 10
270.2690994169
 20
200.0282611669
 30
0.0
 11
321.9939604607
 21
170.1648911145
 31
0.0
  0
DIMENSION
  5
521
100
AcDbEntity
  8
0
100
AcDbDimension
 62
2
  6
CONTINUOUS
  2
*D0
 10
230.068384592
 20
263.1344634619
 30
0.0
 11
152.2491348267
 21
263.1344634619
 31
0.0
 70
160
 71
2
 72
2
 41
0.9
 42
778.0
  3
DIMSTYLE_1
100
AcDbAlignedDimension
 13
74.468384592
 23
249.9954400122
 33
0.0
 14
230.068384592
 24
249.9954400122
 34
0.0
100
AcDbRotatedDimension
  0
DIMENSION
  5
522
100
AcDbEntity
  8
0
100
AcDbDimension
 62
2
  6
CONTINUOUS
  2
*D1
 10
304.0887874172
 20
249.9954400122
 30
0.0
 11
304.0887874172
 21
264.6158059147
 31
0.0
 70
160
 71
1
 72
2
 41
0.9
 42
6.0
  3
DIMSTYLE_2
100
AcDbAlignedDimension
 13
287.3790783082
 23
248.7954400122
 33
0.0
 14
287.3790783082
 24
249.9954400122
 34
0.0
 50
90.0
100
AcDbRotatedDimension
  0
DIMENSION
  5
523
100
AcDbEntity
  8
0
100
AcDbDimension
 62
2
  6
CONTINUOUS
  2
*D2
 10
244.86283374
 20
186.5823146732
 30
0.0
 11
244.86283374
 21
202.1470729742
 31
0.0
 70
160
 71
2
 72
2
 41
0.9
 42
155.0
  3
DIMSTYLE_3
100
AcDbAlignedDimension
 13
84.468384592
 23
217.5823146732
 33
0.0
 14
151.618384592
 24
186.5823146732
 34
0.0
 50
270.0
100
AcDbRotatedDimension
  0
ACAD_TABLE
  5
524
100
AcDbEntity
  8
0
 62
2
  6
CONTINUOUS
100
AcDbBlockReference
  2
*T1
 10
230.0
 20
20.0
 30
0.0
100
AcDbTable
342
       52D
343
21C
 11
1.0
 21
0.0
 31
0.0
 90
22
 91
1
 92
1
 93
16
 94
0
 95
0
 96
0
 41
0.75
141
10.0
142
180.0
171
1
172
0
173
0
174
0
175
1
176
1
 91
57
178
0
145
0.0
  7
TEXTSTYLE_4
301
CELL_VALUE
 90
4
  2
Pro/E model: \H2.0;0583667_008\H2.5; Version: \H2.0;.0\H2.5; \H2.0;07-Apr-25 07:35:17 AM\H2.5; Drawing version: \H2.0;.0\H2.5; \H2.0;16-Apr-25 07:27:55 AM\P\H2.5;Article number: \H2.0;0583667_008\H2.5; Version: \H2.0;&MDLPARAM_ART_VERSION\H2.5; \H2.0
  1
;&MDLPARAM_ARTICLE_MODIFIEDON
304
ACVALUE_END
170
4
140
2.5
 64
4
  0
ACAD_TABLE
  5
525
100
AcDbEntity
  8
0
 62
2
  6
CONTINUOUS
100
AcDbBlockReference
  2
*T2
 10
327.5
 20
121.00033
 30
0.0
100
AcDbTable
342
       52D
343
21D
 11
1.0
 21
0.0
 31
0.0
 90
22
 91
12
 92
3
 93
16
 94
0
 95
0
 96
0
 41
1.2493333333
141
11.0
141
26.0
141
1.5
141
1.33333
141
7.167
141
6.0
141
3.0
141
13.0
141
6.0
141
12.0
141
2.5
141
11.5
142
62.5
142
10.0
142
10.0
171
1
172
0
173
0
174
0
175
1
176
1
 91
33
178
0
145
0.0
301
CELL_VALUE
 90
4
  1
 
304
ACVALUE_END
170
7
140
0.001
171
1
172
0
173
0
174
0
175
2
176
1
 91
33
178
0
145
0.0
301
CELL_VALUE
 90
4
  1
 
304
ACVALUE_END
170
8
140
0.001
171
1
172
0
173
1
174
0
175
1
176
1
 91
1
178
0
145
0.0
170
1
171
1
172
0
173
0
174
0
175
3
176
1
 91
33
178
0
145
0.0
301
CELL_VALUE
 90
4
  1
 
304
ACVALUE_END
170
1
140
0.001
171
1
172
0
173
1
174
0
175
1
176
1
 91
1
178
0
145
0.0
170
1
171
1
172
0
173
1
174
0
175
1
176
1
 91
1
178
0
145
0.0
170
1
171
1
172
0
173
0
174
0
175
3
176
2
 91
33
178
0
145
0.0
301
CELL_VALUE
 90
4
  1
 
304
ACVALUE_END
170
1
140
0.001
171
1
172
0
173
1
174
0
175
1
176
1
 91
1
178
0
145
0.0
170
1
171
1
172
0
173
1
174
0
175
1
176
1
 91
1
178
0
145
0.0
170
1
171
1
172
0
173
1
174
0
175
1
176
1
 91
1
178
0
145
0.0
170
1
171
1
172
0
173
1
174
0
175
1
176
1
 91
1
178
0
145
0.0
170
1
171
1
172
0
173
1
174
0
175
1
176
1
 91
1
178
0
145
0.0
170
1
171
1
172
0
173
0
174
0
175
3
176
1
 91
57
178
0
145
0.0
  7
TEXTSTYLE_4
301
CELL_VALUE
 90
4
  1
S355MC
304
ACVALUE_END
170
5
140
3.5
 64
4
171
1
172
0
173
1
174
0
175
1
176
1
 91
1
178
0
145
0.0
170
1
171
1
172
0
173
1
174
0
175
1
176
1
 91
1
178
0
145
0.0
170
1
171
1
172
0
173
0
174
0
175
3
176
1
 91
33
178
0
145
0.0
301
CELL_VALUE
 90
4
  1
 
304
ACVALUE_END
170
5
140
0.001
171
1
172
0
173
1
174
0
175
1
176
1
 91
1
178
0
145
0.0
170
1
171
1
172
0
173
1
174
0
175
1
176
1
 91
1
178
0
145
0.0
170
1
171
1
172
0
173
0
174
0
175
3
176
1
 91
33
178
0
145
0.0
301
CELL_VALUE
 90
4
  1
 
304
ACVALUE_END
170
1
140
0.001
171
1
172
0
173
1
174
0
175
1
176
1
 91
1
178
0
145
0.0
170
1
171
1
172
0
173
1
174
0
175
1
176
1
 91
1
178
0
145
0.0
170
1
171
1
172
0
173
0
174
0
175
3
176
1
 91
33
178
0
145
0.0
301
CELL_VALUE
 90
4
  1
 
304
ACVALUE_END
170
5
140
0.001
171
1
172
0
173
1
174
0
175
1
176
1
 91
1
178
0
145
0.0
170
1
171
1
172
0
173
1
174
0
175
1
176
1
 91
1
178
0
145
0.0
170
1
171
1
172
0
173
0
174
0
175
3
176
1
 91
33
178
0
145
0.0
301
CELL_VALUE
 90
4
  1
 
304
ACVALUE_END
170
1
140
0.001
171
1
172
0
173
1
174
0
175
1
176
1
 91
1
178
0
145
0.0
170
1
171
1
172
0
173
1
174
0
175
1
176
1
 91
1
178
0
145
0.0
170
1
171
1
172
0
173
0
174
0
175
1
176
1
 91
57
178
0
145
0.0
  7
TEXTSTYLE_4
301
CELL_VALUE
 90
4
  1
 0583667_008
304
ACVALUE_END
170
4
140
4.0
 64
4
171
1
172
0
173
0
174
0
175
2
176
1
 91
57
178
0
145
0.0
  7
TEXTSTYLE_4
301
CELL_VALUE
 90
4
  1
000
304
ACVALUE_END
170
5
140
4.0
 64
4
171
1
172
0
173
1
174
0
175
1
176
1
 91
1
178
0
145
0.0
170
1
171
1
172
0
173
0
174
0
175
1
176
1
 91
41
178
0
145
0.0
301
CELL_VALUE
 90
4
  1
 
304
ACVALUE_END
170
6
140
0.001
 64
4
171
1
172
0
173
0
174
0
175
1
176
1
 91
33
178
0
145
0.0
301
CELL_VALUE
 90
4
  1
 
304
ACVALUE_END
170
1
140
0.001
171
1
172
0
173
0
174
0
175
1
176
1
 91
33
178
0
145
0.0
301
CELL_VALUE
 90
4
  1
 
304
ACVALUE_END
170
1
140
0.001
171
1
172
0
173
0
174
0
175
1
176
1
 91
57
178
0
145
0.0
  7
TEXTSTYLE_4
301
CELL_VALUE
 90
4
  1
0583667_008
304
ACVALUE_END
170
5
140
4.0
 64
4
171
1
172
0
173
0
174
0
175
1
176
1
 91
57
178
0
145
0.0
  7
TEXTSTYLE_4
301
CELL_VALUE
 90
4
  1
1
304
ACVALUE_END
170
5
140
4.0
 64
4
171
1
172
0
173
0
174
0
175
1
176
1
 91
57
178
0
145
0.0
  7
TEXTSTYLE_4
301
CELL_VALUE
 90
4
  1
1
304
ACVALUE_END
170
5
140
4.0
 64
4
  0
ACAD_TABLE
  5
526
100
AcDbEntity
  8
0
 62
2
  6
CONTINUOUS
100
AcDbBlockReference
  2
*T3
 10
230.0
 20
121.00067
 30
0.0
100
AcDbTable
342
       52D
343
21E
 11
1.0
 21
0.0
 31
0.0
 90
22
 91
20
 92
5
 93
16
 94
0
 95
0
 96
0
 41
0.0
141
3.5
141
3.25
141
3.25
141
3.25
141
1.0
141
2.0
141
3.25
141
3.25
141
8.0
141
5.667
141
1.33333
141
4.33334
141
5.667
141
5.5
141
4.75
141
6.0
141
2.0
141
15.0
141
3.0
141
17.0
142
38.5
142
12.0
142
12.0
142
13.0
142
22.0
171
1
172
0
173
0
174
0
175
1
176
1
 91
33
178
0
145
0.0
301
CELL_VALUE
 90
4
  1
 
304
ACVALUE_END
170
1
140
0.001
171
1
172
0
173
0
174
0
175
2
176
3
 91
33
178
0
145
0.0
301
CELL_VALUE
 90
4
  1
 
304
ACVALUE_END
170
1
140
0.001
171
1
172
0
173
1
174
0
175
1
176
1
 91
1
178
0
145
0.0
170
1
171
1
172
0
173
0
174
0
175
2
176
2
 91
33
178
0
145
0.0
301
CELL_VALUE
 90
4
  1
 
304
ACVALUE_END
170
1
140
0.001
171
1
172
0
173
1
174
0
175
1
176
1
 91
1
178
0
145
0.0
170
1
171
1
172
0
173
0
174
0
175
1
176
1
 91
41
178
0
145
0.0
301
CELL_VALUE
 90
4
  1
 
304
ACVALUE_END
170
6
140
0.001
 64
4
171
1
172
0
173
1
174
0
175
1
176
1
 91
1
178
0
145
0.0
170
1
171
1
172
0
173
1
174
0
175
1
176
1
 91
1
178
0
145
0.0
170
1
171
1
172
0
173
1
174
0
175
1
176
1
 91
1
178
0
145
0.0
170
1
171
1
172
0
173
1
174
0
175
1
176
1
 91
1
178
0
145
0.0
170
1
171
1
172
0
173
0
174
0
175
1
176
1
 91
57
178
0
145
0.0
  7
TEXTSTYLE_5
301
CELL_VALUE
 90
4
  1
ISO 2768
304
ACVALUE_END
170
2
140
2.75
 64
4
171
1
172
0
173
1
174
0
175
1
176
1
 91
1
178
0
145
0.0
170
1
171
1
172
0
173
1
174
0
175
1
176
1
 91
1
178
0
145
0.0
170
1
171
1
172
0
173
0
174
0
175
2
176
6
 91
33
178
0
145
0.0
301
CELL_VALUE
 90
4
  1
 
304
ACVALUE_END
170
5
140
0.001
171
1
172
0
173
1
174
0
175
1
176
1
 91
1
178
0
145
0.0
170
1
171
1
172
0
173
0
174
0
175
1
176
1
 91
41
178
0
145
0.0
301
CELL_VALUE
 90
4
  1
 
304
ACVALUE_END
170
2
140
0.001
 64
4
171
1
172
0
173
0
174
0
175
1
176
1
 91
33
178
0
145
0.0
301
CELL_VALUE
 90
4
  1
 
304
ACVALUE_END
170
1
140
0.001
171
1
172
0
173
0
174
0
175
1
176
1
 91
57
178
0
145
0.0
  7
TEXTSTYLE_4
301
CELL_VALUE
 90
4
  1
0,000 %
304
ACVALUE_END
170
6
140
1.42
 64
4
171
1
172
0
173
1
174
0
175
1
176
1
 91
1
178
0
145
0.0
170
1
171
1
172
0
173
1
174
0
175
1
176
1
 91
1
178
0
145
0.0
170
1
171
1
172
0
173
0
174
0
175
1
176
1
 91
57
178
0
145
0.0
  7
TEXTSTYLE_3
301
CELL_VALUE
 90
4
  1
-mK
304
ACVALUE_END
170
2
140
2.25
 64
4
171
1
172
0
173
0
174
0
175
1
176
1
 91
33
178
0
145
0.0
301
CELL_VALUE
 90
4
  1
 
304
ACVALUE_END
170
1
140
0.001
171
1
172
0
173
0
174
0
175
1
176
1
 91
33
178
0
145
0.0
301
CELL_VALUE
 90
4
  1
 
304
ACVALUE_END
170
1
140
0.001
171
1
172
0
173
1
174
0
175
1
176
1
 91
1
178
0
145
0.0
170
1
171
1
172
0
173
1
174
0
175
1
176
1
 91
1
178
0
145
0.0
170
1
171
1
172
0
173
0
174
0
175
1
176
3
 91
33
178
0
145
0.0
301
CELL_VALUE
 90
4
  1
 
304
ACVALUE_END
170
1
140
0.001
171
1
172
0
173
0
174
0
175
2
176
3
 91
57
178
0
145
0.0
  7
TEXTSTYLE_4
301
CELL_VALUE
 90
4
  1
 4.88
304
ACVALUE_END
170
5
140
3.0
 64
4
171
1
172
0
173
1
174
0
175
1
176
1
 91
1
178
0
145
0.0
170
1
171
1
172
0
173
1
174
0
175
1
176
1
 91
1
178
0
145
0.0
170
1
171
1
172
0
173
1
174
0
175
1
176
1
 91
1
178
0
145
0.0
170
1
171
1
172
0
173
1
174
0
175
1
176
1
 91
1
178
0
145
0.0
170
1
171
1
172
0
173
1
174
0
175
1
176
1
 91
1
178
0
145
0.0
170
1
171
1
172
0
173
1
174
0
175
1
176
1
 91
1
178
0
145
0.0
170
1
171
1
172
0
173
1
174
0
175
1
176
1
 91
1
178
0
145
0.0
170
1
171
1
172
0
173
1
174
0
175
1
176
1
 91
1
178
0
145
0.0
170
1
171
1
172
0
173
1
174
0
175
1
176
1
 91
1
178
0
145
0.0
170
1
171
1
172
0
173
1
174
0
175
1
176
1
 91
1
178
0
145
0.0
170
1
171
1
172
0
173
1
174
0
175
1
176
1
 91
1
178
0
145
0.0
170
1
171
1
172
0
173
1
174
0
175
1
176
1
 91
1
178
0
145
0.0
170
1
171
1
172
0
173
1
174
0
175
1
176
1
 91
1
178
0
145
0.0
170
1
171
1
172
0
173
0
174
0
175
1
176
1
 91
33
178
0
145
0.0
301
CELL_VALUE
 90
4
  1
 
304
ACVALUE_END
170
1
140
0.001
171
1
172
0
173
0
174
0
175
2
176
1
 91
33
178
0
145
0.0
301
CELL_VALUE
 90
4
  1
 
304
ACVALUE_END
170
1
140
0.001
171
1
172
0
173
1
174
0
175
1
176
1
 91
1
178
0
145
0.0
170
1
171
1
172
0
173
0
174
0
175
2
176
1
 91
33
178
0
145
0.0
301
CELL_VALUE
 90
4
  1
 
304
ACVALUE_END
170
1
140
0.001
171
1
172
0
173
1
174
0
175
1
176
1
 91
1
178
0
145
0.0
170
1
171
1
172
0
173
0
174
0
175
1
176
1
 91
33
178
0
145
0.0
301
CELL_VALUE
 90
4
  1
 
304
ACVALUE_END
170
1
140
0.001
171
1
172
0
173
0
174
0
175
2
176
1
 91
57
178
0
145
0.0
  7
TEXTSTYLE_4
301
CELL_VALUE
 90
4
  1
16.04.2025
304
ACVALUE_END
170
5
140
2.0
 64
4
171
1
172
0
173
1
174
0
175
1
176
1
 91
1
178
0
145
0.0
170
1
171
1
172
0
173
0
174
0
175
2
176
1
 91
57
178
0
145
0.0
  7
TEXTSTYLE_4
301
CELL_VALUE
 90
4
  1
A.Mueller
304
ACVALUE_END
170
5
140
2.0
 64
4
171
1
172
0
173
1
174
0
175
1
176
1
 91
1
178
0
145
0.0
170
1
171
1
172
0
173
0
174
0
175
1
176
2
 91
33
178
0
145
0.0
301
CELL_VALUE
 90
4
  1
 
304
ACVALUE_END
170
1
140
0.001
171
1
172
0
173
0
174
0
175
2
176
2
 91
41
178
0
145
0.0
301
CELL_VALUE
 90
4
  1
 
304
ACVALUE_END
170
5
140
0.001
 64
4
171
1
172
0
173
1
174
0
175
1
176
1
 91
1
178
0
145
0.0
170
1
171
1
172
0
173
0
174
0
175
2
176
2
 91
33
178
0
145
0.0
301
CELL_VALUE
 90
4
  1
 
304
ACVALUE_END
170
5
140
0.001
171
1
172
0
173
1
174
0
175
1
176
1
 91
1
178
0
145
0.0
170
1
171
1
172
0
173
1
174
0
175
1
176
1
 91
1
178
0
145
0.0
170
1
171
1
172
0
173
1
174
0
175
1
176
1
 91
1
178
0
145
0.0
170
1
171
1
172
0
173
1
174
0
175
1
176
1
 91
1
178
0
145
0.0
170
1
171
1
172
0
173
1
174
0
175
1
176
1
 91
1
178
0
145
0.0
170
1
171
1
172
0
173
1
174
0
175
1
176
1
 91
1
178
0
145
0.0
170
1
171
1
172
0
173
0
174
0
175
1
176
1
 91
33
178
0
145
0.0
301
CELL_VALUE
 90
4
  1
 
304
ACVALUE_END
170
1
140
0.001
171
1
172
0
173
0
174
0
175
2
176
1
 91
41
178
0
145
0.0
301
CELL_VALUE
 90
4
  1
 
304
ACVALUE_END
170
8
140
0.001
 64
4
171
1
172
0
173
1
174
0
175
1
176
1
 91
1
178
0
145
0.0
170
1
171
1
172
0
173
0
174
0
175
2
176
1
 91
33
178
0
145
0.0
301
CELL_VALUE
 90
4
  1
 
304
ACVALUE_END
170
2
140
0.001
171
1
172
0
173
1
174
0
175
1
176
1
 91
1
178
0
145
0.0
170
1
171
1
172
0
173
0
174
0
175
1
176
1
 91
33
178
0
145
0.0
301
CELL_VALUE
 90
4
  1
 
304
ACVALUE_END
170
1
140
0.001
171
1
172
0
173
0
174
0
175
2
176
1
 91
33
178
0
145
0.0
301
CELL_VALUE
 90
4
  1
 
304
ACVALUE_END
170
1
140
0.001
171
1
172
0
173
1
174
0
175
1
176
1
 91
1
178
0
145
0.0
170
1
171
1
172
0
173
0
174
0
175
2
176
1
 91
33
178
0
145
0.0
301
CELL_VALUE
 90
4
  1
 
304
ACVALUE_END
170
1
140
0.001
171
1
172
0
173
1
174
0
175
1
176
1
 91
1
178
0
145
0.0
170
1
171
1
172
0
173
0
174
0
175
1
176
1
 91
41
178
0
145
0.0
301
CELL_VALUE
 90
4
  1
 
304
ACVALUE_END
170
5
140
0.001
 64
4
171
1
172
0
173
0
174
0
175
4
176
1
 91
41
178
0
145
0.0
301
CELL_VALUE
 90
4
  1
 
304
ACVALUE_END
170
5
140
0.001
 64
4
171
1
172
0
173
1
174
0
175
1
176
1
 91
1
178
0
145
0.0
170
1
171
1
172
0
173
1
174
0
175
1
176
1
 91
1
178
0
145
0.0
170
1
171
1
172
0
173
1
174
0
175
1
176
1
 91
1
178
0
145
0.0
170
1
171
1
172
0
173
0
174
0
175
5
176
1
 91
57
178
0
145
0.0
  7
TEXTSTYLE_4
301
CELL_VALUE
 90
4
  1
VERTRAULICH/CONFIDENTIAL/CONFIDENTIEL
304
ACVALUE_END
170
5
140
3.0
 64
4
171
1
172
0
173
1
174
0
175
1
176
1
 91
1
178
0
145
0.0
170
1
171
1
172
0
173
1
174
0
175
1
176
1
 91
1
178
0
145
0.0
170
1
171
1
172
0
173
1
174
0
175
1
176
1
 91
1
178
0
145
0.0
170
1
171
1
172
0
173
1
174
0
175
1
176
1
 91
1
178
0
145
0.0
170
1
171
1
172
0
173
0
174
0
175
2
176
2
 91
57
178
0
145
0.0
  7
TEXTSTYLE_3
301
CELL_VALUE
 90
4
  1
LHB
304
ACVALUE_END
170
8
140
6.5
 64
4
171
1
172
0
173
1
174
0
175
1
176
1
 91
1
178
0
145
0.0
170
1
171
1
172
0
173
0
174
0
175
2
176
2
 91
57
178
0
145
0.0
  7
TEXTSTYLE_6
301
CELL_VALUE
 90
4
  1
A3
304
ACVALUE_END
170
5
140
12.0
 64
4
171
1
172
0
173
1
174
0
175
1
176
1
 91
1
178
0
145
0.0
170
1
171
1
172
0
173
0
174
0
175
1
176
1
 91
41
178
0
145
0.0
301
CELL_VALUE
 90
4
  1
 
304
ACVALUE_END
170
5
140
0.001
 64
4
171
1
172
0
173
1
174
0
175
1
176
1
 91
1
178
0
145
0.0
170
1
171
1
172
0
173
1
174
0
175
1
176
1
 91
1
178
0
145
0.0
170
1
171
1
172
0
173
1
174
0
175
1
176
1
 91
1
178
0
145
0.0
170
1
171
1
172
0
173
1
174
0
175
1
176
1
 91
1
178
0
145
0.0
170
1
171
1
172
0
173
0
174
0
175
1
176
1
 91
57
178
0
145
0.0
  7
TEXTSTYLE_4
301
CELL_VALUE
 90
4
  1
1:5
304
ACVALUE_END
170
5
140
5.0
 64
4
171
1
172
0
173
0
174
0
175
5
176
1
 91
33
178
0
145
0.0
301
CELL_VALUE
 90
4
  1
 
304
ACVALUE_END
170
1
140
0.001
171
1
172
0
173
1
174
0
175
1
176
1
 91
1
178
0
145
0.0
170
1
171
1
172
0
173
1
174
0
175
1
176
1
 91
1
178
0
145
0.0
170
1
171
1
172
0
173
1
174
0
175
1
176
1
 91
1
178
0
145
0.0
170
1
171
1
172
0
173
1
174
0
175
1
176
1
 91
1
178
0
145
0.0
170
1
171
1
172
0
173
0
174
0
175
5
176
1
 91
57
178
0
145
0.0
  7
TEXTSTYLE_4
301
CELL_VALUE
 90
4
  1
Platte
304
ACVALUE_END
170
4
140
3.0
 64
4
171
1
172
0
173
1
174
0
175
1
176
1
 91
1
178
0
145
0.0
170
1
171
1
172
0
173
1
174
0
175
1
176
1
 91
1
178
0
145
0.0
170
1
171
1
172
0
173
1
174
0
175
1
176
1
 91
1
178
0
145
0.0
170
1
171
1
172
0
173
1
174
0
175
1
176
1
 91
1
178
0
145
0.0
170
1
  0
INSERT
  5
527
100
AcDbEntity
  8
0
100
AcDbBlockReference
 62
2
  6
CONTINUOUS
  2
UEBERSICHT_EMT_BL2
 10
371.11795842
 20
94.4124091324
 30
0.0
  0
INSERT
  5
528
100
AcDbEntity
  8
0
100
AcDbBlockReference
 62
2
  6
CONTINUOUS
  2
UEBERSICHT_EMT_BL3
 10
269.6303001418
 20
254.9954400122
 30
0.0
  0
INSERT
  5
529
100
AcDbEntity
  8
0
100
AcDbBlockReference
 62
2
  6
CONTINUOUS
  2
UEBERSICHT_EMT_BL4
 10
266.5987150341
 20
243.7954400122
 30
0.0
  0
ENDSEC
  0
SECTION
  2
OBJECTS
  0
DICTIONARY
  5
C
100
AcDbDictionary
280
0
281
1
  3
ACAD_GROUP
350
D
  3
ACAD_MLINESTYLE
350
17
  3
ACAD_LAYOUT
350
1A
  3
ACAD_PLOTSETTINGS
350
19
  3
ACAD_PLOTSTYLENAME
350
E
  3
ACAD_TABLESTYLE
350
       52A
  0
DICTIONARY
  5
D
102
{ACAD_REACTORS
330
C
102
}
100
AcDbDictionary
280
0
281
1
  0
ACDBDICTIONARYWDFLT
  5
E
102
{ACAD_REACTORS
330
C
102
}
100
AcDbDictionary
281
1
  3
Normal
350
F
100
AcDbDictionaryWithDefault
340
F
  0
DICTIONARY
  5
17
102
{ACAD_REACTORS
330
C
102
}
100
AcDbDictionary
280
0
281
1
  3
Standard
350
18
  0
DICTIONARY
  5
52A
330
C
100
AcDbDictionary
281
1
  3
Standard
350
       52D
  3
Standard1
350
       52E
  0
DICTIONARY
  5
19
102
{ACAD_REACTORS
330
C
102
}
100
AcDbDictionary
281
1
  0
DICTIONARY
  5
1A
102
{ACAD_REACTORS
330
C
102
}
100
AcDbDictionary
281
1
  3
Model
350
52B
  3
Layout1
350
52C
  0
ACDBPLACEHOLDER
  5
F
102
{ACAD_REACTORS
330
E
102
}
  0
MLINESTYLE
  5
18
102
{ACAD_REACTORS
330
17
102
}
100
AcDbMlineStyle
  2
STANDARD
 70
0
  3

 62
256
 51
90.0
 52
90.0
 71
2
 49
0.5
 62
256
  6
BYLAYER
 49
-0.5
 62
256
  6
BYLAYER
  0
LAYOUT
  5
52B
102
{ACAD_REACTORS
330
1A
102
}
100
AcDbPlotSettings
  1

  2
none_device
  4
ISO_A3_(420.00_x_297.00_MM)
  6

 40
0.0
 41
0.0
 42
0.0
 43
0.0
 44
420.0
 45
297.0
 46
0.0
 47
0.0
 48
0.0
 49
0.0
140
0.0
141
0.0
142
1.0
143
1.0
 70
1024
 72
1
 73
0
 74
0
  7

 75
0
147
1.0
148
0.0
149
0.0
100
AcDbLayout
  1
Model
 70
0
 71
0
 10
0.0
 20
0.0
 11
420.0
 21
297.0
 12
0.0
 22
0.0
 32
0.0
 14
0.0
 24
0.0
 34
0.0
 15
0.0
 25
0.0
 35
0.0
146
0.0
 13
0.0
 23
0.0
 33
0.0
 16
1.0
 26
0.0
 36
0.0
 17
0.0
 27
1.0
 37
0.0
 76
0
330
211
345
0
346
0
  0
LAYOUT
  5
52C
102
{ACAD_REACTORS
330
1A
102
}
100
AcDbPlotSettings
  1

  2
none_device
  4
ISO_A3_(420.00_x_297.00_MM)
  6

 40
0.0
 41
0.0
 42
0.0
 43
0.0
 44
420.0
 45
297.0
 46
0.0
 47
0.0
 48
0.0
 49
0.0
140
0.0
141
0.0
142
1.0
143
1.0
 70
0
 72
1
 73
0
 74
0
  7

 75
0
147
1.0
148
0.0
149
0.0
100
AcDbLayout
  1
Layout1
 70
0
 71
1
 10
0.0
 20
0.0
 11
420.0
 21
297.0
 12
0.0
 22
0.0
 32
0.0
 14
0.0
 24
0.0
 34
0.0
 15
0.0
 25
0.0
 35
0.0
146
0.0
 13
0.0
 23
0.0
 33
0.0
 16
1.0
 26
0.0
 36
0.0
 17
0.0
 27
1.0
 37
0.0
 76
0
330
212
345
0
346
0
  0
TABLESTYLE
  5
52D
102
{ACAD_REACTORS
330
52A
330
524
330
525
330
526
102
}
330
52A
100
AcDbTableStyle
  3
Standard
 70
0
 71
0
 40
1.5
 41
1.5
280
1
281
1
  7
Standard
140
0.18
170
1
 62
0
 63
7
283
0
  7
Standard
140
0.18
170
1
 62
0
 63
7
283
0
  7
Standard
140
0.18
170
1
 62
0
 63
7
283
0
  0
TABLESTYLE
  5
52E
102
{ACAD_REACTORS
330
52A
102
}
330
52A
100
AcDbTableStyle
  3
Standard1
 70
1
 71
0
 40
1.5
 41
1.5
280
1
281
1
  7
Standard
140
0.18
170
1
 62
0
 63
7
283
0
  7
Standard
140
0.18
170
1
 62
0
 63
7
283
0
  7
Standard
140
0.18
170
1
 62
0
 63
7
283
0
  0
ENDSEC
  0
EOF
