999
Reduced from 1095.dxf attached to issue #147: header, layers and entities only
  0
SECTION
  2
HEADER
  9
$ACADVER
  1
AC1015
  0
ENDSEC
  0
SECTION
  2
TABLES
  0
TABLE
  2
LTYPE
 70
1
  0
LTYPE
  2
CONTINUOUS
 70
0
  3
Solid line
 72
65
 73
0
 40
0.0
  0
ENDTAB
  0
TABLE
  2
LAYER
 70
3
  0
LAYER
  2
0
 70
0
 62
7
  6
Continuous
  0
LAYER
  2
2D
 70
0
 62
7
  6
Continuous
  0
LAYER
  2
2
 70
0
 62
7
  6
Continuous
  0
ENDTAB
  0
ENDSEC
  0
SECTION
  2
ENTITIES
  0
LINE
100
AcDbEntity
 67
0
  8
2D
 62
1
  6
Durchgezogen
370
0
 48
1.0
 60
0
100
AcDbLine
 10
366023.778773976
 20
3208.75943683662
 30
0.0
 11
366156.888774587
 21
3208.75943683662
 31
0.0
 39
0.0
210
0.0
220
0.0
230
1.0
  0
ARC
100
AcDbEntity
 67
0
  8
2D
 62
1
  6
Durchgezogen
370
0
 48
1.0
 60
0
100
AcDbCircle
 39
0.0
 10
366171.888774587
 20
3208.7602538053
 30
0.0
 40
14.9999999999998
210
0.0
220
0.0
230
1.0
100
AcDbArc
 50
86.981051200337
 51
180.003120590476
  0
LINE
100
AcDbEntity
 67
0
  8
2D
 62
1
  6
Durchgezogen
370
0
 48
1.0
 60
0
100
AcDbLine
 10
366172.678767873
 20
3223.73943637886
 30
0.0
 11
366176.068767263
 21
3288.75943683662
 31
0.0
 39
0.0
210
0.0
220
0.0
230
1.0
  0
LINE
100
AcDbEntity
 67
0
  8
2D
 62
1
  6
Durchgezogen
370
0
 48
1.0
 60
0
100
AcDbLine
 10
366176.068767263
 20
3288.75943683662
 30
0.0
 11
366081.748775197
 21
3358.41944049873
 31
0.0
 39
0.0
210
0.0
220
0.0
230
1.0
  0
LINE
100
AcDbEntity
 67
0
  8
2D
 62
1
  6
Durchgezogen
370
0
 48
1.0
 60
0
100
AcDbLine
 10
366081.748775197
 20
3358.41944049873
 30
0.0
 11
366023.778773976
 21
3303.27943347969
 31
0.0
 39
0.0
210
0.0
220
0.0
230
1.0
  0
LINE
100
AcDbEntity
 67
0
  8
2D
 62
1
  6
Durchgezogen
370
0
 48
1.0
 60
0
100
AcDbLine
 10
366023.778773976
 20
3303.27943347969
 30
0.0
 11
366023.778773976
 21
3208.75943683662
 31
0.0
 39
0.0
210
0.0
220
0.0
230
1.0
  0
ARC
100
AcDbEntity
 67
0
  8
2D
 62
1
  6
Durchgezogen
370
0
 48
1.0
 60
0
100
AcDbCircle
 39
0.0
 10
366080.328773213
 20
3301.86943744697
 30
0.0
 40
11.0
210
0.0
220
0.0
230
1.0
100
AcDbArc
 50
90.0
 51
270.0
  0
ARC
100
AcDbEntity
 67
0
  8
2D
 62
1
  6
Durchgezogen
370
0
 48
1.0
 60
0
100
AcDbCircle
 39
0.0
 10
366080.328773213
 20
3301.86943744697
 30
0.0
 40
11.0
210
0.0
220
0.0
230
1.0
100
AcDbArc
 50
270.0
 51
90.0
  0
LINE
100
AcDbEntity
 67
0
  8
2
 62
2
  6
Durchgezogen
370
0
 48
1.0
 60
0
100
AcDbLine
 10
366035.596955968
 20
3217.85034584083
 30
0.0
 11
366034.687864972
 21
3217.39580081978
 31
0.0
 39
0.0
210
0.0
220
0.0
230
1.0
  0
LINE
100
AcDbEntity
 67
0
  8
2
 62
2
  6
Durchgezogen
370
0
 48
1.0
 60
0
100
AcDbLine
 10
366036.960591985
 20
3219.21398185768
 30
0.0
 11
366035.596955968
 21
3217.85034584083
 31
0.0
 39
0.0
210
0.0
220
0.0
230
1.0
  0
LINE
100
AcDbEntity
 67
0
  8
2
 62
2
  6
Durchgezogen
370
0
 48
1.0
 60
0
100
AcDbLine
 10
366036.960591985
 20
3209.66852777281
 30
0.0
 11
366036.960591985
 21
3219.21398185768
 31
0.0
 39
0.0
210
0.0
220
0.0
230
1.0
  0
SPLINE
100
AcDbEntity
 67
0
  8
2
 62
2
  6
Durchgezogen
370
0
 48
1.0
 60
0
100
AcDbSpline
 70
38
 71
3
 42
0.0000001
 43
0.0000001
 44
0.0000000001
 40
0.0
 40
0.0
 40
0.0
 40
0.0
 40
0.126430833061592
 40
0.194321916876454
 40
0.2708757016885
 40
0.338766786317195
 40
0.407599138854005
 40
0.458455982045465
 40
0.506741660086934
 40
0.557598496527859
 40
0.626430844700809
 40
0.694321924965644
 40
0.770875714551041
 40
0.838766794002042
 40
0.907599139677485
 40
1.0
 40
1.0
 40
1.0
 40
1.0
 10
366041.50604601
 20
3219.21398185768
 30
0.0
 41
1.0
 10
366040.227913718
 20
3219.27541490107
 30
0.0
 41
1.0
 10
366039.14030775
 20
3217.68556854226
 30
0.0
 41
1.0
 10
366038.744759136
 20
3215.37530406863
 30
0.0
 41
1.0
 10
366038.738693225
 20
3213.50445578359
 30
0.0
 41
1.0
 10
366039.077760856
 20
3211.70958789401
 30
0.0
 41
1.0
 10
366039.824958171
 20
3210.08207476301
 30
0.0
 41
1.0
 10
366041.311903911
 20
3209.62785028298
 30
0.0
 41
1.0
 10
366042.60928394
 20
3209.62786094254
 30
0.0
 41
1.0
 10
366044.096185576
 20
3210.08202566819
 30
0.0
 41
1.0
 10
366044.843671993
 20
3211.70987654089
 30
0.0
 41
1.0
 10
366045.181121625
 20
3213.50288524003
 30
0.0
 41
1.0
 10
366045.179980044
 20
3215.37938086727
 30
0.0
 41
1.0
 10
366044.84772981
 20
3217.17453283034
 30
0.0
 41
1.0
 10
366043.91798888
 20
3219.15493925541
 30
0.0
 41
1.0
 10
366042.263134012
 20
3219.27805397755
 30
0.0
 41
1.0
 10
366041.50604601
 20
3219.21398185768
 30
0.0
 41
1.0
  0
LINE
100
AcDbEntity
 67
0
  8
2
 62
2
  6
Durchgezogen
370
0
 48
1.0
 60
0
100
AcDbLine
 10
366052.41513796
 20
3214.66852783241
 30
0.0
 11
366052.869683934
 21
3216.03216432609
 31
0.0
 39
0.0
210
0.0
220
0.0
230
1.0
  0
LINE
100
AcDbEntity
 67
0
  8
2
 62
2
  6
Durchgezogen
370
0
 48
1.0
 60
0
100
AcDbLine
 10
366051.50604601
 20
3213.75943683662
 30
0.0
 11
366052.41513796
 21
3214.66852783241
 31
0.0
 39
0.0
210
0.0
220
0.0
230
1.0
  0
LINE
100
AcDbEntity
 67
0
  8
2
 62
2
  6
Durchgezogen
370
0
 48
1.0
 60
0
100
AcDbLine
 10
366050.142409993
 20
3213.30489133873
 30
0.0
 11
366051.50604601
 21
3213.75943683662
 31
0.0
 39
0.0
210
0.0
220
0.0
230
1.0
  0
LINE
100
AcDbEntity
 67
0
  8
2
 62
2
  6
Durchgezogen
370
0
 48
1.0
 60
0
100
AcDbLine
 10
366049.687864018
 20
3213.30489133873
 30
0.0
 11
366050.142409993
 21
3213.30489133873
 31
0.0
 39
0.0
210
0.0
220
0.0
230
1.0
  0
LINE
100
AcDbEntity
 67
0
  8
2
 62
2
  6
Durchgezogen
370
0
 48
1.0
 60
0
100
AcDbLine
 10
366048.324228002
 20
3213.75943683662
 30
0.0
 11
366049.687864018
 21
3213.30489133873
 31
0.0
 39
0.0
210
0.0
220
0.0
230
1.0
  0
LINE
100
AcDbEntity
 67
0
  8
2
 62
2
  6
Durchgezogen
370
0
 48
1.0
 60
0
100
AcDbLine
 10
366047.41513796
 20
3214.66852783241
 30
0.0
 11
366048.324228002
 21
3213.75943683662
 31
0.0
 39
0.0
210
0.0
220
0.0
230
1.0
  0
LINE
100
AcDbEntity
 67
0
  8
2
 62
2
  6
Durchgezogen
370
0
 48
1.0
 60
0
100
AcDbLine
 10
366046.960591985
 20
3216.03216432609
 30
0.0
 11
366047.41513796
 21
3214.66852783241
 31
0.0
 39
0.0
210
0.0
220
0.0
230
1.0
  0
LINE
100
AcDbEntity
 67
0
  8
2
 62
2
  6
Durchgezogen
370
0
 48
1.0
 60
0
100
AcDbLine
 10
366046.960591985
 20
3216.48670934715
 30
0.0
 11
366046.960591985
 21
3216.03216432609
 31
0.0
 39
0.0
210
0.0
220
0.0
230
1.0
  0
LINE
100
AcDbEntity
 67
0
  8
2
 62
2
  6
Durchgezogen
370
0
 48
1.0
 60
0
100
AcDbLine
 10
366047.41513796
 20
3217.85034584083
 30
0.0
 11
366046.960591985
 21
3216.48670934715
 31
0.0
 39
0.0
210
0.0
220
0.0
230
1.0
  0
LINE
100
AcDbEntity
 67
0
  8
2
 62
2
  6
Durchgezogen
370
0
 48
1.0
 60
0
100
AcDbLine
 10
366048.324228002
 20
3218.75943683662
 30
0.0
 11
366047.41513796
 21
3217.85034584083
 31
0.0
 39
0.0
210
0.0
220
0.0
230
1.0
  0
LINE
100
AcDbEntity
 67
0
  8
2
 62
2
  6
Durchgezogen
370
0
 48
1.0
 60
0
100
AcDbLine
 10
366049.687864018
 20
3219.21398185768
 30
0.0
 11
366048.324228002
 21
3218.75943683662
 31
0.0
 39
0.0
210
0.0
220
0.0
230
1.0
  0
LINE
100
AcDbEntity
 67
0
  8
2
 62
2
  6
Durchgezogen
370
0
 48
1.0
 60
0
100
AcDbLine
 10
366050.142409993
 20
3219.21398185768
 30
0.0
 11
366049.687864018
 21
3219.21398185768
 31
0.0
 39
0.0
210
0.0
220
0.0
230
1.0
  0
LINE
100
AcDbEntity
 67
0
  8
2
 62
2
  6
Durchgezogen
370
0
 48
1.0
 60
0
100
AcDbLine
 10
366051.50604601
 20
3218.75943683662
 30
0.0
 11
366050.142409993
 21
3219.21398185768
 31
0.0
 39
0.0
210
0.0
220
0.0
230
1.0
  0
LINE
100
AcDbEntity
 67
0
  8
2
 62
2
  6
Durchgezogen
370
0
 48
1.0
 60
0
100
AcDbLine
 10
366052.41513796
 20
3217.85034584083
 30
0.0
 11
366051.50604601
 21
3218.75943683662
 31
0.0
 39
0.0
210
0.0
220
0.0
230
1.0
  0
LINE
100
AcDbEntity
 67
0
  8
2
 62
2
  6
Durchgezogen
370
0
 48
1.0
 60
0
100
AcDbLine
 10
366052.869683934
 20
3216.03216432609
 30
0.0
 11
366052.41513796
 21
3217.85034584083
 31
0.0
 39
0.0
210
0.0
220
0.0
230
1.0
  0
LINE
100
AcDbEntity
 67
0
  8
2
 62
2
  6
Durchgezogen
370
0
 48
1.0
 60
0
100
AcDbLine
 10
366052.869683934
 20
3213.75943683662
 30
0.0
 11
366052.869683934
 21
3216.03216432609
 31
0.0
 39
0.0
210
0.0
220
0.0
230
1.0
  0
LINE
100
AcDbEntity
 67
0
  8
2
 62
2
  6
Durchgezogen
370
0
 48
1.0
 60
0
100
AcDbLine
 10
366052.41513796
 20
3211.48670958557
 30
0.0
 11
366052.869683934
 21
3213.75943683662
 31
0.0
 39
0.0
210
0.0
220
0.0
230
1.0
  0
LINE
100
AcDbEntity
 67
0
  8
2
 62
2
  6
Durchgezogen
370
0
 48
1.0
 60
0
100
AcDbLine
 10
366051.50604601
 20
3210.1230732111
 30
0.0
 11
366052.41513796
 21
3211.48670958557
 31
0.0
 39
0.0
210
0.0
220
0.0
230
1.0
  0
LINE
100
AcDbEntity
 67
0
  8
2
 62
2
  6
Durchgezogen
370
0
 48
1.0
 60
0
100
AcDbLine
 10
366050.142409993
 20
3209.66852777281
 30
0.0
 11
366051.50604601
 21
3210.1230732111
 31
0.0
 39
0.0
210
0.0
220
0.0
230
1.0
  0
LINE
100
AcDbEntity
 67
0
  8
2
 62
2
  6
Durchgezogen
370
0
 48
1.0
 60
0
100
AcDbLine
 10
366049.233319951
 20
3209.66852777281
 30
0.0
 11
366050.142409993
 21
3209.66852777281
 31
0.0
 39
0.0
210
0.0
220
0.0
230
1.0
  0
LINE
100
AcDbEntity
 67
0
  8
2
 62
2
  6
Durchgezogen
370
0
 48
1.0
 60
0
100
AcDbLine
 10
366047.869683934
 20
3210.1230732111
 30
0.0
 11
366049.233319951
 21
3209.66852777281
 31
0.0
 39
0.0
210
0.0
220
0.0
230
1.0
  0
LINE
100
AcDbEntity
 67
0
  8
2
 62
2
  6
Durchgezogen
370
0
 48
1.0
 60
0
100
AcDbLine
 10
366047.41513796
 20
3211.03216408767
 30
0.0
 11
366047.869683934
 21
3210.1230732111
 31
0.0
 39
0.0
210
0.0
220
0.0
230
1.0
  0
LINE
100
AcDbEntity
 67
0
  8
2
 62
2
  6
Durchgezogen
370
0
 48
1.0
 60
0
100
AcDbLine
 10
366055.596955968
 20
3219.21398185768
 30
0.0
 11
366060.142409993
 21
3219.21398185768
 31
0.0
 39
0.0
210
0.0
220
0.0
230
1.0
  0
LINE
100
AcDbEntity
 67
0
  8
2
 62
2
  6
Durchgezogen
370
0
 48
1.0
 60
0
100
AcDbLine
 10
366055.142409993
 20
3215.1230733303
 30
0.0
 11
366055.596955968
 21
3219.21398185768
 31
0.0
 39
0.0
210
0.0
220
0.0
230
1.0
  0
LINE
100
AcDbEntity
 67
0
  8
2
 62
2
  6
Durchgezogen
370
0
 48
1.0
 60
0
100
AcDbLine
 10
366055.596955968
 20
3215.5776188282
 30
0.0
 11
366055.142409993
 21
3215.1230733303
 31
0.0
 39
0.0
210
0.0
220
0.0
230
1.0
  0
LINE
100
AcDbEntity
 67
0
  8
2
 62
2
  6
Durchgezogen
370
0
 48
1.0
 60
0
100
AcDbLine
 10
366056.960593892
 20
3216.03216432609
 30
0.0
 11
366055.596955968
 21
3215.5776188282
 31
0.0
 39
0.0
210
0.0
220
0.0
230
1.0
  0
LINE
100
AcDbEntity
 67
0
  8
2
 62
2
  6
Durchgezogen
370
0
 48
1.0
 60
0
100
AcDbLine
 10
366058.324229909
 20
3216.03216432609
 30
0.0
 11
366056.960593892
 21
3216.03216432609
 31
0.0
 39
0.0
210
0.0
220
0.0
230
1.0
  0
LINE
100
AcDbEntity
 67
0
  8
2
 62
2
  6
Durchgezogen
370
0
 48
1.0
 60
0
100
AcDbLine
 10
366059.687865926
 20
3215.5776188282
 30
0.0
 11
366058.324229909
 21
3216.03216432609
 31
0.0
 39
0.0
210
0.0
220
0.0
230
1.0
  0
LINE
100
AcDbEntity
 67
0
  8
2
 62
2
  6
Durchgezogen
370
0
 48
1.0
 60
0
100
AcDbLine
 10
366060.596954061
 20
3214.66852783241
 30
0.0
 11
366059.687865926
 21
3215.5776188282
 31
0.0
 39
0.0
210
0.0
220
0.0
230
1.0
  0
LINE
100
AcDbEntity
 67
0
  8
2
 62
2
  6
Durchgezogen
370
0
 48
1.0
 60
0
100
AcDbLine
 10
366061.051501943
 20
3213.30489133873
 30
0.0
 11
366060.596954061
 21
3214.66852783241
 31
0.0
 39
0.0
210
0.0
220
0.0
230
1.0
  0
LINE
100
AcDbEntity
 67
0
  8
2
 62
2
  6
Durchgezogen
370
0
 48
1.0
 60
0
100
AcDbLine
 10
366061.051501943
 20
3212.39580058136
 30
0.0
 11
366061.051501943
 21
3213.30489133873
 31
0.0
 39
0.0
210
0.0
220
0.0
230
1.0
  0
LINE
100
AcDbEntity
 67
0
  8
2
 62
2
  6
Durchgezogen
370
0
 48
1.0
 60
0
100
AcDbLine
 10
366060.596954061
 20
3211.03216408767
 30
0.0
 11
366061.051501943
 21
3212.39580058136
 31
0.0
 39
0.0
210
0.0
220
0.0
230
1.0
  0
LINE
100
AcDbEntity
 67
0
  8
2
 62
2
  6
Durchgezogen
370
0
 48
1.0
 60
0
100
AcDbLine
 10
366059.687865926
 20
3210.1230732111
 30
0.0
 11
366060.596954061
 21
3211.03216408767
 31
0.0
 39
0.0
210
0.0
220
0.0
230
1.0
  0
LINE
100
AcDbEntity
 67
0
  8
2
 62
2
  6
Durchgezogen
370
0
 48
1.0
 60
0
100
AcDbLine
 10
366058.324229909
 20
3209.66852777281
 30
0.0
 11
366059.687865926
 21
3210.1230732111
 31
0.0
 39
0.0
210
0.0
220
0.0
230
1.0
  0
LINE
100
AcDbEntity
 67
0
  8
2
 62
2
  6
Durchgezogen
370
0
 48
1.0
 60
0
100
AcDbLine
 10
366056.960593892
 20
3209.66852777281
 30
0.0
 11
366058.324229909
 21
3209.66852777281
 31
0.0
 39
0.0
210
0.0
220
0.0
230
1.0
  0
LINE
100
AcDbEntity
 67
0
  8
2
 62
2
  6
Durchgezogen
370
0
 48
1.0
 60
0
100
AcDbLine
 10
366055.596955968
 20
3210.1230732111
 30
0.0
 11
366056.960593892
 21
3209.66852777281
 31
0.0
 39
0.0
210
0.0
220
0.0
230
1.0
  0
LINE
100
AcDbEntity
 67
0
  8
2
 62
2
  6
Durchgezogen
370
0
 48
1.0
 60
0
100
AcDbLine
 10
366055.142409993
 20
3210.57761870899
 30
0.0
 11
366055.596955968
 21
3210.1230732111
 31
0.0
 39
0.0
210
0.0
220
0.0
230
1.0
  0
LINE
100
AcDbEntity
 67
0
  8
2
 62
2
  6
Durchgezogen
370
0
 48
1.0
 60
0
100
AcDbLine
 10
366054.687864018
 20
3211.48670958557
 30
0.0
 11
366055.142409993
 21
3210.57761870899
 31
0.0
 39
0.0
210
0.0
220
0.0
230
1.0
  0
ENDSEC
  0
EOF
