  0
SECTION
  2
HEADER
  9
$ACADVER
  1
AC1009
  9
$LIMMIN
 10
0.000000
 20
0.000000
  9
$LIMMAX
 10
1175.709275
 20
500.356920
  9
$MEASUREMENT
 70
1
  0
ENDSEC
  0
SECTION
  2
TABLES
  0
TABLE
  2
LTYPE
 70
     4
  0
LTYPE
  2
CONTINUOUS
 70
     0
  3
Solid line
 72
     65
 73
     0
 40
0.000000
  0
LTYPE
  2
HIDDEN
 70
     0
  3
 _ _ _ _ _ _ _ _ _ _ _
 72
     65
 73
     2
 40
0.375000
 49
0.250000
 49
-0.125000
  0
LTYPE
  2
DASHED
 70
     0
  3
 ___ ___ ___ ___ ___ ___ ___ 
 72
     65
 73
     2
 40
0.750000
 49
0.500000
 49
-0.250000
  0
LTYPE
  2
CENTER
 70
     0
  3
___ _ ___ _ ___ _ ___
 72
     65
 73
     4
 40
2.000000
 49
1.250000
 49
-0.250000
 49
0.250000
 49
-0.250000
  0
LTYPE
  2
BORDER
 70
     0
  3
___ ___ . ___ ___ . ___ ___
 72
     65
 73
     6
 40
1.750000
 49
0.500000
 49
-0.250000
 49
0.500000
 49
-0.250000
 49
0.000000
 49
-0.250000
  0
LTYPE
  2
DOT
 70
     0
  3
.................
 72
     65
 73
     2
 40
0.250000
 49
0.000000
 49
-0.250000
  0
LTYPE
  2
DASHDOT
 70
     0
  3
__ . __ . __ . __
 72
     65
 73
     4
 40
1.000000
 49
0.500000
 49
-0.250000
 49
0.000000
 49
-0.250000
  0
LTYPE
  2
DIVIDE
 70
     0
  3
___ .. ___ .. ___ .. ___
 72
     65
 73
     6
 40
1.250000
 49
0.500000
 49
-0.250000
 49
0.000000
 49
-0.250000
 49
0.000000
 49
-0.250000
  0
ENDTAB
  0
TABLE
  2
LAYER
 70
     8
  0
LAYER
  2
BLACK
 70
     0
 62
     1
  6
CONTINUOUS
  0
LAYER
  2
WHITE
 70
     0
 62
     7
  6
CONTINUOUS
  0
LAYER
  2
RED
 70
     0
 62
     1
  6
CONTINUOUS
  0
LAYER
  2
YELLOW
 70
     0
 62
     2
  6
CONTINUOUS
  0
LAYER
  2
GREEN
 70
     0
 62
     3
  6
CONTINUOUS
  0
LAYER
  2
CYAN
 70
     0
 62
     4
  6
CONTINUOUS
  0
LAYER
  2
BLUE
 70
     0
 62
     5
  6
CONTINUOUS
  0
LAYER
  2
MAGENTA
 70
     0
 62
     6
  6
CONTINUOUS
  0
ENDTAB
  0
TABLE
  2
APPID
 70
     1
  0
APPID
  2
TC_BEND_DATA
 70
     0
  0
ENDTAB
  0
ENDSEC
  0
SECTION
  2
BLOCKS
  0
ENDSEC
  0
SECTION
  2
ENTITIES
  0
TEXT
  8
YELLOW
  1
H1
 10
129.685000
 20
465.250589
 30
0.000000
 11
129.685000
 21
465.250589
 31
0.000000
 40
100.000000
 72
1
 73
2
  0
TEXT
  8
YELLOW
  1
FH3
 10
1105.336619
 20
430.543615
 30
0.000000
 11
1105.336619
 21
430.543615
 31
0.000000
 40
100.000000
 72
1
 73
2
  0
TEXT
  8
YELLOW
  1
H2
 10
515.318051
 20
469.106920
 30
0.000000
 11
515.318051
 21
469.106920
 31
0.000000
 40
100.000000
 72
1
 73
2
  0
LINE
  8
WHITE
 10
392.897328
 20
239.721991
 30
0.000000
 11
392.897328
 21
39.721991
 31
0.000000
  6
CONTINUOUS
  0
LINE
  8
WHITE
 10
392.897328
 20
39.721991
 30
0.000000
 11
652.897328
 21
39.721991
 31
0.000000
  6
CONTINUOUS
  0
LINE
  8
WHITE
 10
652.897328
 20
39.721991
 30
0.000000
 11
652.897328
 21
239.721991
 31
0.000000
  6
CONTINUOUS
  0
LINE
  8
WHITE
 10
652.897328
 20
239.721991
 30
0.000000
 11
392.897328
 21
239.721991
 31
0.000000
  6
CONTINUOUS
  0
LINE
  8
WHITE
 10
246.000000
 20
239.721991
 30
0.000000
 11
0.000000
 21
239.721991
 31
0.000000
  6
CONTINUOUS
  0
LINE
  8
WHITE
 10
0.000000
 20
239.721991
 30
0.000000
 11
0.000000
 21
39.721991
 31
0.000000
  6
CONTINUOUS
  0
LINE
  8
WHITE
 10
0.000000
 20
39.721991
 30
0.000000
 11
246.000000
 21
39.721991
 31
0.000000
  6
CONTINUOUS
  0
LINE
  8
WHITE
 10
246.000000
 20
39.721991
 30
0.000000
 11
246.000000
 21
239.721991
 31
0.000000
  6
CONTINUOUS
  0
CIRCLE
  8
WHITE
 10
123.000000
 20
64.721991
 30
0.000000
 40
4.000000
  6
CONTINUOUS
  0
CIRCLE
  8
WHITE
 10
123.000000
 20
214.721991
 30
0.000000
 40
4.000000
  6
CONTINUOUS
  0
CIRCLE
  8
WHITE
 10
20.000000
 20
64.721991
 30
0.000000
 40
2.500000
  6
CONTINUOUS
  0
CIRCLE
  8
WHITE
 10
20.000000
 20
214.721991
 30
0.000000
 40
2.500000
  6
CONTINUOUS
  0
CIRCLE
  8
WHITE
 10
226.000000
 20
64.721991
 30
0.000000
 40
2.500000
  6
CONTINUOUS
  0
CIRCLE
  8
WHITE
 10
226.000000
 20
214.721991
 30
0.000000
 40
2.500000
  6
CONTINUOUS
  0
LINE
  8
WHITE
 10
1156.917287
 20
0.000000
 30
0.000000
 11
952.317287
 21
0.000000
 31
0.000000
  6
CONTINUOUS
  0
LINE
  8
WHITE
 10
952.317287
 20
0.000000
 30
0.000000
 11
952.317287
 21
50.000000
 31
0.000000
  6
CONTINUOUS
  0
LINE
  8
WHITE
 10
952.317287
 20
50.000000
 30
0.000000
 11
1156.917287
 21
50.000000
 31
0.000000
  6
CONTINUOUS
  0
LINE
  8
WHITE
 10
1156.917287
 20
50.000000
 30
0.000000
 11
1156.917287
 21
0.000000
 31
0.000000
  6
CONTINUOUS
  0
CIRCLE
  8
WHITE
 10
964.317287
 20
25.000000
 30
0.000000
 40
2.500000
  6
CONTINUOUS
  0
LINE
  8
WHITE
 10
1131.632333
 20
142.569430
 30
0.000000
 11
1131.370865
 21
139.580846
 31
0.000000
  6
CONTINUOUS
  0
LINE
  8
WHITE
 10
1131.370865
 20
139.580846
 30
0.000000
 11
955.317287
 21
154.983539
 31
0.000000
  6
CONTINUOUS
  0
LINE
  8
WHITE
 10
955.317287
 20
154.983539
 30
0.000000
 11
955.317287
 21
128.257464
 31
0.000000
  6
CONTINUOUS
  0
LINE
  8
WHITE
 10
955.317287
 20
128.257464
 30
0.000000
 11
952.317287
 21
128.257464
 31
0.000000
  6
CONTINUOUS
  0
LINE
  8
WHITE
 10
952.317287
 20
128.257464
 30
0.000000
 11
952.317287
 21
158.257464
 31
0.000000
  6
CONTINUOUS
  0
LINE
  8
WHITE
 10
952.317287
 20
158.257464
 30
0.000000
 11
1131.632333
 21
142.569430
 31
0.000000
  6
CONTINUOUS
  0
LINE
  8
GREEN
 10
148.500000
 20
39.721991
 30
0.000000
 11
148.500000
 21
239.721991
 31
0.000000
  6
CONTINUOUS
1001
TC_BEND_DATA
1000
TC_MATERIAL: 
1000
TC_BEND_PROCESS: NORMAL
1000
TC_BEND_METHOD: 0
1000
TC_BEND_ANGLE: 90.000000
1000
TC_BEND_PREANGLE: 0.000000
1000
TC_BEND_RADIUS: 1.000000
1000
TC_BEND_FACTOR: 0.000000
1000
TC_BEND_PISTON_ID: OW202
1000
TC_BEND_DIE_ID: EV003
  0
LINE
  8
GREEN
 10
97.500000
 20
239.721991
 30
0.000000
 11
97.500000
 21
39.721991
 31
0.000000
  6
CONTINUOUS
1001
TC_BEND_DATA
1000
TC_MATERIAL: 
1000
TC_BEND_PROCESS: NORMAL
1000
TC_BEND_METHOD: 0
1000
TC_BEND_ANGLE: 90.000000
1000
TC_BEND_PREANGLE: 0.000000
1000
TC_BEND_RADIUS: 1.000000
1000
TC_BEND_FACTOR: 0.000000
1000
TC_BEND_PISTON_ID: OW202
1000
TC_BEND_DIE_ID: EV003
  0
LINE
  8
GREEN
 10
545.397328
 20
39.721991
 30
0.000000
 11
545.397328
 21
239.721991
 31
0.000000
  6
CONTINUOUS
1001
TC_BEND_DATA
1000
TC_MATERIAL: 
1000
TC_BEND_PROCESS: NORMAL
1000
TC_BEND_METHOD: 0
1000
TC_BEND_ANGLE: 90.000000
1000
TC_BEND_PREANGLE: 0.000000
1000
TC_BEND_RADIUS: 1.000000
1000
TC_BEND_FACTOR: 0.000000
1000
TC_BEND_PISTON_ID: OW202
1000
TC_BEND_DIE_ID: EV003
  0
LINE
  8
GREEN
 10
500.397328
 20
239.721991
 30
0.000000
 11
500.397328
 21
39.721991
 31
0.000000
  6
CONTINUOUS
1001
TC_BEND_DATA
1000
TC_MATERIAL: 
1000
TC_BEND_PROCESS: NORMAL
1000
TC_BEND_METHOD: 0
1000
TC_BEND_ANGLE: 90.000000
1000
TC_BEND_PREANGLE: 0.000000
1000
TC_BEND_RADIUS: 1.000000
1000
TC_BEND_FACTOR: 0.000000
1000
TC_BEND_PISTON_ID: OW202
1000
TC_BEND_DIE_ID: EV003
  0
LINE
  8
GREEN
 10
979.617287
 20
0.000000
 30
0.000000
 11
979.617287
 21
50.000000
 31
0.000000
  6
CONTINUOUS
1001
TC_BEND_DATA
1000
TC_MATERIAL: 
1000
TC_BEND_PROCESS: NORMAL
1000
TC_BEND_METHOD: 0
1000
TC_BEND_ANGLE: 90.000000
1000
TC_BEND_PREANGLE: 0.000000
1000
TC_BEND_RADIUS: 1.000000
1000
TC_BEND_FACTOR: 0.000000
1000
TC_BEND_PISTON_ID: OW202
1000
TC_BEND_DIE_ID: EV003
  0
ENDSEC
  0
EOF
